<svg width="379.17" height="268.01" version="1.1" viewBox="0 0 379.17 268.01" xmlns="http://www.w3.org/2000/svg">
<defs>
<style>.cls-1{fill:#f4876e}.cls-2{fill:#f99e75}.cls-3{fill:#539c9f}.cls-4{fill:#53b6b9}.cls-5{fill:#ffce5d}.cls-6{fill:#fff}.cls-7{fill:#0c2146}.cls-8{fill:#f7a57a}.cls-9{fill:#0f787a}.cls-10{fill:#005558}.cls-11{fill:#00386d}.cls-12{fill:#f18c72}.cls-13{fill:#122043}.cls-14{fill:#009fe3}.cls-15{fill:#f3bc00;font-size:190px;font-family:OpenSans-Bold,OpenSans,Open Sans;font-weight:700}</style>
</defs>
<g transform="rotate(-7 322.72 112.92)">
<g transform="translate(25.025,36.686)">
<path class="cls-1" d="M 19.651,9.411 18.186,27.945 0,28.731 7.328,0 Z"/>
</g>
<g transform="translate(84.273,41.22)">
<path class="cls-2" d="m11.548 19.236c0.29-0.867 1.567-3.747 6.648-7.672 4.557-3.522 16.181-8.073 11.14-11.564-6.227 0.5-13.6 0.336-13.6 0.336-3.736 0.673-8.121 5.327-10.302 8.744l-5.434 11.313s2.5 5.553 2.573 5.836l2.6-0.495a29.5 29.5 0 0 1 6.375-6.498z"/>
<path class="cls-2" transform="translate(1.802,14.257)" d="m10.021 1.791a4.547 4.547 0 0 1 0.161-0.924 28.5 28.5 0 0 1-2.415 0.351c-2.567 1.567-5.183 3.053-7.767 4.591 1.1 1.355 2.637 3.258 2.719 3.415l18.924-6.718s0.209-2.587-3.993-2.506a19.971 19.971 0 0 0-7.629 1.791z"/>
</g>
<path class="cls-3" transform="translate(46.454,56.669)" d="M 20.812,42.188 50,15.065 39.925,0 0,18.857 17.382,49.4 Z"/>
<path class="cls-4" transform="translate(0,53.193)" d="m34.851 0.389c-41.621-8.63-34.366 129.19-34.366 129.19h65.839s0.943-23.994 3.35-54.416c2.04-25.805-12.434-54.942-34.823-74.772z"/>
<g transform="translate(141.04,82.037)">
<path class="cls-2" d="m8.822 14.722c0.909-0.091 4-0.692 8.964-4.766 4.451-3.656 11.482-13.971 13.759-8.277-1.876 5.959-3.366 13.182-3.366 13.182-1.491 3.5-7.006 6.724-10.825 8.086l-12.239 2.771s-4.855-3.679-5.115-3.813l1.064-2.425a29.571 29.571 0 0 0 7.758-4.758z"/>
<path class="cls-2" transform="translate(3.115,3.676)" d="m8.877 11.488a4.533 4.533 0 0 0 0.937 0.051 27.075 27.075 0 0 0-0.882 2.275c-2.1 2.153-4.134 4.369-6.213 6.545-1.074-1.372-2.586-3.296-2.719-3.415l10.776-16.944s2.567 0.374 1.548 4.451a19.972 19.972 0 0 1-3.447 7.037z"/>
</g>
<path class="cls-4" transform="translate(25.024,75.525)" d="m0 23.55s11.381 42.4 42.243 46.311 81.635-35.153 81.635-35.153l-5.578-11.158-53.568 15a18.155 18.155 0 0 1-20.852-8.822l-16.141-29.728z"/>
<path class="cls-5" transform="translate(79.715,36.686)" d="M 99.876,38.84 53.286,73.907 0,32.258 43.521,0 Z"/>
<path class="cls-4" transform="translate(114.85,99.075)" d="M 2.823,20.283 A 33.422,33.422 0 0 0 0,7.972 L 28.471,0 34.051,11.159 A 269.034,269.034 0 0 1 1.518,32 41.336,41.336 0 0 0 2.823,20.283 Z"/>
<g transform="translate(144.12,85.713)">
<path class="cls-2" transform="translate(0,6.299)" d="m13.692 13.1-10.03 2.275a33.292 33.292 0 0 0-3.662-6.802 30.04 30.04 0 0 0 5.743-3.826c0.907-0.091 3.993-0.691 8.938-4.747a41.081 41.081 0 0 0-1.129 11.049q0.042 1.04 0.14 2.051z"/>
<path class="cls-2" transform="translate(.689)" d="m0 15.918 10.122-15.918s2.568 0.374 1.548 4.451a19.972 19.972 0 0 1-3.447 7.037 4.533 4.533 0 0 0 0.937 0.051 27.075 27.075 0 0 0-0.882 2.275c-2.021 2.072-3.982 4.2-5.976 6.3a33.354 33.354 0 0 0-2.302-4.196z"/>
</g>
<g transform="translate(91.602,51.328)">
<path class="cls-2" d="m7.441 0c0.116 6e-3 0.23 0.019 0.347 0.023-2.836 2.713-3.711 4.661-3.939 5.342a30.662 30.662 0 0 0-3.337 2.907 32.666 32.666 0 0 0-0.512-3.03 34.38 34.38 0 0 0 7.441-5.242z"/>
<path class="cls-2" transform="translate(.013 .387)" d="m5.608 1.182a19.73 19.73 0 0 1 6.132-1.182c4.2-0.085 3.994 2.5 3.994 2.5l-15.234 5.413a33.57 33.57 0 0 0-0.5-3.064 33.832 33.832 0 0 0 5.608-3.667z"/>
</g>
<path class="cls-6" transform="translate(23.934,48.012)" d="M 20.742,15.435 V 6.323 L 5.531,0 0,7.009 Z"/>
<path class="cls-2" transform="translate(32.54,9.214)" d="m20.475 44.173c2.548 0.2 4.946 0.034 6.3-0.933 8.578-10.879 3.625-43.24 3.625-43.24l-27.085 1.9-3.121 20.99a17.8 17.8 0 0 0 5.071 15.257 28.56 28.56 0 0 0 15.21 6.026z"/>
<path class="cls-7" transform="translate(28.816)" d="m19.482 13.014a57.172 57.172 0 0 0 18.1 1.952c9.456-0.649 4.622-11.516 4.622-11.516s-7.204 2.394-19.216-0.725c-8.106-2.106-10.148-3.944-15.733-1.698-7.587 3.053-7.255 16.212-7.255 16.212l1 27.87 1.514 1.937s2.094-18.058 2.694-23.611c1.823-2.364 3.506-2.182 4.732-1.41a4.176 4.176 0 0 1 1.8 4.009l-3.077 28.491s17.3 9.78 22.072 8.86 3.965-22.366 3.965-22.366a8.528 8.528 0 0 0-9.7 1.29c-4.58 4.138-9.027-1.159-9.027-1.159z"/>
<path class="cls-2" transform="translate(32.979,21.059)" d="m3.551 0c2.055 0.051 3.8 2.212 3.9 4.83s-1.489 4.7-3.546 4.648-3.805-2.211-3.905-4.829 1.493-4.699 3.551-4.649z"/>
</g>
<g transform="translate(163.9 6e-5)">
<g transform="translate(79.979,43.567)">
<path class="cls-8" d="m21.549 0 28.644 18.676-8.842 22.636c-0.125 0.32-0.292 0.616-0.434 0.927a29.763 29.763 0 0 0-1.894-0.077c-0.1 0-0.206 0.01-0.31 0.012s-0.2-0.012-0.3-0.012c-7.668 0-14.257 4.716-18.258 11.066a38.081 38.081 0 0 1-13.522-3.51c-2.91-1.383-5.45-3.032-6.366-4.818-3.067-16.058 21.282-44.9 21.282-44.9z"/>
</g>
<path class="cls-8" transform="translate(48.534,43.567)" d="m16.562 5.855s-3.507 33.245 3.553 54.415c-3.278 2.848-15.315 15.749-19.101-0.97s4.25-59.3 4.25-59.3z"/>
<g transform="translate(.941 .437)">
<g transform="translate(78.443,46.632)">
<path class="cls-9" d="M 2.9,0 9.635,4.335 7.235,9.367 0,6.18 Z"/>
<path class="cls-10" transform="translate(6.326,3.71)" d="m0.54 2.339c-0.676 1.539-0.724 3-0.108 3.275s1.662-0.758 2.337-2.3 0.724-3 0.108-3.274-1.662 0.76-2.337 2.299z"/>
</g>
<path class="cls-11" d="m0.026 22.111c-6e-3 -0.064-0.02-0.125-0.026-0.189a67.479 67.479 0 0 1 6.517-11.7c4.87-6.813 6.259-10.222 6.259-10.222l69.592 45.546-4.507 8.5-77.843-28.763a21.462 21.462 0 0 0 8e-3 -3.172z"/>
</g>
<path class="cls-12" transform="translate(86.615,93.286)" d="m 21.234,3.523 2.5,15.63 H 1.593 L 0,0 Z"/>
<path class="cls-8" transform="translate(13.717,20.559)" d="m36.943 115.03s-26.155-8.333-34.352-19.533 5.675-72.5 5.675-72.5l-1.792-11.023a10.269 10.269 0 0 1 10.045-11.915l6.988-0.062a4 4 0 0 1 3.693 5.622l-9.2 20.678s-6.9 46.426 2.763 49.95a108.86 108.86 0 0 0 24.567 5.094z"/>
<path class="cls-13" transform="translate(90.309,34.523)" d="m9.491 62.286 6.727-14.922-4.371-2.745a8.224 8.224 0 0 1-3.411-9.619l4.79-14.063s-13.626-1.667-13.217-14.364c0-6.537 9-6.573 9-6.573s2.691 5.843 11.034 6.537c3.584-0.45 13.42 0.87 20.058 12.454 4.464 7.791 2.507 19.994-1.38 29.154-3.481 8.205-12.372 12.789-21.181 14.141z"/>
<path class="cls-8" transform="translate(99.799,72.592)" d="m10.348 2.345c0.8 2.351-0.819 5.463-3.62 6.95s-5.72 0.786-6.522-1.564 0.819-5.463 3.62-6.95 5.72-0.787 6.522 1.564z"/>
<path class="cls-14" transform="translate(31.211,100.92)" d="m31.676 121.24h63.508v-81.478a34.57 34.57 0 0 0-31.357-34.421l-44.164-5.346s-5.193 7.949-19.663 26.419c17.391 10.746 37.519 15.7 37.519 15.7z"/>
<path class="cls-4" d="m11.625 15c-3.416 7.084-8.05 11.929-10.351 10.819s-1.4-7.753 2.018-14.839 8.05-11.931 10.352-10.822 1.397 7.754-2.019 14.842z"/>
<path class="cls-8" transform="translate(52.598,25.93)" d="m15.243 9.929-0.588 0.282a8.856 8.856 0 0 1-6.627 0.414l-0.391-0.13a11.828 11.828 0 0 1-7.531-7.635 2.194 2.194 0 0 1 2.541-2.812l4.4 0.923a6.628 6.628 0 0 1 4.177 2.844z"/>
</g>
<g id="label" class="cls-15" fill="#f3bc00">
<path d="m61.416 156.22-39.15 57.983h39.15zm-5.9375-29.409h39.707v87.393h19.761v25.884h-19.761v25.234h-33.77v-25.234h-61.416v-30.615z"/>
<path d="m210.97 195.93q0-25.977-4.917-36.553-4.8242-10.669-16.328-10.669-11.504 0-16.421 10.669-4.917 10.576-4.917 36.553 0 26.255 4.917 37.017 4.917 10.762 16.421 10.762 11.411 0 16.328-10.762t4.917-37.017zm35.718 0.27832q0 34.419-14.844 53.159-14.844 18.647-42.119 18.647-27.368 0-42.212-18.647-14.844-18.74-14.844-53.159 0-34.512 14.844-53.159 14.844-18.74 42.212-18.74 27.275 0 42.119 18.74 14.844 18.647 14.844 53.159z"/>
<path d="m325.63 156.22-39.15 57.983h39.15zm-5.9375-29.409h39.707v87.393h19.761v25.884h-19.761v25.234h-33.77v-25.234h-61.416v-30.615z"/>
</g>
</svg>
