<svg id="e35e8f11-da4e-4e87-9582-87dea089a1dc" xmlns="http://www.w3.org/2000/svg" width="52" height="39" viewBox="0 0 52 39">
    <defs>
        <style>
            .bacdddf5-677f-4214-8e22-6724e30c2c1a{fill:#fff;}.ab5831ad-5353-446f-b128-f8b7ac27971e{fill:#231f20;}.f1189df7-00ab-4825-80e0-a530bed853be{fill:#004a98;}.abaf4f5d-29b6-44ee-9a51-450819f5a6cd{fill:#ddd;}
        </style>
    </defs>
    <path class="bacdddf5-677f-4214-8e22-6724e30c2c1a" d="M0,0H52V39H0Z"/>
    <path class="ab5831ad-5353-446f-b128-f8b7ac27971e"
          d="M5.94,27.84c0,.72.52.79,1,.79,2,0,2.68-1.51,2.68-2.91a2.81,2.81,0,0,0-2.59-3,1.82,1.82,0,0,0-.33,0H5.94ZM5,23.44c0-.86-.45-.78-.87-.79V22.4H6.87c2.43,0,3.75,1.62,3.75,3.28,0,.93-.55,3.26-3.86,3.26H4.16v-.26c.55-.05.87-.07.87-.7ZM12,23.23a.47.47,0,1,1,.46-.47.46.46,0,0,1-.46.47h0m-1,5.46h.18c.26,0,.45,0,.45-.31V25.84c0-.41-.14-.46-.49-.65V25a9.07,9.07,0,0,0,1-.35.38.38,0,0,1,.18,0,.18.18,0,0,1,.06.13v3.59c0,.32.21.32.47.32H13V29H11Zm2.92-2.77c0-.34-.09-.43-.54-.62v-.16c.4-.14.78-.26,1.23-.45,0,0,.06,0,.06.09v.61a2.68,2.68,0,0,1,1.62-.7c.78,0,1.08.58,1.08,1.3v2.43c0,.3.2.3.46.3H18V29H16v-.24h.17c.26,0,.43,0,.43-.31V26c0-.54-.31-.8-.86-.8a2.52,2.52,0,0,0-1.08.45v2.78c0,.3.21.3.47.3h.17V29h-2v-.24h.18c.26,0,.43,0,.43-.31Zm6.43.15c.22,0,.26-.13.26-.24a.81.81,0,0,0-.73-.87h-.09c-.57,0-.95.42-1.07,1.09Zm-1.67.3a2.53,2.53,0,0,0,0,.55A1.56,1.56,0,0,0,20,28.52a1.8,1.8,0,0,0,1.26-.62l.13.13a2.22,2.22,0,0,1-1.74,1.06,1.88,1.88,0,0,1-1.79-1.95s0-.06,0-.09c0-1.84,1.23-2.38,1.89-2.38A1.48,1.48,0,0,1,21.35,26v.11a.49.49,0,0,1,0,.17l-.08,0Zm2.95,2.33h.26c.26,0,.43,0,.43-.31v-2.6c0-.28-.34-.34-.48-.43v-.13c.69-.29,1.06-.52,1.14-.52s.09,0,.09.11v.87c.23-.36.62-.95,1.19-.95a.51.51,0,0,1,.54.48.45.45,0,0,1-.43.47c-.3,0-.3-.23-.63-.23a.79.79,0,0,0-.68.78v2.2c0,.32.17.32.45.32H24V29H21.55Zm3.6-1a1.21,1.21,0,0,0,1.18,1.12.67.67,0,0,0,.77-.54s0-.08,0-.12c0-1.1-2.06-.74-2.06-2.25a1.27,1.27,0,0,1,1.36-1.2h.1a2.35,2.35,0,0,1,1.07.26l.06.95h-.21a.94.94,0,0,0-1-.92h0a.65.65,0,0,0-.74.56v.05c0,1.11,2.16.78,2.16,2.23,0,.63-.48,1.28-1.6,1.28a2.5,2.5,0,0,1-1.13-.32L25,27.67Zm11.13-3.56h-.23a1.8,1.8,0,0,0-2-1.56h0a2.67,2.67,0,0,0-2.62,2.73,1.94,1.94,0,0,0,0,.24,3.06,3.06,0,0,0,2.77,3.25,1.91,1.91,0,0,0,1.89-1.62l.22.05-.26,1.42a5,5,0,0,1-2.08.49A3.32,3.32,0,0,1,30.48,26a3.08,3.08,0,0,1,0-.43A3.47,3.47,0,0,1,34,22.28a6.76,6.76,0,0,1,2.21.5Zm.35,4.6h.17c.26,0,.44,0,.44-.31v-5.2c0-.6-.13-.62-.49-.72v-.15a6.15,6.15,0,0,0,.95-.4,1.07,1.07,0,0,1,.22-.1s.07.06.07.13V28.4c0,.31.2.31.47.31h.15V29h-2Zm6-.26c0,.17.1.17.26.17h.41v.2a9,9,0,0,0-1.35.29v-.76a2.57,2.57,0,0,1-1.66.78,1,1,0,0,1-1-1V25.56c0-.24,0-.48-.56-.52v-.18l1.13-.06c.1,0,.1.06.1.26v2.42c0,.28,0,1.09.82,1.09A2,2,0,0,0,41.9,28V25.48c0-.17-.43-.29-.78-.38v-.17c.87-.06,1.37-.13,1.46-.13s.09.06.09.18Zm1.86-.55a1,1,0,0,0,.95.95c1,0,1.43-1,1.43-1.82a1.78,1.78,0,0,0-1.49-1.88,1.43,1.43,0,0,0-.86.44Zm0-2.55a2.35,2.35,0,0,1,1.41-.66,1.81,1.81,0,0,1,1.74,1.89v.06a2.38,2.38,0,0,1-2.24,2.46,3,3,0,0,1-1.3-.33l-.29.21-.19-.1a13.26,13.26,0,0,0,.13-1.66v-4c0-.6-.15-.62-.51-.72v-.16a5.5,5.5,0,0,0,1-.4l.2-.1c.05,0,.07.06.07.13ZM4.16,34.38h.06c.17,0,.37,0,.37-.29V31.43c0-.26-.19-.3-.37-.3H4.16V31H5.7v.16H5.63c-.17,0-.38,0-.38.3v2.66c0,.26.2.29.38.29H5.7v.16H4.15Zm1.52.13v-.1c-.18,0-.4,0-.4-.32V31.43c0-.29.21-.32.39-.32V31H4.16v.11h.06c.17,0,.4,0,.4.32v2.66c0,.28-.22.32-.4.32H4.16v.1H5.68m0,0H4.13v-.2h.08c.19,0,.37,0,.37-.28V31.42c0-.26-.18-.26-.35-.26h-.1V31H5.68v.25h0c-.19,0-.34,0-.34.26v2.67c0,.26.15.26.34.26h.09v.21Zm3.52-1V31.61a.44.44,0,0,0-.38-.48H8.67V31H10v.16H9.91c-.19,0-.43,0-.43.65v2.31a4.51,4.51,0,0,0,0,.52h-.2l-2.6-2.92V33.8c0,.43.09.61.49.61h.08v.14H5.89V34.4H6c.35,0,.46-.26.46-.66V31.57A.46.46,0,0,0,6,31.12H5.89V31h1Zm.07,1h.18a2,2,0,0,1,0-.49V31.78c0-.61.26-.67.47-.68H10V31H8.68v.11h.09a.45.45,0,0,1,.47.43v2L6.93,31h-1v.1a.49.49,0,0,1,.48.48v2.14c0,.41-.12.67-.49.68v.11h1.3v-.11H7.15c-.4,0-.5-.18-.5-.63V31.63Zm.26.09h-.2l-2.6-2.88v2c0,.43.08.57.45.57h.09v.2H6v-.21H6c.35,0,.44-.21.44-.62V31.57A.44.44,0,0,0,6,31.14H6V31H7l2.24,2.51V31.6c0-.4-.26-.45-.42-.45H8.67V31H10v.25H9.9c-.21,0-.44,0-.44.62v2.32a4.17,4.17,0,0,0,0,.5Zm1.22-3.47c-.38,0-.39.09-.46.46h-.16c0-.14,0-.29,0-.43a3.23,3.23,0,0,0,0-.44h.13c0,.16.18.15.32.15h2.6c.13,0,.26,0,.27-.16h.12a1,1,0,0,1-.06.41c-.06.15,0,.26,0,.41l-.14,0c0-.17,0-.48-.39-.48h-.86v2.7c0,.39.17.43.41.43h.11v.16H11V34.3H11c.29,0,.43,0,.43-.43V31.2Zm2,3.35H11v-.2h.12c.28,0,.39,0,.4-.39V31.25h-.81V31.2h.86V34c0,.4-.17.45-.45.45h-.07v.08h1.69V34.4h-.09c-.23,0-.43-.06-.43-.47V31.2h.86c.35,0,.39.29.4.49h.11v-.4l.05-.39h-.09c0,.14-.16.15-.29.15H10.61c-.11,0-.24,0-.29-.14h-.08v.41a.87.87,0,0,1-.07.41h.11c.07-.35.11-.46.49-.46v0c-.37,0-.36.07-.45.45h-.2a2,2,0,0,0,.05-.43,1.55,1.55,0,0,0,0-.43h.23c0,.13.13.13.26.13h2.65c.14,0,.24,0,.26-.15h.14l-.05.41v.41l-.17.07c0-.19,0-.47-.37-.47h-.81V34c0,.39.15.42.4.42h.12v.2Zm1.1-.17h.07c.17,0,.37,0,.37-.29V31.43c0-.26-.17-.3-.37-.3h-.07V31h2.56v.78h-.15c0-.32-.08-.6-.63-.6H15v1.34h.59c.31,0,.37-.17.41-.45h.14v1.17H16c0-.3,0-.5-.4-.5h-.61V33.9c0,.32.3.32.61.32.62,0,.86,0,1-.62h.15c-.07.26-.13.54-.18.82H13.84Zm2.68.13a7.2,7.2,0,0,1,.16-.78h-.1c-.15.58-.46.63-1,.62-.33,0-.65,0-.65-.34V32.79h.64c.34,0,.39.21.41.51h.12V32.16H16c0,.28-.11.46-.43.46h-.61V31.2h.72c.52,0,.61.26.64.59h.11V31.3a1,1,0,0,1,0-.24H13.87v.11h.05c.17,0,.4,0,.4.32v2.66c0,.27-.22.3-.4.31h-.05v.1h2.68m0,0H13.83v-.2h.09c.19,0,.35,0,.36-.26V31.42c0-.25-.17-.26-.34-.26h-.11V31H16.4a1.13,1.13,0,0,0,0,.26v.52h-.18c0-.35-.08-.58-.6-.58h-.7v1.3h.59c.3,0,.35-.18.38-.44h.2v1.16h-.17c0-.32,0-.48-.38-.49H15v1.17c0,.3.26.3.61.3.6,0,.86,0,1-.6h.18c-.07.26-.13.53-.18.8Zm1.52-1.86h.26c.5,0,.78-.19.78-.8a.69.69,0,0,0-.66-.73h-.39Zm-.65-1.18c0-.37-.2-.39-.36-.39H17V31h1.6c.64,0,1.22.18,1.22.87a1,1,0,0,1-.7.87L20,34a.58.58,0,0,0,.48.31v.16h-1a15.94,15.94,0,0,1-1.06-1.65H18V34c0,.39.19.41.44.41h.08v.16H17v-.16h.09c.17,0,.34-.09.34-.28Zm.9,1.15c.5,0,.76-.17.76-.76a.66.66,0,0,0-.6-.73h-.39v1.48Zm-.26,0V31.2h.3a.72.72,0,0,1,.76.68V32c0,.61-.3.8-.81.81Zm0,.15h.37a15.76,15.76,0,0,0,1,1.65h1v-.12a.6.6,0,0,1-.5-.32l-.86-1.27a1,1,0,0,0,.69-.87c0-.71-.56-.86-1.2-.86H17v.1h.09c.15,0,.38,0,.38.42v2.6c0,.2-.19.3-.39.3H17v.1h1.58v-.14H18.5c-.22,0-.43,0-.43-.44V32.82Zm2.38,1.69h-1a13.89,13.89,0,0,1-1-1.58H18.1v1c0,.38.15.38.39.38h.12v.2H17v-.2h.12c.19,0,.34-.08.34-.26v-2.6c0-.34-.17-.34-.34-.34H17v-.21h1.61c.65,0,1.24.17,1.24.92a1,1,0,0,1-.7.87L20,34a.51.51,0,0,0,.48.29v.19Zm3.46-1V31.61a.42.42,0,0,0-.35-.48H23.4V31h1.34v.16h-.08c-.21,0-.44,0-.44.65v2.31a4.51,4.51,0,0,0,0,.52H24l-2.6-2.92V33.8c0,.43.08.61.47.61H22v.14H20.63V34.4h.07c.34,0,.46-.26.46-.66V31.57a.46.46,0,0,0-.46-.45h-.06V31h1Zm.1,1h.15a4,4,0,0,1,0-.49V31.78c0-.61.26-.67.48-.68h.05V31H23.4v.11h.09a.46.46,0,0,1,.47.45.06.06,0,0,1,0,0v1.94l-2.25-2.6h-1V31h0a.5.5,0,0,1,.49.49v2.13c0,.41-.11.67-.48.68h0v.1H22v0h-.07c-.4,0-.5-.17-.5-.62V31.63Zm.17,0H24l-2.6-2.87v2c0,.43.07.57.45.57h.11v.2H20.57v-.21h.11c.35,0,.43-.21.43-.62V31.57a.43.43,0,0,0-.43-.43h-.09V31h1l2.26,2.51V31.6a.4.4,0,0,0-.44-.45h-.14V31h1.36v.25h-.08c-.22,0-.44,0-.44.62v2.32a4.17,4.17,0,0,0,0,.5Zm2.09-3.07L25.78,33h1Zm-.75,2.25a2.85,2.85,0,0,0-.11.39c0,.16.23.17.39.17h.06v.18H24.68v-.18a.47.47,0,0,0,.44-.32l.82-2.34a6.55,6.55,0,0,0,.19-.63,2.77,2.77,0,0,0,.46-.22h0s0,.09.05.12l.93,2.67a5.19,5.19,0,0,0,.19.52.32.32,0,0,0,.35.2v.16H26.68v-.16h.19c.11,0,.31,0,.31-.14a1.21,1.21,0,0,0-.11-.37l-.2-.57H25.68Zm.29-.87h.87l-.44-1.36Zm-.05,0,.49-1.48L26.73,33Zm1,1.5h1.44v-.07a.37.37,0,0,1-.37-.23c-.07-.17-.13-.34-.19-.52L26.74,31a.24.24,0,0,1,0-.12h-.06a1.85,1.85,0,0,1-.45.21,3.78,3.78,0,0,1-.19.63l-.91,2.34a.5.5,0,0,1-.46.35v.1H25.8v-.1c-.17,0-.41,0-.41-.21a1.85,1.85,0,0,1,.12-.4l.17-.55h1.19l.2.61a1.56,1.56,0,0,1,.1.37c0,.16-.22.18-.33.18Zm1.45,0H26.75v-.2h.12c.11,0,.28,0,.28-.12a1.37,1.37,0,0,0-.08-.35l-.21-.58H25.69l-.16.52a1.66,1.66,0,0,0-.11.38c0,.13.19.16.35.16h.08v.19H24.7v-.19h0a.43.43,0,0,0,.42-.32L26,31.63a3.79,3.79,0,0,0,.21-.65,2.81,2.81,0,0,0,.47-.21h.1l.06.12.93,2.77c.06.17.12.35.18.5a.28.28,0,0,0,.32.19h.06v.2Zm.21-3.28c-.38,0-.4.09-.47.46h-.15a.93.93,0,0,1,.07-.43,3.23,3.23,0,0,0,0-.44H28c0,.16.17.15.3.15h2.6c.14,0,.26,0,.28-.16h.12a3.39,3.39,0,0,1-.06.41,2.81,2.81,0,0,0,0,.41l-.16,0c0-.17,0-.48-.38-.48h-.86v2.7c0,.39.17.43.41.43h.11v.16H28.65V34.3h.09c.28,0,.43,0,.43-.43V31.2Zm2,3.35H28.73v-.2h.12c.26,0,.38,0,.39-.39V31.25h-.81V31.2h.86V34c0,.4-.15.43-.43.45h-.09v.08h1.68V34.4h-.12c-.24,0-.43-.06-.43-.47V31.2h.87c.33,0,.38.29.39.49h.11v-.4a1,1,0,0,1,.05-.39h-.09c0,.14-.15.15-.28.15H28.34c-.12,0-.26,0-.29-.14H28a2.8,2.8,0,0,1,0,.41,1.18,1.18,0,0,1-.05.41H28c.07-.35.11-.46.49-.46v0c-.37,0-.36.07-.45.45h-.2c0-.14,0-.28.07-.43a3.09,3.09,0,0,0,0-.43h.14c0,.13.13.13.26.13H31c.14,0,.25,0,.26-.15h.14l-.06.41v.41l-.17.07c0-.19,0-.47-.36-.47H30V34c0,.39.16.42.4.42h.12v.2Zm1.09-.17h.08c.18,0,.38,0,.38-.29V31.43c0-.26-.19-.3-.38-.3h-.08V31h1.57v.16h-.07c-.18,0-.38,0-.38.3v2.66c0,.26.18.29.37.29h.08v.16H31.55Zm1.54.13v-.1H33c-.18,0-.4,0-.4-.32V31.43c0-.29.22-.32.4-.33h.05V31H31.58v.11h.05c.18,0,.4,0,.4.31v2.66c0,.28-.21.32-.4.32h-.05v.1h1.51m0,0H31.53v-.2h.09c.19,0,.34,0,.34-.27V31.4c0-.26-.15-.26-.34-.26h-.09v-.21h1.56v.27H33c-.19,0-.34,0-.36.26v2.67c0,.26.17.26.35.26h.1v.1Zm2.13-.1c1,0,1.16-.87,1.16-1.62s-.4-1.63-1.25-1.63S34,31.92,34,32.61c0,.91.44,1.79,1.25,1.79m-.09-3.47a1.79,1.79,0,0,1,2,1.6v.13a1.85,1.85,0,0,1-1.77,2h-.15a1.78,1.78,0,0,1-1.9-1.67.76.76,0,0,1,0-.15,1.85,1.85,0,0,1,1.81-1.88h.07M34,32.6c0-.69.26-1.5,1.17-1.5s1.27,1,1.27,1.66-.17,1.65-1.18,1.65v0c1,0,1.13-.86,1.13-1.59s-.39-1.61-1.22-1.61S34,31.94,34,32.61c0,.91.41,1.74,1.21,1.74v0c-.87,0-1.26-.87-1.26-1.8m-.71.17a1.87,1.87,0,0,1,1.83-1.91h.07a1.82,1.82,0,0,0-1.86,1.78v.08A1.77,1.77,0,0,0,35,34.53h.16a1.86,1.86,0,0,0,1.91-1.8.61.61,0,0,0,0-.14,1.73,1.73,0,0,0-1.72-1.75h-.21a1.83,1.83,0,0,1,2,1.66.19.19,0,0,1,0,.08,1.91,1.91,0,0,1-1.73,2.07h-.22A1.82,1.82,0,0,1,33.26,33a.61.61,0,0,1,0-.14"/>
    <path class="ab5831ad-5353-446f-b128-f8b7ac27971e"
          d="M40.53,33.54V31.61a.43.43,0,0,0-.35-.48H40V31h1.34v.16h-.08c-.21,0-.45,0-.45.65v2.31a2.26,2.26,0,0,0,0,.52h-.19L38,31.69V33.8c0,.43.08.61.47.61h.09v.14H37.21V34.4h.06c.34,0,.46-.26.46-.66V31.57a.47.47,0,0,0-.47-.45h0V31h1Zm.09,1h.17a4,4,0,0,1,0-.49V31.78c0-.61.26-.67.47-.68h.06V31H40v.11h.09a.46.46,0,0,1,.48.44v2l-2.27-2.6h-1V31h0a.5.5,0,0,1,.48.49v2.13c0,.41-.11.67-.47.68v.1h1.3v0H38.5c-.4,0-.5-.17-.5-.62V31.63Zm.19,0h-.22L38,31.75v2c0,.43.07.57.46.57h.11v.2H37.21v-.21h.06c.34,0,.43-.21.43-.62V31.57a.44.44,0,0,0-.43-.37h-.09V31h1l2.25,2.51v-1.9a.4.4,0,0,0-.43-.45H40V31H41.3v.24h-.09c-.22,0-.43,0-.43.62v2.32a4.17,4.17,0,0,0,0,.5Zm2.07-3.07L42.41,33h.92Zm-.74,2.25a2.91,2.91,0,0,0-.12.39c0,.16.21.17.38.17h.07v.18H41.3v-.18a.46.46,0,0,0,.43-.32l.82-2.34a4.54,4.54,0,0,0,.18-.63,2.23,2.23,0,0,0,.47-.22s0,.09,0,.12l.93,2.67a5.19,5.19,0,0,0,.19.52.32.32,0,0,0,.35.2v.16H43.25v-.16h.06c.11,0,.31,0,.31-.14a1.56,1.56,0,0,0-.1-.37l-.2-.6h-1Zm.33-.87h.86l-.43-1.36Zm-.07,0,.49-1.48L43.36,33Zm1,1.5h1.44v-.07a.37.37,0,0,1-.37-.23c-.07-.17-.13-.34-.19-.52l-1-2.66v-.12h-.08a2.27,2.27,0,0,1-.45.21c0,.21-.12.42-.19.63l-.82,2.34a.51.51,0,0,1-.46.35v.1h1.11v-.1c-.17,0-.4,0-.4-.21a1.76,1.76,0,0,1,.07-.4l.17-.55h1.18l.21.61a2.49,2.49,0,0,1,.09.37c0,.16-.21.18-.33.18Zm1.44,0H43.41v-.2h.07c.12,0,.3,0,.3-.12a2,2,0,0,0-.09-.35l-.21-.58H42.31l-.17.52a2.34,2.34,0,0,0-.09.38c0,.13.17.16.35.16h.07v.19H41.31v-.19h0a.43.43,0,0,0,.41-.32l.82-2.34c.08-.21.15-.43.21-.65a4.69,4.69,0,0,0,.46-.21h.11l.05.12.93,2.67c.06.17.12.36.17.52a.32.32,0,0,0,.33.17h0v.21ZM46.13,34c0,.21.15.26.31.29a3.75,3.75,0,0,0,.67,0A.69.69,0,0,0,47.6,34a1,1,0,0,0,.17-.36h.14c-.06.28-.13.57-.19.87H45v-.16h0c.17,0,.38,0,.38-.35v-2.6c0-.26-.2-.28-.38-.28V31h1.58v.16h-.14c-.19,0-.34,0-.34.27Zm1.54.48.17-.87h-.09a1,1,0,0,1-.17.37.79.79,0,0,1-.5.28H46.4a.29.29,0,0,1-.32-.31v-2.6c0-.28.17-.29.36-.29h.09V31H45v.11h.06c.17,0,.4,0,.4.32V34c0,.33-.22.36-.4.36v.11h2.65m0,0H45v-.2h0c.17,0,.34,0,.36-.32v-2.6c0-.26-.17-.26-.36-.26H45v-.2h1.58v.3H46.4c-.2,0-.32,0-.32.26v2.6c0,.17.12.23.29.26H47a.66.66,0,0,0,.47-.26,1.27,1.27,0,0,0,.18-.37h.17c0,.29-.11.58-.17.86Zm0-3.11h.07c.07,0,.11-.05.11-.14a.1.1,0,0,0-.06-.11h-.11Zm-.17.28c.06,0,.09,0,.09,0V31.2c0-.05,0-.09-.09-.07h.28c.08,0,.17,0,.17.14a.17.17,0,0,1-.12.17l.09.12a.49.49,0,0,0,.12.13H48s-.08-.11-.2-.25h-.05v.18h.09Zm.26.16a.44.44,0,0,0,.43-.44.43.43,0,1,0-.86,0,.44.44,0,0,0,.43.44m0-1a.53.53,0,0,1,.55.52.54.54,0,0,1-1.07,0v0a.52.52,0,0,1,.5-.53h0"/>
    <path class="bacdddf5-677f-4214-8e22-6724e30c2c1a" d="M16,13a8.67,8.67,0,1,1,8.67,8.67A8.67,8.67,0,0,1,16,13Z"/>
    <path class="f1189df7-00ab-4825-80e0-a530bed853be"
          d="M24.67,21.78a9,9,0,0,1-9-8.86,8.8,8.8,0,0,1,8.61-9,2.67,2.67,0,0,1,.4,0H27a9.11,9.11,0,0,1,9.33,8.89v.12c0,4.87-4.45,8.84-9.33,8.84Zm0-17.13a8.19,8.19,0,1,0,8.18,8.19h0A8.19,8.19,0,0,0,24.7,4.66Zm-1.86,13V8a5.2,5.2,0,0,0,0,9.67Zm7.05-4.83A5.23,5.23,0,0,0,26.53,8v9.71a5.18,5.18,0,0,0,3.36-4.85Z"/>
    <path class="abaf4f5d-29b6-44ee-9a51-450819f5a6cd" d="M51,1V38H1V1H51m1-1H0V39H52V0Z"/>
</svg>
