
<svg xmlns="http://www.w3.org/2000/svg" width="65.325" height="14.2" viewBox="0 0 65.325 14.2"><g transform="translate(-0.5 -2.742)"><path d="M18.086,12.794h0a.469.469,0,0,0,.069.006.448.448,0,0,0,.079-.008l.019,0a.1.1,0,0,0,.028-.007h0a.118.118,0,0,0,.073-.109.117.117,0,0,0-.029-.077.121.121,0,0,0-.029-.024c-.039-.032-.08-.061-.121-.089a1.6,1.6,0,0,0-.441-.205q-.073-.022-.149-.036l-.064-.011-.085-.011c-.051,0-.1-.007-.156-.007a1.611,1.611,0,0,0-.182.011h0l-.015,0a.053.053,0,0,0-.038.052.05.05,0,0,0,.011.032l.01.01a.481.481,0,0,1,.1.147h0l0,.011a.028.028,0,0,1-.025.027h-.007a.385.385,0,0,1-.214-.076h0a.754.754,0,0,0-.206-.113.7.7,0,0,0-.081-.024.766.766,0,0,0-.177-.021.076.076,0,0,1-.027-.148l.028,0a1.8,1.8,0,0,1,.193-.02c.034,0,.069,0,.1,0h.009a1.934,1.934,0,0,1,.238.016h0a.6.6,0,0,0,.088.006.639.639,0,0,0,.233-.045.062.062,0,0,0,.041-.059.049.049,0,0,0-.011-.035l-.026-.022a1.24,1.24,0,0,0-.78-.277h0l-.062,0a1.269,1.269,0,0,0-.166.02.257.257,0,0,0-.054-.357.943.943,0,0,0-.418-.175,1,1,0,0,0-.147-.011h-.17c-.1,0-.2,0-.293.01a4.428,4.428,0,0,0-1.557.391,4.609,4.609,0,0,0,.4.845,1.751,1.751,0,0,1-.029,2.179,1.737,1.737,0,0,1,.377.077l.08.028a.372.372,0,0,1,.168.511h0l0,0a1.579,1.579,0,0,1-.708.671,1.841,1.841,0,0,1-.286.123,5.049,5.049,0,0,0,1.905-.124q.186-.049.367-.111l.01,0a5.086,5.086,0,0,0,.481-.2c.06-.028.238-.116.265-.134a.468.468,0,0,0,.069-.054.506.506,0,0,0,.16-.37V14.99a.506.506,0,0,0-.214-.4.247.247,0,0,1,.189-.088.244.244,0,0,1,.1.022.215.215,0,0,1,.031.017.933.933,0,0,0,.823.018.886.886,0,0,0,.106-.058h0a.4.4,0,0,0,.167-.237.392.392,0,0,0,.013-.1.375.375,0,0,0,0-.049.356.356,0,0,0-.014-.067.36.36,0,0,1-.168.12l-.072.016a2.311,2.311,0,0,1-.474.049h-.074c-.074,0-.147-.008-.22-.017a1.178,1.178,0,0,0,.734-.256,1.223,1.223,0,0,0,.129-.118,1.194,1.194,0,0,0,.158-.211h0v0a1.181,1.181,0,0,0,.161-.6V13a.118.118,0,0,0-.041-.08h0a.572.572,0,0,0-.349-.118h-.024A.42.42,0,0,1,18,12.785a.414.414,0,0,1,.083.008" transform="translate(-0.882 -0.563)" fill="#fff"/><path d="M4.188,15.208h0v0h0v0l0,0h0a.372.372,0,0,1,.169-.511l.08-.028a1.778,1.778,0,0,1,.377-.077A1.752,1.752,0,0,1,4.778,12.4a4.611,4.611,0,0,0,.4-.845,4.445,4.445,0,0,0-1.558-.391c-.1-.006-.194-.01-.293-.01h-.17a.971.971,0,0,0-.147.011.946.946,0,0,0-.418.175.257.257,0,0,0-.054.357,1.229,1.229,0,0,0-.166-.02l-.061,0h0a1.249,1.249,0,0,0-.443.082,1.291,1.291,0,0,0-.177.084,1.275,1.275,0,0,0-.162.111l-.026.022a.049.049,0,0,0-.011.035.063.063,0,0,0,.041.059.643.643,0,0,0,.233.045.6.6,0,0,0,.088-.006h0a1.97,1.97,0,0,1,.237-.016H2.1c.035,0,.07,0,.1,0a1.808,1.808,0,0,1,.193.02l.028,0a.076.076,0,0,1,0,.141.079.079,0,0,1-.032.007.77.77,0,0,0-.177.021.7.7,0,0,0-.081.024.769.769,0,0,0-.206.112h0a.386.386,0,0,1-.214.076H1.716a.027.027,0,0,1-.025-.027l0-.011a.491.491,0,0,1,.1-.147l.01-.01a.053.053,0,0,0,.011-.032.054.054,0,0,0-.038-.051l-.015,0h0a1.659,1.659,0,0,0-.182-.011c-.053,0-.1,0-.156.008l-.085.011-.064.011c-.05.01-.1.022-.149.036a1.6,1.6,0,0,0-.441.205,1.5,1.5,0,0,0-.121.089.114.114,0,0,0-.029.024.117.117,0,0,0,.043.186h0a.1.1,0,0,0,.028.007l.02,0A.436.436,0,0,0,.7,12.8a.469.469,0,0,0,.07-.006h0a.417.417,0,0,1,.083-.008.423.423,0,0,1,.109.015H.938a.574.574,0,0,0-.35.118h0A.121.121,0,0,0,.548,13v.029a1.192,1.192,0,0,0,.022.227,1.172,1.172,0,0,0,.139.369v0h0a1.194,1.194,0,0,0,.158.211A1.142,1.142,0,0,0,1,13.954a1.182,1.182,0,0,0,.734.256c-.072.009-.145.015-.219.017H1.437a2.319,2.319,0,0,1-.474-.049L.89,14.163a.361.361,0,0,1-.168-.12.422.422,0,0,0-.014.067.45.45,0,0,0,0,.049.41.41,0,0,0,.18.337h0a.909.909,0,0,0,.106.058.934.934,0,0,0,.823-.018.2.2,0,0,1,.031-.016.241.241,0,0,1,.1-.022.245.245,0,0,1,.189.088.507.507,0,0,0-.213.4V15a.506.506,0,0,0,.16.37.467.467,0,0,0,.068.054c.027.018.205.106.265.134a5.013,5.013,0,0,0,.481.2l.011,0q.18.062.366.111a5.051,5.051,0,0,0,1.906.124,1.838,1.838,0,0,1-.286-.123,1.58,1.58,0,0,1-.7-.664" transform="translate(0 -0.563)" fill="#fff"/><path d="M7.526,4.592v0l0,.005,0-.01.008,0m.689,1.279a.255.255,0,1,1-.254.256.255.255,0,0,1,.254-.256m1.15,0a.255.255,0,1,1-.255.255.255.255,0,0,1,.255-.255m1.153,0a.255.255,0,1,1-.255.255.255.255,0,0,1,.255-.255m-3.454,0a.257.257,0,0,1,.256.256.246.246,0,0,1-.077.179l-.062.041.031.225a6.353,6.353,0,0,0,2.163.507,6.369,6.369,0,0,0,2.165-.507l.028-.215-.08-.051a.254.254,0,0,1-.074-.179.257.257,0,0,1,.254-.256l.021.005.653-2.621c-.395.22-.681.325-.828.646a.612.612,0,0,0,.028.612v.01l-.005,0a.612.612,0,0,0-.172-.121,1.138,1.138,0,0,0-.72-.033,1.075,1.075,0,0,0,.407.587.54.54,0,0,0,.29.095l.067-.015-.108.412a2.049,2.049,0,0,1-1.66-.182l.005-.676.033.021a.236.236,0,0,0,.092.023.568.568,0,0,0,.295-.095,1.116,1.116,0,0,0,.407-.587,1.163,1.163,0,0,0-.723.033l-.067.039.061-.072A.558.558,0,0,0,9.809,3.6a1.585,1.585,0,0,0-.433-.853A1.625,1.625,0,0,0,8.94,3.6.577.577,0,0,0,9,3.947l.062.072L9,3.98a1.162,1.162,0,0,0-.723-.033,1.122,1.122,0,0,0,.41.587.429.429,0,0,0,.387.072L9.1,4.585l0,.676a2.048,2.048,0,0,1-1.66.182L7.344,5.03l.064.015A.532.532,0,0,0,7.7,4.951a1.094,1.094,0,0,0,.41-.587,1.137,1.137,0,0,0-.72.033.631.631,0,0,0-.172.121l-.005.008,0-.013A.619.619,0,0,0,7.239,3.9c-.146-.32-.436-.425-.83-.646l.654,2.616Z" transform="translate(-0.395 0)" fill="#fff"/><path d="M15.45,9.79a1.277,1.277,0,0,1,.156.018,1.2,1.2,0,0,1,.174.051.778.778,0,0,1,.082.041.38.38,0,0,1,.077.049.335.335,0,0,1,.062.059.48.48,0,0,1,.044.064.215.215,0,0,1,.023.059.128.128,0,0,1,.01.049c0,.026,0,.041,0,.041l-.013-.039a.194.194,0,0,0-.018-.044.563.563,0,0,0-.033-.049c-.016-.015-.028-.036-.046-.051s-.039-.033-.062-.049-.046-.028-.072-.041a.768.768,0,0,0-.08-.036,1.362,1.362,0,0,0-.164-.054,1.477,1.477,0,0,0-.149-.036c-.087-.021-.149-.031-.149-.031a.943.943,0,0,1,.154,0m-.874.192c-.016-.044-.036-.09-.056-.141s-.049-.105-.08-.154a.694.694,0,0,0-.046-.074c-.015-.023-.036-.044-.051-.064a.581.581,0,0,0-.056-.054c-.021-.015-.041-.026-.059-.038s-.038-.018-.054-.026a.156.156,0,0,0-.044-.01l-.041-.01.041,0a.326.326,0,0,1,.049,0c.018.005.041.008.064.015a.416.416,0,0,1,.067.033.333.333,0,0,1,.069.054.375.375,0,0,1,.059.067.811.811,0,0,1,.054.077,1.138,1.138,0,0,1,.074.164,1.23,1.23,0,0,1,.041.151.954.954,0,0,1,.018.141c-.008-.021-.023-.067-.049-.131m.169.038a1.114,1.114,0,0,0-.233-.592.991.991,0,0,0-.812-.346.733.733,0,0,1,.144.225.337.337,0,0,0-.243.205c.085-.062.213.069.213.069-.2.256-.051.382-.051.382a.4.4,0,0,1,.669.059c.413.654-.787.951-.787.951-.031.038.443.2.869-.3.016.151.074.241.09.223,0,0,.118-1.23.825-.917a.4.4,0,0,1,.156.651s.144.126.369-.108c0,0,.149.108.1.2a.335.335,0,0,0,.167-.272.744.744,0,0,1,.246.11A.989.989,0,0,0,16,9.805a.962.962,0,0,0-1.163.115c-.033.033-.064.067-.092.1" transform="translate(-0.877 -0.424)" fill="#fff"/><path d="M4.6,8.988l.144-.179c.023-.031.046-.062.072-.092.008-.015.015-.033.026-.051.021-.041.046-.09.069-.144s.046-.113.067-.172c.008-.028.021-.059.028-.087s.015-.059.02-.087.013-.056.016-.082.008-.051.008-.077a.527.527,0,0,1,0-.064c0-.018,0-.033,0-.049a.3.3,0,0,0,0-.043l.013.041a.5.5,0,0,1,.023.115c0,.026,0,.051,0,.08a.529.529,0,0,1-.005.087,1.047,1.047,0,0,1-.046.187c-.015.041-.033.082-.051.12.023-.033.049-.067.069-.1a2.016,2.016,0,0,0,.11-.195A.744.744,0,0,0,5.2,8.114a.284.284,0,0,0,.021-.067c.01-.036.015-.059.015-.059V8.05a.414.414,0,0,1-.008.072.429.429,0,0,1-.023.09,1.11,1.11,0,0,1-.039.105.912.912,0,0,1-.056.11,1.833,1.833,0,0,1-.144.223c-.054.072-.11.141-.167.2a2,2,0,0,1-.161.164,1.606,1.606,0,0,1-.123.108.453.453,0,0,1-.046.036c.013-.015.064-.079.136-.172M5.292,7.2a.229.229,0,0,0-.028-.041A.6.6,0,0,0,5.2,7.087c-.023-.026-.049-.046-.072-.072s-.051-.044-.077-.062A1.555,1.555,0,0,0,4.9,6.859a1.122,1.122,0,0,0-.156-.08.836.836,0,0,1,.169.049,1.114,1.114,0,0,1,.162.085c.028.018.056.041.085.062a.683.683,0,0,1,.077.074.691.691,0,0,1,.069.082l.028.044a.408.408,0,0,0,.026.046.8.8,0,0,1,.036.09c.005.015.01.028.015.044l.008.041a.369.369,0,0,1,.01.072v.056a.246.246,0,0,1,0,.049.493.493,0,0,0-.01-.049c0-.015-.008-.033-.01-.054S5.4,7.428,5.389,7.4a.374.374,0,0,0-.031-.077.4.4,0,0,0-.041-.079A.226.226,0,0,0,5.292,7.2M3.849,8.6c.387.067.361.956.361.956a2.148,2.148,0,0,0,.131-.246A2.48,2.48,0,0,0,5.5,8.022l0,0c.169-.19.51-.512.75-.377a.407.407,0,0,0-.236-.159.411.411,0,0,0,.341-.141.588.588,0,0,0-.8.254,1.542,1.542,0,0,0-.046-.313c-.277-1.091-1.14-.594-1.225-.443s.023.146.023.146a.351.351,0,0,1,.315-.146c-.105.049.013.151.013.151a.82.82,0,0,1,.674.81c-.205-.443-.466-.395-.466-.395a.681.681,0,0,1-.026.623c-.054-.118-.213,0-.213,0,.282.3-.118,1.022-.246,1.235.336-.815-.4-.963-.4-.963a.412.412,0,0,0,.174.323A.442.442,0,0,0,3.849,8.6" transform="translate(-0.224 -0.258)" fill="#fff"/><path d="M13.58,7.522V7.466a.383.383,0,0,1,.01-.072l.008-.041.016-.044a.8.8,0,0,1,.036-.09.443.443,0,0,0,.026-.046c.008-.013.018-.028.028-.043a.675.675,0,0,1,.069-.082.7.7,0,0,1,.077-.074c.028-.021.056-.044.085-.061a1.086,1.086,0,0,1,.161-.085.825.825,0,0,1,.169-.049,1.135,1.135,0,0,0-.156.079,1.564,1.564,0,0,0-.146.095c-.026.018-.049.044-.077.062s-.049.046-.072.072a.6.6,0,0,0-.064.077.245.245,0,0,0-.028.041.234.234,0,0,0-.026.041.384.384,0,0,0-.041.08.37.37,0,0,0-.031.077c-.008.026-.018.046-.023.067s-.008.038-.01.054c-.008.031-.01.049-.01.049a.248.248,0,0,1,0-.049m.2.466s0,.023.015.059a.279.279,0,0,0,.021.067.715.715,0,0,0,.036.082,1.98,1.98,0,0,0,.11.195c.021.033.046.067.069.1-.018-.038-.036-.079-.051-.12a1.045,1.045,0,0,1-.046-.187.526.526,0,0,1-.005-.087c0-.028,0-.054,0-.079a.512.512,0,0,1,.023-.115l.013-.041a.3.3,0,0,0,0,.044c0,.016,0,.031,0,.049a.527.527,0,0,1,0,.064c0,.026.008.049.008.077s.01.054.015.082.016.056.021.087.021.059.028.087c.02.059.044.118.067.172s.049.1.069.143c.01.018.018.036.026.051.026.031.049.062.072.092l.144.179c.072.092.123.156.136.172a.479.479,0,0,1-.046-.036,1.575,1.575,0,0,1-.123-.108,1.973,1.973,0,0,1-.162-.164c-.056-.062-.113-.131-.166-.2a1.784,1.784,0,0,1-.144-.223.909.909,0,0,1-.056-.11,1.044,1.044,0,0,1-.039-.105.41.41,0,0,1-.023-.09.4.4,0,0,1-.008-.072Zm-.789-.5a.407.407,0,0,0-.236.159c.241-.136.581.187.751.377l0,0a2.479,2.479,0,0,0,1.163,1.291,2.124,2.124,0,0,0,.131.246s-.026-.889.361-.956a.443.443,0,0,0-.285.018.411.411,0,0,0,.174-.323s-.741.149-.4.963c-.128-.213-.528-.933-.246-1.235,0,0-.159-.115-.213,0a.682.682,0,0,1-.026-.623S13.9,7.359,13.7,7.8a.819.819,0,0,1,.674-.81s.118-.1.013-.151a.352.352,0,0,1,.315.146s.11.008.023-.146-.948-.648-1.225.443a1.541,1.541,0,0,0-.046.313.588.588,0,0,0-.8-.254.412.412,0,0,0,.341.141" transform="translate(-0.813 -0.258)" fill="#fff"/><path d="M2.962,10.179a.2.2,0,0,1,.008-.049c.008-.018.013-.038.023-.059a.514.514,0,0,1,.046-.064A.347.347,0,0,1,3.1,9.949.464.464,0,0,1,3.175,9.9c.028-.015.056-.028.085-.041a1.2,1.2,0,0,1,.174-.051A1.249,1.249,0,0,1,3.59,9.79a.9.9,0,0,1,.151,0s-.059.01-.146.031a1.377,1.377,0,0,0-.149.036,1.332,1.332,0,0,0-.164.054.733.733,0,0,0-.08.036c-.026.013-.049.028-.072.041a.639.639,0,0,0-.062.049c-.018.015-.033.036-.049.051l-.031.049a.2.2,0,0,0-.018.044.319.319,0,0,1-.015.039s0-.015,0-.041m1.427-.208a1.3,1.3,0,0,1,.041-.151,1.17,1.17,0,0,1,.077-.164.767.767,0,0,1,.051-.077.5.5,0,0,1,.062-.067.321.321,0,0,1,.067-.054.589.589,0,0,1,.069-.033c.023-.008.044-.01.062-.015a.342.342,0,0,1,.049,0l.044,0-.041.01a.188.188,0,0,0-.046.01l-.054.026c-.018.013-.038.023-.056.038a.38.38,0,0,0-.056.054.613.613,0,0,0-.051.064.729.729,0,0,0-.049.074,1.238,1.238,0,0,0-.077.154c-.023.051-.041.1-.059.141-.026.069-.044.118-.051.136a1.416,1.416,0,0,1,.021-.146m-1.568.477a.329.329,0,0,0,.164.272c-.046-.095.1-.2.1-.2.223.233.369.108.369.108a.4.4,0,0,1,.156-.651c.331-.146.533.046.656.289l0,.008a.881.881,0,0,0,.082.208,2.26,2.26,0,0,1,.085.413c.015.015.064-.054.085-.179.415.456.863.3.833.261,0,0-.746-.185-.856-.582l-.008-.026a.44.44,0,0,1,.077-.343.4.4,0,0,1,.666-.059s.146-.126-.051-.382c0,0,.128-.131.213-.069a.33.33,0,0,0-.241-.205A.733.733,0,0,1,5.3,9.083a.989.989,0,0,0-.812.346,1.111,1.111,0,0,0-.233.548A.335.335,0,0,0,4.2,9.921a.962.962,0,0,0-1.163-.115.99.99,0,0,0-.464.753.746.746,0,0,1,.246-.11" transform="translate(-0.139 -0.424)" fill="#fff"/><path d="M11.044,10.24l.019-.015a.14.14,0,0,0,.044-.1v0a.139.139,0,0,0-.059-.111.068.068,0,0,1,.052-.024.068.068,0,0,1,.028.006l.008,0a.258.258,0,0,0,.227,0l.029-.016h0a.113.113,0,0,0,.046-.065.116.116,0,0,0,0-.028V9.876l0-.019a.1.1,0,0,1-.047.033l-.02,0a.647.647,0,0,1-.131.013H11.22c-.02,0-.04,0-.06,0a.328.328,0,0,0,.282-.162h0a.327.327,0,0,0,.044-.164V9.569a.032.032,0,0,0-.011-.022h0a.159.159,0,0,0-.1-.032h-.007a.118.118,0,0,1,.03,0l.023,0h0l.019,0,.022,0h.005l.008,0h0a.032.032,0,0,0,.012-.051l-.008-.007-.034-.024a.438.438,0,0,0-.122-.057l-.041-.01-.017,0-.024,0-.043,0-.05,0h0a.015.015,0,0,0-.011.014l0,.009,0,0a.137.137,0,0,1,.027.041v0a.008.008,0,0,1-.007.007h0a.106.106,0,0,1-.059-.021h0a.21.21,0,0,0-.057-.031l-.022-.007a.21.21,0,0,0-.049-.006l-.009,0a.021.021,0,0,1,0-.039h.008l.053-.006h.031a.5.5,0,0,1,.065,0h0l.024,0a.176.176,0,0,0,.064-.013.017.017,0,0,0,.011-.016l0-.01-.007-.006a.319.319,0,0,0-.045-.031A.341.341,0,0,0,11,9.2h-.018a.326.326,0,0,0-.046.005.071.071,0,0,0-.015-.1.262.262,0,0,0-.115-.048.256.256,0,0,0-.041,0h-.047l-.081,0a1.229,1.229,0,0,0-.811.379.513.513,0,0,1,.216-.048l.04,0a.5.5,0,0,0-.307.357.268.268,0,0,1,.13-.034.279.279,0,0,1,.043,0,.551.551,0,0,0-.161.291.558.558,0,0,0-.011.108v0l.048-.024a1.04,1.04,0,0,1,.349-.093c.03,0,.061,0,.092,0a.486.486,0,0,1,.149.023l.022.008a.1.1,0,0,1,.047.141h0a.434.434,0,0,1-.2.186.509.509,0,0,1-.079.034,1.405,1.405,0,0,0,.174.011,1.387,1.387,0,0,0,.352-.045c.034-.009.068-.019.1-.031h0a1.375,1.375,0,0,0,.133-.054c.017-.008.066-.032.073-.037" transform="translate(-0.621 -0.423)" fill="#fff"/><path d="M12.192,9.457l-.005,0,0,0-.033-.025a.453.453,0,0,0-.11-.053l-.012,0-.041-.01-.018,0-.024,0-.043,0-.05,0h0l-.006,0,0,.01,0,.009,0,0a.137.137,0,0,1,.027.041v.007l-.005,0H11.85a.106.106,0,0,1-.042-.016l0,0h0a.21.21,0,0,0-.057-.031l-.022-.007a.209.209,0,0,0-.043-.006h-.006l-.009,0a.02.02,0,0,1-.01-.009l0-.01a.021.021,0,0,1,.014-.02h.008a.48.48,0,0,1,.053-.006h.031a.567.567,0,0,1,.066,0h0l.024,0a.176.176,0,0,0,.064-.012.017.017,0,0,0,.011-.016v-.01h0l-.007-.006-.022-.016-.023-.015a.339.339,0,0,0-.049-.023.342.342,0,0,0-.095-.021h-.045a.352.352,0,0,0-.046.006.071.071,0,0,0,.014-.038v0a.071.071,0,0,0-.029-.057.263.263,0,0,0-.116-.048.276.276,0,0,0-.04,0h-.047l-.081,0a1.208,1.208,0,0,0-.155.02l0,.009a.062.062,0,0,1-.008.045c.026.007.052.016.074.024.088.034.133.068.144.113l.016.007.032.013a2.06,2.06,0,0,1,.189.1l.007.005c.029.021.065.031.036.128s-.012.2-.075.279l.008.04a.236.236,0,0,1-.032.167.207.207,0,0,1-.135.086h0l-.026,0a.439.439,0,0,1-.065,0,.318.318,0,0,1-.075-.008.176.176,0,0,1,0,.037c-.012.1-.1.185-.258.255l-.023.01c.03,0,.06,0,.091,0a1.4,1.4,0,0,0,.352-.045q.051-.014.1-.031h0a1.392,1.392,0,0,0,.133-.054l.022-.01c.009,0,.044-.022.052-.027l.019-.015a.141.141,0,0,0,.044-.1v0a.14.14,0,0,0-.057-.11l0,0a.068.068,0,0,1,.052-.024.067.067,0,0,1,.028.006l.009,0a.257.257,0,0,0,.227,0l.029-.016h0a.111.111,0,0,0,.046-.065l0-.012V9.864h0l0-.006a.1.1,0,0,1-.046.033l-.02,0a.634.634,0,0,1-.131.014H11.9l-.041,0a.325.325,0,0,0,.059-.005A.335.335,0,0,0,12,9.873a.329.329,0,0,0,.145-.131h0a.324.324,0,0,0,.039-.1.33.33,0,0,0,.006-.063V9.569a.034.034,0,0,0-.011-.022h0l0,0,0,0a.159.159,0,0,0-.064-.026l-.026,0h-.007a.121.121,0,0,1,.03,0l.023,0h0l.019,0,.022,0h.005l.008,0h0a.032.032,0,0,0,.016-.045l0-.006" transform="translate(-0.702 -0.423)" fill="#fff"/><path d="M9.245,16.137s-.279-.561-2.122-1.181c0,0-2.537-.912-1.327-2.878,0,0,1.153-2.029.233-3.436L7.073,7.581a6.3,6.3,0,0,0,2.173.612,7,7,0,0,0,2.222-.574l.994,1.023c-.92,1.407.233,3.436.233,3.436,1.212,1.965-1.327,2.878-1.327,2.878-1.84.62-2.122,1.181-2.122,1.181m1.33-.036a1.024,1.024,0,0,1,.131.087,1.213,1.213,0,0,1,.134.123.8.8,0,0,1,.056.075.4.4,0,0,1,.044.08.423.423,0,0,1,.031.079.376.376,0,0,1,.01.077c0,.023,0,.044,0,.064a.2.2,0,0,1-.015.046l-.016.039s0-.015.005-.041a.126.126,0,0,0,0-.046c0-.018,0-.038-.005-.059s-.01-.044-.018-.067a.548.548,0,0,0-.033-.069.636.636,0,0,0-.046-.072c-.015-.023-.036-.044-.054-.067-.038-.044-.082-.085-.123-.123s-.082-.069-.115-.1c-.062-.052-.105-.085-.118-.093a.633.633,0,0,1,.136.064m.548.164c.013-.026.031-.064.054-.108a1.549,1.549,0,0,1,.087-.143c.033-.051.072-.105.113-.157a1.361,1.361,0,0,1,.131-.143.74.74,0,0,1,.066-.059.374.374,0,0,1,.067-.046.652.652,0,0,1,.059-.033.206.206,0,0,1,.049-.018l.043-.013-.038.023a.166.166,0,0,0-.043.028.43.43,0,0,0-.052.038,1.555,1.555,0,0,0-.118.115c-.018.02-.038.044-.056.066a.676.676,0,0,1,.077-.059.83.83,0,0,1,.121-.066c.023-.008.041-.015.061-.021a.516.516,0,0,1,.057-.013.386.386,0,0,1,.085-.007l.033,0-.033,0-.033.008c-.016.005-.028.011-.046.016l-.052.02a.259.259,0,0,0-.054.026c-.021.008-.039.021-.059.03s-.039.023-.056.036c-.039.025-.074.051-.108.077l-.09.077a.166.166,0,0,0-.031.028c-.018.023-.036.046-.054.067l-.1.133a1.491,1.491,0,0,1-.1.126l.015-.036m.961-.948.041-.008a.311.311,0,0,1,.051-.008.152.152,0,0,0,.031,0,.157.157,0,0,0,.033,0,.65.65,0,0,1,.069.011l.038.008a.169.169,0,0,0,.036.013l.072.033c.023.011.044.028.067.041a.528.528,0,0,1,.056.049.517.517,0,0,1,.09.1.444.444,0,0,1,.066.11,1.006,1.006,0,0,0-.084-.094,1.094,1.094,0,0,0-.095-.085c-.018-.015-.039-.028-.056-.044s-.041-.028-.064-.039-.044-.023-.067-.03-.023-.008-.033-.013-.023-.008-.033-.01a.316.316,0,0,0-.067-.013.237.237,0,0,0-.059-.008l-.051,0h-.038l-.036,0,.034-.01m-3.992.812c-.036.028-.077.062-.118.1a1.428,1.428,0,0,0-.121.123c-.021.023-.038.043-.056.067a.43.43,0,0,0-.044.072.346.346,0,0,0-.033.069c-.01.023-.013.046-.021.067s0,.041-.005.059a.252.252,0,0,0,0,.046.067.067,0,0,1,0,.031.091.091,0,0,1-.013-.028.2.2,0,0,1-.013-.046.574.574,0,0,1-.007-.064c0-.023.005-.051.01-.077a.412.412,0,0,1,.031-.079.374.374,0,0,1,.043-.08.859.859,0,0,1,.059-.074,1.147,1.147,0,0,1,.131-.123,1.274,1.274,0,0,1,.131-.087.633.633,0,0,1,.136-.064,1.294,1.294,0,0,0-.115.093m-.7.046c-.031-.039-.064-.085-.1-.133-.018-.021-.033-.044-.051-.067l-.031-.028-.09-.077c-.033-.026-.072-.051-.108-.077-.021-.013-.039-.026-.059-.036a.408.408,0,0,0-.057-.031.348.348,0,0,0-.056-.026.451.451,0,0,0-.051-.021l-.044-.015-.036-.008-.031-.005a.145.145,0,0,1,.031,0,.489.489,0,0,1,.141.021.594.594,0,0,1,.062.021.932.932,0,0,1,.123.067c.026.018.051.039.077.059-.021-.023-.039-.046-.059-.067a1.235,1.235,0,0,0-.118-.115.238.238,0,0,0-.051-.039.171.171,0,0,0-.041-.028.382.382,0,0,1-.041-.023l.046.013a.4.4,0,0,1,.049.018c.018.01.039.021.059.033a.494.494,0,0,1,.064.046c.023.018.046.039.069.059a1.758,1.758,0,0,1,.131.143c.041.051.08.105.113.157s.062.1.085.143.041.082.054.108l.016.036c-.013-.015-.049-.062-.095-.126m-.882-.851H6.468l-.051,0a.254.254,0,0,0-.059.008.289.289,0,0,0-.064.013c-.013,0-.023.008-.033.01s-.023.008-.033.013a.507.507,0,0,0-.067.031.519.519,0,0,0-.064.038c-.021.016-.041.028-.059.044-.036.028-.067.059-.095.085-.041.041-.067.074-.079.087a.584.584,0,0,1,.061-.1.619.619,0,0,1,.09-.1.519.519,0,0,1,.059-.049.545.545,0,0,1,.067-.041.589.589,0,0,1,.072-.033l.036-.013.036-.008c.026-.005.049-.008.072-.01a.128.128,0,0,0,.031,0,.138.138,0,0,0,.031,0,.325.325,0,0,1,.054.008l.038.008.036.01-.036,0m6.585-3.231s-1.274-1.978-.256-3.533L11.567,7.248A6.9,6.9,0,0,1,9.284,7.8,6.875,6.875,0,0,1,7,7.248L5.732,8.56c1.017,1.555-.256,3.533-.256,3.533-1.337,2.173,1.466,3.18,1.466,3.18a9.335,9.335,0,0,1,1.468.62,1.015,1.015,0,0,0-.822.469.328.328,0,0,0-.021.046h0c-.092-.338-.407-1.184-1.209-1.191-.823-.008-.633.694-.541.782s.108.01.108.01a.248.248,0,0,1-.044-.248c.013.082.108.018.108.018a.6.6,0,0,1,.7-.323c-.351.062-.366.254-.366.254a.5.5,0,0,1,.436.136c-.092.015-.041.149-.041.149.29-.156.774.346.848.428a.952.952,0,0,0-.049.822.7.7,0,0,1,.169-.207.335.335,0,0,0,.269.166c-.082-.061,0-.225,0-.225.308.107.379-.069.379-.069a.4.4,0,0,1-.154-.654c.435-.533,1.007.241,1.127.415v0c.01.013.015.023.021.028a.161.161,0,0,1,.018-.028v0c.12-.174.692-.948,1.127-.415a.4.4,0,0,1-.151.654s.072.177.377.069c0,0,.085.164,0,.225a.332.332,0,0,0,.269-.166.7.7,0,0,1,.169.207.976.976,0,0,0-.067-.861c.138-.141.556-.528.812-.389,0,0,.054-.134-.038-.149a.494.494,0,0,1,.433-.136s-.013-.192-.366-.254a.6.6,0,0,1,.7.323s.092.064.108-.018a.256.256,0,0,1-.044.249s.013.08.105-.011.284-.789-.538-.781c-.753.007-1.076.751-1.191,1.122a.981.981,0,0,0-.9-.438,9.537,9.537,0,0,1,1.481-.628s2.8-1.007,1.466-3.18" transform="translate(-0.309 -0.302)" fill="#fff"/><path d="M12.787,13.6v-1.1a1.622,1.622,0,0,1,.113.572,1.326,1.326,0,0,1-.075.438.522.522,0,0,1-.038.087m-.264.418a1.36,1.36,0,0,1-.167.177V11.625c.064.154.126.279.167.364Zm-3.167-3.1V8.42h.01a6.827,6.827,0,0,0,2.068-.546l.866.866a2.779,2.779,0,0,0-.185,2.183Zm2.736,3.493q-.085.062-.169.115V10.984h.169Zm-.433.267q-.1.05-.169.084V10.984h.169Zm-.43.184-.169.059V10.984h.169Zm-.433.159c-.059.023-.115.049-.169.069v-4.11H10.8Zm-.433.19c-.059.025-.116.054-.167.079v-4.31h.167Zm-.431.225c-.064.036-.12.072-.169.1V10.984h.169Zm-.433.3a1.874,1.874,0,0,0-.144.144v-4.9H9.5ZM9.277,8.633a.367.367,0,0,0-.133-.219,1.171,1.171,0,0,0,.133.005Zm0,.55a.384.384,0,0,0-.172-.2.354.354,0,0,0,.172-.238Zm0,.658a.4.4,0,0,0-.166-.195.413.413,0,0,0,.166-.195Zm0,1.081H9.044a.344.344,0,0,0,.046-.6.377.377,0,0,0,.187-.21Zm0,4.966a1.571,1.571,0,0,0-.3-.269A6.178,6.178,0,0,0,7.3,14.831,2.7,2.7,0,0,1,5.81,13.516a1.592,1.592,0,0,1,.234-1.4,5.467,5.467,0,0,0,.459-1.13H9.277ZM6.589,10.613a.374.374,0,0,0,.228.31h-.3c.028-.108.051-.21.072-.31M6.6,9.434a1.929,1.929,0,0,0-.077-.282.272.272,0,0,1,.09.2.253.253,0,0,1-.013.079M6.445,8.95a1.89,1.89,0,0,0-.113-.205l.192-.189a.235.235,0,0,1,.069.169.242.242,0,0,1-.149.226m.2-.041a.385.385,0,0,0,.149.151.3.3,0,0,0-.115.113.384.384,0,0,0-.144-.154.314.314,0,0,0,.11-.11m.08-.553a.452.452,0,0,0,.056.041.407.407,0,0,0-.136.144A.344.344,0,0,0,6.6,8.481Zm.264.09a.278.278,0,1,1-.2.081.279.279,0,0,1,.2-.081m.151-.5A.234.234,0,0,1,7.2,8.1a.241.241,0,0,1-.2.238h-.01a.285.285,0,0,0-.049,0A.25.25,0,0,1,6.8,8.281Zm.146.254a.4.4,0,0,0,.169.192.324.324,0,0,0-.128.141.4.4,0,0,0-.164-.151A.337.337,0,0,0,7.286,8.2m-.072-.33.031-.028.064.028a.252.252,0,0,0-.038.09.3.3,0,0,0-.056-.087Zm.192.043c.123.054.3.128.51.205a.276.276,0,0,1-.546-.064.289.289,0,0,1,.036-.141m.594.3a.336.336,0,0,0,.133.154.367.367,0,0,0-.187.164.388.388,0,0,0-.121-.136A.386.386,0,0,0,8,8.212m.428.069a.212.212,0,0,1-.113.031A.244.244,0,0,1,8.1,8.179c.105.036.218.069.33.1m.128.033c.077.021.156.038.233.051a.335.335,0,0,0-.172.164.38.38,0,0,0-.156-.148.4.4,0,0,0,.095-.067m.356,1.276a.278.278,0,1,1,.278-.278.278.278,0,0,1-.278.278m0,.669A.279.279,0,1,1,9.19,9.98a.279.279,0,0,1-.277.279m-.259.351a.241.241,0,1,1,.241.241.241.241,0,0,1-.241-.241m-.059.167a.3.3,0,0,0,.154.146h-.33a.379.379,0,0,0,.177-.146m-.607-.208a.277.277,0,1,1,.277.277.277.277,0,0,1-.277-.277m-.069.179a.4.4,0,0,0,.192.174H7.75a.33.33,0,0,0,.169-.174m-.556-.138a.241.241,0,1,1,.241.241.241.241,0,0,1-.241-.241m-.064.167a.337.337,0,0,0,.159.146h-.33a.354.354,0,0,0,.172-.146m-.325-.487a.278.278,0,1,1-.2.081.278.278,0,0,1,.2-.081m-.32-.256a.344.344,0,0,0,.141.19.4.4,0,0,0-.172.179,3.191,3.191,0,0,0,.031-.369M6.8,9.65a.382.382,0,0,0-.146.2,1.816,1.816,0,0,0-.018-.241.331.331,0,0,0,.046-.069.321.321,0,0,0,.118.11m.418-.295A.239.239,0,0,1,7,9.593l-.015,0a.14.14,0,0,0-.033,0,.242.242,0,1,1,.259-.241m.225-.384a.387.387,0,0,0-.179.192.326.326,0,0,0-.092-.095.387.387,0,0,0,.179-.192.367.367,0,0,0,.092.095m.2-.046a.242.242,0,1,1,.238-.241.242.242,0,0,1-.238.241m.449.136a.317.317,0,0,0-.108.1.38.38,0,0,0-.164-.184.317.317,0,0,0,.108-.1.42.42,0,0,0,.164.184M8.283,9a.279.279,0,1,1,.279-.279A.279.279,0,0,1,8.283,9m.272.159a.377.377,0,0,0-.095-.095.378.378,0,0,0,.179-.192.362.362,0,0,0,.092.095.382.382,0,0,0-.177.192m-.095.479a.372.372,0,0,0,.118-.133.394.394,0,0,0,.136.138.4.4,0,0,0-.128.125.361.361,0,0,0-.125-.131m.1.5a.4.4,0,0,0,.156.172.29.29,0,0,0-.1.09.384.384,0,0,0-.159-.172.378.378,0,0,0,.1-.09m-.52-.205a.245.245,0,0,1,.21-.241.037.037,0,0,0,.018,0l.031,0a.241.241,0,1,1-.259.241m-.054.177a.336.336,0,0,0,.1.108.405.405,0,0,0-.185.213.359.359,0,0,0-.1-.113.391.391,0,0,0,.187-.208M7.342,9.98a.278.278,0,1,1,.08.2.277.277,0,0,1-.08-.2m-.077.164a.409.409,0,0,0,.159.172.294.294,0,0,0-.1.09.4.4,0,0,0-.159-.172.334.334,0,0,0,.1-.09M7.23,9.939a.241.241,0,1,1-.482,0A.245.245,0,0,1,6.956,9.7a.035.035,0,0,0,.018,0L7,9.7a.239.239,0,0,1,.226.241m.192-.292a.38.38,0,0,0-.131.125.359.359,0,0,0-.123-.131.362.362,0,0,0,.115-.133.384.384,0,0,0,.138.138m.2-.056a.276.276,0,1,1,.2-.081.278.278,0,0,1-.2.081m.405-.236a.241.241,0,1,1,.274.238l-.015,0a.145.145,0,0,0-.034,0,.243.243,0,0,1-.225-.241m.064.295a.354.354,0,0,0-.123.151.4.4,0,0,0-.149-.154.431.431,0,0,0,.141-.138.334.334,0,0,0,.131.141M8.928,8.44a.242.242,0,1,1-.244.243.242.242,0,0,1,.244-.243m3.7,3.654a5.526,5.526,0,0,1-.466-1.176,2.6,2.6,0,0,1,.187-2.17l.008-.013-.912-.91-.013.005a6.744,6.744,0,0,1-2.114.546,1.962,1.962,0,0,1-.267-.013C9,8.358,8.943,8.35,8.89,8.34a7.393,7.393,0,0,1-1.64-.546l-.013-.007-.958.953.01.013a2.733,2.733,0,0,1,.187,2.168,5.7,5.7,0,0,1-.469,1.174,1.641,1.641,0,0,0-.238,1.438,2.725,2.725,0,0,0,1.517,1.337,6.409,6.409,0,0,1,1.66.779,1.194,1.194,0,0,1,.351.338l.021.039.018-.039a1.243,1.243,0,0,1,.354-.338,6.321,6.321,0,0,1,1.66-.779,2.731,2.731,0,0,0,1.514-1.337,1.635,1.635,0,0,0-.238-1.438" transform="translate(-0.348 -0.338)" fill="#fff"/><path d="M8.649,12.78l.077.176L8.8,12.78,9,12.8l-.114-.156L9,12.49,8.8,12.51l-.077-.176-.077.176-.192-.021.115.156-.115.156Z" transform="translate(-0.532 -0.642)" fill="#fff"/><path d="M7.747,14.752l.078.176.077-.176.191.021-.114-.156.114-.156-.191.021-.077-.176-.078.176-.191-.021.114.156-.114.156Z" transform="translate(-0.472 -0.774)" fill="#fff"/><path d="M8.907,13.279l-.192-.021.115.156-.115.156.192-.021.077.176.078-.176.191.021-.114-.156.114-.156-.191.021L8.985,13.1Z" transform="translate(-0.55 -0.693)" fill="#fff"/><path d="M7.747,12.345l.078.176.077-.176.191.021-.114-.156.114-.156-.191.021L7.826,11.9l-.078.176-.191-.021.114.156-.114.156Z" transform="translate(-0.472 -0.613)" fill="#fff"/><path d="M8.618,14.355l.078.176.077-.176.191.021-.114-.156.114-.156-.191.021L8.7,13.91l-.078.176-.191-.021.114.156-.114.156Z" transform="translate(-0.53 -0.747)" fill="#fff"/><path d="M6.991,14.086l-.077-.176-.078.176-.191-.021.114.156-.114.156.191-.021.078.176.077-.176.191.021-.114-.156.114-.156Z" transform="translate(-0.411 -0.747)" fill="#fff"/><path d="M6.861,12.741l.077.176.077-.176.192.021-.114-.156.114-.156-.192.021L6.939,12.3l-.077.176-.192-.021.114.156-.114.156Z" transform="translate(-0.413 -0.639)" fill="#fff"/><path d="M6.352,13.258l.114.156-.114.156.191-.021.078.176.077-.176.192.021-.115-.156.115-.156-.192.021L6.622,13.1l-.078.176Z" transform="translate(-0.392 -0.693)" fill="#fff"/><path d="M29.979,6.44h0a1.415,1.415,0,0,1,1.383,1.446v7.086H29.979Z" transform="translate(-1.973 -0.247)" fill="#fff"/><path d="M55.334,6.44h0a1.412,1.412,0,0,1,1.38,1.443v7.089h-1.38Z" transform="translate(-3.669 -0.247)" fill="#fff"/><path d="M33.469,6.985a.81.81,0,1,1-.851.8.83.83,0,0,1,.851-.8m-.663,2.641h1.35V15.02h-1.35Z" transform="translate(-2.149 -0.284)" fill="#fff"/><path d="M62.863,15h-.4a.834.834,0,0,1-.834-.834h-.012a1.625,1.625,0,0,1-1.59.963,1.815,1.815,0,0,1-1.9-2.055V9.815h1.3v2.642c0,.587.044,1.526.951,1.526a1.164,1.164,0,0,0,1.191-1.32V9.815h1.3Z" transform="translate(-3.855 -0.473)" fill="#fff"/><path d="M64.386,6.478h0A1.323,1.323,0,0,1,65.707,7.8v2.377h.032a2.178,2.178,0,0,1,1.8-.8,2.592,2.592,0,0,1,2.556,2.777,2.566,2.566,0,0,1-2.612,2.776A2.035,2.035,0,0,1,65.662,14h-.02V14.8H64.386Zm2.829,4.109a1.588,1.588,0,1,0,1.555,1.62v-.035a1.529,1.529,0,0,0-1.463-1.593c-.029,0-.058,0-.087,0Z" transform="translate(-4.275 -0.25)" fill="#fff"/><path d="M38.192,13.853a.684.684,0,0,1-.684-.684V10.5h.772V9.172H37.5v-.88a1.374,1.374,0,0,0-1.371-1.333v2.21h-.772V10.5h.772v3.34A1.365,1.365,0,0,0,37.5,15.2l.772-1.338H38.18Z" transform="translate(-2.332 -0.282)" fill="#fff"/><path d="M41.867,15.093a2.962,2.962,0,0,1-2.459-1.311,2.992,2.992,0,0,1-.5-1.644,2.711,2.711,0,0,1,.041-.487,2.958,2.958,0,0,1,5.841,0,3.147,3.147,0,0,1,.041.476,2.881,2.881,0,0,1-.082.69H40.1l.117.211A1.869,1.869,0,0,0,41.867,14h2.292a2.965,2.965,0,0,1-2.286,1.089Zm0-4.837a1.865,1.865,0,0,0-1.79,1.33l-.056.184h3.7l-.056-.184a1.866,1.866,0,0,0-1.793-1.33Z" transform="translate(-2.57 -0.43)" fill="#fff"/><path d="M53.422,14.5a3.889,3.889,0,0,1-2.246.669,4.476,4.476,0,0,1-2.823-.916l-.026-.018a4.665,4.665,0,0,1-.936-1.121c-.029-.047-.053-.093-.079-.141a4.566,4.566,0,0,1-.493-2.127,4.147,4.147,0,0,1,4.353-4.367,3.627,3.627,0,0,1,2.127.613l-.71,1.221a2.09,2.09,0,0,0-1.412-.481,2.8,2.8,0,0,0-2.829,2.935,2.83,2.83,0,0,0,2.829,3.063,2.155,2.155,0,0,0,1.5-.613Z" transform="translate(-3.099 -0.25)" fill="#fff"/><path d="M24.45,8.145v2.069h2.9v1.352h-2.9V12.99a.684.684,0,0,0,.684.684h3.428v1.332H24.268a1.368,1.368,0,0,1-1.174-1.332v-6.9h4.165a1.344,1.344,0,0,1,1.315,1.341v.026Z" transform="translate(-1.512 -0.27)" fill="#fff"/></g></svg>
