<svg xmlns="http://www.w3.org/2000/svg" width="52" height="39" viewBox="0 0 52 39"><defs><style>.a{fill:#fff;}.b{fill:#ff5f00;}.c{fill:#eb001b;}.d{fill:#f79e1b;}.e,.f{stroke:none;}.f{fill:#ddd;}</style></defs><g class="a"><path class="e" d="M 51.5 38.5 L 0.5 38.5 L 0.5 0.5 L 41.70832824707031 0.5 L 51.5 0.5 L 51.5 38.5 Z"/><path class="f" d="M 1 1 L 1 38 L 51 38 L 51 1 L 41.70832824707031 1 L 1 1 M 0 0 L 41.70832824707031 0 L 52 0 L 52 39 L 0 39 L 0 0 Z"/></g><path class="b" d="M24.05,12.78H34.363V29.628H24.05Z" transform="translate(-3.207 -1.704)"/><path class="c" d="M23.243,20.852a10.66,10.66,0,0,1,4.091-8.424,10.712,10.712,0,1,0,0,16.848,10.66,10.66,0,0,1-4.091-8.424Z" transform="translate(-1.334 -1.352)"/><path class="d" d="M46.311,27.49v-.347h.156v-.069H46.12v.069h.13v.347Zm.693,0v-.416h-.113l-.139.295-.121-.295h-.1v.416H46.6v-.312l.121.26H46.8l.1-.26v.312Zm.329-6.639A10.712,10.712,0,0,1,30,29.275,10.712,10.712,0,0,0,31.8,14.23a11.093,11.093,0,0,0-1.8-1.8,10.712,10.712,0,0,1,17.333,8.424Z" transform="translate(-4 -1.351)"/></svg>
