<svg xmlns="http://www.w3.org/2000/svg" width="52" height="39" viewBox="0 0 52 39"><defs><style>.a{fill:#fa82a0;}.b,.c{fill:#fff;}.b{fill-rule:evenodd;}</style></defs><path class="a" d="M-.12.11h52v39h-52Z" transform="translate(0.12 -0.11)"/><path class="b" d="M17.53,37.529a1.966,1.966,0,0,0,2.092-1.98c0-1.086-.77-1.554-1.729-1.832-.6-.182-.977-.313-.977-.738a.632.632,0,0,1,.674-.643.864.864,0,0,1,.8.512l1.012-.625A2.012,2.012,0,0,0,16.3,31.7a1.854,1.854,0,0,0-.573,1.343c0,.79.476,1.4,1.643,1.737.64.182,1.038.3,1.038.808a.753.753,0,0,1-.865.773,1.537,1.537,0,0,1-1.176-.651l-.821.868a2.417,2.417,0,0,0,1.98.955Zm4.8,0a2.24,2.24,0,1,1,2.257-2.24,2.279,2.279,0,0,1-2.257,2.24Zm0-1.129a1.112,1.112,0,1,0-1.089-1.112A1.083,1.083,0,0,0,22.329,36.4Zm5.188-4v-1.12h-.173a1.993,1.993,0,0,0-2.153,2.1v4.029H26.4V35.671a1.039,1.039,0,0,1,1.107-1.033V33.474A1.432,1.432,0,0,0,26.4,33.9v-.46A.979.979,0,0,1,27.543,32.4Zm2.594,5.132a2.24,2.24,0,1,1,2.283-2.24,2.27,2.27,0,0,1-2.265,2.24Zm0-1.129a1.092,1.092,0,1,0-.771-.32,1.087,1.087,0,0,0,.788.32Zm4.09-2.77v-.478H33.05V37.39h1.193V35.471a1.005,1.005,0,0,1,1.124-1.094V33.1a1.217,1.217,0,0,0-1.167.53Zm3.026,1.6V34.212a1.475,1.475,0,0,0,1.115.417V33.491a1.057,1.057,0,0,1-1.115-1.025V31.8H36.042v3.474a1.993,1.993,0,0,0,2.153,2.1h.225V36.287a.979.979,0,0,1-1.193-1.042Zm2.594,2.232a.569.569,0,1,0-.026.017Z" transform="translate(-2.001 -4.2)"/><path class="c" d="M27.026,19.1a.949.949,0,0,1,0,1.337l-.069.078a.957.957,0,0,1-1.332,0l-2.092-2.084c-.579-.582-.666-1.3-.294-1.676l.069-.078A.862.862,0,0,1,24.45,16.6a.374.374,0,0,0,.527-.061.378.378,0,0,0-.061-.53,1.6,1.6,0,0,0-2.144.139l-.078.078a1.951,1.951,0,0,0,.32,2.735l2.1,2.093a1.724,1.724,0,0,0,2.4,0l.078-.078a1.742,1.742,0,0,0,0-2.4.371.371,0,0,0-.536,0A.383.383,0,0,0,27.026,19.1ZM25.773,7.812l.865,7.077a.381.381,0,0,0,.424.33.364.364,0,0,0,.329-.417l-.873-7.13a1.13,1.13,0,0,1,.709-1.381,1.051,1.051,0,0,1,.787.148,1.086,1.086,0,0,1,.45.669l1.487,6.409a.38.38,0,0,0,.735-.174l-1.5-6.391a1.806,1.806,0,0,0-.77-1.138,1.766,1.766,0,0,0-1.366-.261A1.877,1.877,0,0,0,25.773,7.8Z" transform="translate(-2.911 -0.821)"/><path class="c" d="M33.844,16.117l1.729-8.484a1.8,1.8,0,0,0-1.236-2.1,1.876,1.876,0,0,0-2.274,1.337l-1.876,6.452a.382.382,0,0,0,.259.469.372.372,0,0,0,.467-.261l1.876-6.461a1.115,1.115,0,0,1,1.349-.808,1.043,1.043,0,0,1,.709,1.216l-1.729,8.493a.365.365,0,0,0,.294.443A.372.372,0,0,0,33.844,16.117ZM29.572,24.3A4.782,4.782,0,0,1,24.644,19.5a.376.376,0,1,0-.752,0,5.536,5.536,0,0,0,5.681,5.532.369.369,0,1,0,0-.738ZM28.284,17.68a.946.946,0,0,1-.372.521l-.078.052A.94.94,0,0,1,26.52,18l-1.695-2.466a1.337,1.337,0,0,1,0-1.737l.078-.052c.562-.321,1.029-.078,1.513.634L27.8,16.438a.371.371,0,0,0,.519.1.392.392,0,0,0,.1-.53l-1.383-2.058c-.674-1-1.522-1.433-2.533-.868l-.1.069a1.968,1.968,0,0,0-.242,2.753l1.651,2.466a1.725,1.725,0,0,0,2.352.452l.086-.052a1.737,1.737,0,0,0,.674-.947.374.374,0,0,0-.268-.46.364.364,0,0,0-.372.313Z" transform="translate(-3.105 -0.816)"/><path class="c" d="M31.37,20.373a2.843,2.843,0,0,0-1.332,2.518.381.381,0,0,0,.363.391.364.364,0,0,0,.389-.356,2,2,0,0,1,1.2-2.015,2.687,2.687,0,0,1,1.159-.13h.1a.382.382,0,0,0,.156-.747L30.5,19.383c-1.349-.365-1.556-.868-1.306-1.737a.866.866,0,0,1,.666-.634,1.946,1.946,0,0,1,.709,0H30.7l4.4,1.025h.078a.588.588,0,0,1,.225.174,2.466,2.466,0,0,1,.424,1.963c-.294,3.474-1.885,5.566-5.663,5.54a.373.373,0,0,0-.38.373.381.381,0,0,0,.372.382c4.245,0,6.1-2.449,6.416-6.226a3.145,3.145,0,0,0-.614-2.475,1.253,1.253,0,0,0-.718-.417L30.92,16.327l-.2-.043a2.781,2.781,0,0,0-1,0,1.6,1.6,0,0,0-1.228,1.155c-.355,1.216,0,2.162,1.85,2.666Z" transform="translate(-3.736 -2.232)"/></svg>
