<svg xmlns="http://www.w3.org/2000/svg" width="100.008" height="21.74" viewBox="0 0 100.008 21.74"><g transform="translate(-0.5 -2.742)"><path d="M20.426,13.664h0a.718.718,0,0,0,.106.009.686.686,0,0,0,.121-.012l.029-.006a.151.151,0,0,0,.043-.011h0a.181.181,0,0,0,.111-.167.179.179,0,0,0-.045-.118.185.185,0,0,0-.045-.037c-.06-.048-.122-.093-.186-.136a2.451,2.451,0,0,0-.676-.314q-.112-.033-.228-.055l-.1-.017-.13-.016c-.079-.007-.159-.011-.239-.011a2.467,2.467,0,0,0-.278.016h0l-.022,0a.082.082,0,0,0-.059.079.077.077,0,0,0,.017.049l.015.016a.737.737,0,0,1,.151.225h0l0,.016a.042.042,0,0,1-.039.042h-.01a.59.59,0,0,1-.328-.116h0a1.155,1.155,0,0,0-.315-.172,1.066,1.066,0,0,0-.124-.037,1.172,1.172,0,0,0-.27-.032.117.117,0,0,1-.041-.226l.043-.007a2.758,2.758,0,0,1,.3-.031c.053,0,.106,0,.159,0H18.4a2.961,2.961,0,0,1,.364.024h0a.915.915,0,0,0,.135.01.979.979,0,0,0,.357-.07.1.1,0,0,0,.063-.09.075.075,0,0,0-.016-.053.422.422,0,0,0-.04-.034,1.9,1.9,0,0,0-1.195-.425h0l-.095,0a1.943,1.943,0,0,0-.254.03.393.393,0,0,0-.083-.547,1.443,1.443,0,0,0-.64-.268,1.526,1.526,0,0,0-.225-.017c-.026,0-.053,0-.08,0-.06,0-.12,0-.18,0-.15,0-.3.006-.448.015a6.778,6.778,0,0,0-2.384.6,7.056,7.056,0,0,0,.614,1.293,2.681,2.681,0,0,1-.045,3.337,2.66,2.66,0,0,1,.577.118c.041.013.082.028.122.043a.569.569,0,0,1,.258.782h0l0,.005a2.417,2.417,0,0,1-1.084,1.028,2.818,2.818,0,0,1-.437.189,7.729,7.729,0,0,0,2.917-.19q.285-.075.562-.17l.015-.006a7.788,7.788,0,0,0,.737-.3c.091-.043.364-.178.406-.206a.717.717,0,0,0,.105-.083.775.775,0,0,0,.244-.566v-.017a.775.775,0,0,0-.327-.617.378.378,0,0,1,.289-.135.374.374,0,0,1,.156.034.329.329,0,0,1,.047.025,1.429,1.429,0,0,0,1.26.028,1.357,1.357,0,0,0,.162-.09v0a.619.619,0,0,0,.255-.363.6.6,0,0,0,.02-.153.574.574,0,0,0-.005-.075.545.545,0,0,0-.021-.1.552.552,0,0,1-.257.183l-.111.025a3.538,3.538,0,0,1-.726.075l-.113,0c-.114,0-.226-.012-.336-.026a1.8,1.8,0,0,0,1.123-.391,1.873,1.873,0,0,0,.2-.181,1.828,1.828,0,0,0,.242-.324l0,0v0a1.808,1.808,0,0,0,.246-.912v-.044a.181.181,0,0,0-.063-.122h0a.876.876,0,0,0-.535-.18h-.037a.643.643,0,0,1,.166-.022.634.634,0,0,1,.128.013" transform="translate(5.646 3.604)" fill="#343333"/><path d="M6.146,17.36h0l0,0h0l0,0,0,0,0-.005h0A.57.57,0,0,1,6.4,16.56c.04-.016.081-.03.122-.043a2.722,2.722,0,0,1,.577-.118,2.682,2.682,0,0,1-.044-3.337,7.059,7.059,0,0,0,.614-1.294,6.8,6.8,0,0,0-2.384-.6c-.149-.009-.3-.015-.448-.015-.061,0-.12,0-.18,0-.026,0-.054,0-.081,0a1.486,1.486,0,0,0-.224.017,1.448,1.448,0,0,0-.64.268.394.394,0,0,0-.082.547,1.881,1.881,0,0,0-.254-.03l-.094,0h0a1.912,1.912,0,0,0-.678.126,1.977,1.977,0,0,0-.27.129,1.952,1.952,0,0,0-.248.17.453.453,0,0,0-.04.034.075.075,0,0,0-.017.054.1.1,0,0,0,.063.09.984.984,0,0,0,.357.07.921.921,0,0,0,.135-.01h0a3.017,3.017,0,0,1,.363-.025h.014c.054,0,.106,0,.159,0a2.768,2.768,0,0,1,.3.031l.043.007a.117.117,0,0,1,.007.216.121.121,0,0,1-.049.01,1.179,1.179,0,0,0-.27.032,1.064,1.064,0,0,0-.124.037A1.178,1.178,0,0,0,2.7,13.1h0a.592.592,0,0,1-.328.116h-.01a.042.042,0,0,1-.038-.042l0-.016a.752.752,0,0,1,.151-.225l.016-.016a.082.082,0,0,0,.017-.049.083.083,0,0,0-.059-.079l-.023,0h0a2.54,2.54,0,0,0-.278-.016c-.081,0-.161,0-.239.012-.044,0-.088.01-.131.016l-.1.017c-.077.015-.153.034-.228.056a2.443,2.443,0,0,0-.676.314,2.3,2.3,0,0,0-.186.136.175.175,0,0,0-.045.037.18.18,0,0,0,.066.285h0a.148.148,0,0,0,.043.011l.03.007a.667.667,0,0,0,.12.012.719.719,0,0,0,.106-.009h0a.638.638,0,0,1,.128-.013.647.647,0,0,1,.167.022H1.17a.879.879,0,0,0-.535.18h0a.185.185,0,0,0-.063.122v.044a1.826,1.826,0,0,0,.034.347,1.794,1.794,0,0,0,.213.564l0,0,0,0a1.828,1.828,0,0,0,.242.324,1.749,1.749,0,0,0,.2.181,1.81,1.81,0,0,0,1.123.391c-.111.014-.222.023-.336.026l-.113,0a3.55,3.55,0,0,1-.726-.075L1.1,15.76a.552.552,0,0,1-.258-.183.647.647,0,0,0-.021.1.689.689,0,0,0-.005.075.628.628,0,0,0,.275.515v0a1.391,1.391,0,0,0,.162.09,1.429,1.429,0,0,0,1.261-.028.307.307,0,0,1,.047-.025.368.368,0,0,1,.155-.034A.374.374,0,0,1,3,16.41a.776.776,0,0,0-.326.617v.017a.775.775,0,0,0,.245.566.715.715,0,0,0,.1.083c.042.028.314.162.406.206a7.675,7.675,0,0,0,.737.3l.016.006q.276.095.561.17a7.732,7.732,0,0,0,2.918.19,2.813,2.813,0,0,1-.438-.189A2.418,2.418,0,0,1,6.146,17.36" transform="translate(0 3.604)" fill="#343333"/><path d="M8.119,5.574v0l0,.008L8.107,5.57l.012,0M9.174,7.532a.39.39,0,1,1-.388.392.39.39,0,0,1,.388-.392m1.761,0a.39.39,0,1,1-.39.39.39.39,0,0,1,.39-.39m1.765,0a.39.39,0,1,1-.39.39.39.39,0,0,1,.39-.39m-5.288,0a.394.394,0,0,1,.392.392.377.377,0,0,1-.118.275l-.094.063.047.345a9.727,9.727,0,0,0,3.311.777,9.75,9.75,0,0,0,3.314-.777l.043-.329L14.187,8.2a.389.389,0,0,1-.114-.275.393.393,0,0,1,.388-.392l.031.008,1-4.013c-.6.337-1.043.5-1.267.989a.937.937,0,0,0,.043.938v.016l-.008-.008A.936.936,0,0,0,14,5.276a1.743,1.743,0,0,0-1.1-.051,1.646,1.646,0,0,0,.624.9.827.827,0,0,0,.443.145l.1-.023-.165.631A3.137,3.137,0,0,1,11.359,6.6l.008-1.036.051.031a.361.361,0,0,0,.141.035.869.869,0,0,0,.451-.145,1.709,1.709,0,0,0,.623-.9,1.78,1.78,0,0,0-1.106.051l-.1.059.094-.11a.855.855,0,0,0,.094-.537,2.427,2.427,0,0,0-.663-1.306,2.488,2.488,0,0,0-.667,1.306.883.883,0,0,0,.1.537l.094.11-.1-.059a1.779,1.779,0,0,0-1.106-.051,1.718,1.718,0,0,0,.628.9.657.657,0,0,0,.592.11l.047-.031L10.543,6.6A3.136,3.136,0,0,1,8,6.877L7.84,6.245l.1.023a.815.815,0,0,0,.443-.145,1.674,1.674,0,0,0,.628-.9,1.74,1.74,0,0,0-1.1.051.966.966,0,0,0-.263.185l-.008.012,0-.02a.948.948,0,0,0,.047-.938c-.224-.49-.667-.651-1.271-.989l1,4.005Z" transform="translate(2.532 0)" fill="#343333"/><path d="M16.433,10.166a1.955,1.955,0,0,1,.239.027,1.84,1.84,0,0,1,.267.079,1.191,1.191,0,0,1,.125.063.582.582,0,0,1,.118.075.513.513,0,0,1,.094.09.736.736,0,0,1,.067.1.33.33,0,0,1,.035.09.2.2,0,0,1,.016.075c0,.039,0,.063,0,.063l-.02-.059a.3.3,0,0,0-.028-.067.863.863,0,0,0-.051-.075c-.024-.023-.043-.055-.071-.078s-.059-.051-.094-.075-.071-.043-.11-.063a1.176,1.176,0,0,0-.122-.055,2.085,2.085,0,0,0-.251-.082,2.262,2.262,0,0,0-.227-.055c-.133-.031-.227-.047-.227-.047a1.444,1.444,0,0,1,.235,0m-1.338.294c-.024-.067-.055-.137-.086-.216s-.075-.161-.122-.235a1.062,1.062,0,0,0-.071-.114c-.023-.035-.055-.067-.078-.1a.889.889,0,0,0-.086-.082c-.031-.023-.063-.039-.09-.059s-.059-.028-.082-.039a.239.239,0,0,0-.067-.016.539.539,0,0,1-.063-.016s.02,0,.063,0a.5.5,0,0,1,.075,0c.028.008.063.012.1.023a.637.637,0,0,1,.1.051.509.509,0,0,1,.106.082.574.574,0,0,1,.09.1,1.241,1.241,0,0,1,.082.118,1.743,1.743,0,0,1,.114.251,1.883,1.883,0,0,1,.063.231,1.461,1.461,0,0,1,.028.216c-.012-.031-.035-.1-.075-.2m.259.059A1.706,1.706,0,0,0,15,9.613a1.517,1.517,0,0,0-1.243-.53,1.122,1.122,0,0,1,.22.345.515.515,0,0,0-.373.314c.129-.094.325.106.325.106-.3.392-.078.584-.078.584a.611.611,0,0,1,1.024.09c.632,1-1.2,1.456-1.2,1.456-.047.059.679.31,1.33-.467.024.231.114.369.137.341,0,0,.18-1.883,1.263-1.4a.608.608,0,0,1,.239,1s.22.192.565-.165c0,0,.228.165.153.31a.513.513,0,0,0,.255-.416,1.139,1.139,0,0,1,.376.169,1.514,1.514,0,0,0-.71-1.153,1.473,1.473,0,0,0-1.781.177c-.051.051-.1.1-.141.153" transform="translate(5.613 2.716)" fill="#343333"/><path d="M5,10.258l.22-.274c.035-.047.07-.094.11-.141.012-.023.023-.051.039-.078.031-.063.071-.137.106-.22s.07-.173.1-.263c.012-.043.031-.09.043-.133s.023-.09.031-.133.02-.086.024-.126.012-.078.012-.118a.807.807,0,0,1,0-.1c0-.028,0-.051,0-.075a.461.461,0,0,0,0-.067l.019.063a.77.77,0,0,1,.035.177c0,.039,0,.079,0,.122a.809.809,0,0,1-.008.133,1.6,1.6,0,0,1-.071.286c-.023.063-.051.126-.078.184.035-.051.075-.1.106-.153a3.086,3.086,0,0,0,.169-.3,1.14,1.14,0,0,0,.055-.126.434.434,0,0,0,.031-.1c.016-.055.023-.09.023-.09v.094a.634.634,0,0,1-.012.11.656.656,0,0,1-.035.137,1.7,1.7,0,0,1-.059.161,1.4,1.4,0,0,1-.086.169,2.806,2.806,0,0,1-.22.341c-.082.11-.169.216-.255.31a3.066,3.066,0,0,1-.247.251,2.459,2.459,0,0,1-.188.165.693.693,0,0,1-.07.055c.019-.023.1-.121.208-.263m1.055-2.73a.351.351,0,0,0-.043-.063.919.919,0,0,0-.1-.118c-.035-.039-.075-.071-.11-.11s-.079-.067-.118-.094A2.38,2.38,0,0,0,5.465,7a1.717,1.717,0,0,0-.239-.122,1.28,1.28,0,0,1,.259.075,1.705,1.705,0,0,1,.247.13c.043.027.086.063.129.094a1.046,1.046,0,0,1,.118.114,1.057,1.057,0,0,1,.106.126c.016.024.031.047.043.067a.625.625,0,0,0,.039.071,1.232,1.232,0,0,1,.055.137c.008.023.016.043.023.067l.012.063a.566.566,0,0,1,.016.11v.086a.377.377,0,0,1,0,.075.755.755,0,0,0-.016-.075c0-.023-.012-.051-.016-.082s-.023-.063-.035-.1a.572.572,0,0,0-.047-.118A.606.606,0,0,0,6.1,7.591a.346.346,0,0,0-.039-.063M3.849,9.67c.592.1.553,1.463.553,1.463a3.289,3.289,0,0,0,.2-.376A3.8,3.8,0,0,0,6.383,8.779l0,0c.259-.29.78-.784,1.149-.577a.624.624,0,0,0-.361-.243A.63.63,0,0,0,7.7,7.74a.9.9,0,0,0-1.228.388,2.36,2.36,0,0,0-.07-.479c-.424-1.671-1.746-.91-1.875-.678s.035.223.035.223a.538.538,0,0,1,.483-.223c-.161.075.02.231.02.231a1.255,1.255,0,0,1,1.032,1.24c-.314-.679-.714-.6-.714-.6a1.043,1.043,0,0,1-.039.953c-.082-.18-.326,0-.326,0,.432.463-.18,1.565-.376,1.891C5.151,9.43,4.018,9.2,4.018,9.2a.631.631,0,0,0,.267.494.677.677,0,0,0-.435-.028" transform="translate(1.435 1.651)" fill="#343333"/><path d="M14.074,8.014V7.928a.586.586,0,0,1,.016-.11l.012-.063.024-.067a1.226,1.226,0,0,1,.055-.137.678.678,0,0,0,.039-.071c.012-.02.028-.043.043-.067a1.033,1.033,0,0,1,.106-.126,1.072,1.072,0,0,1,.118-.114c.043-.031.086-.067.129-.094a1.662,1.662,0,0,1,.247-.13,1.263,1.263,0,0,1,.259-.075A1.738,1.738,0,0,0,14.882,7a2.394,2.394,0,0,0-.224.145c-.039.028-.075.067-.118.094s-.075.071-.11.11a.92.92,0,0,0-.1.118.376.376,0,0,0-.043.063.357.357,0,0,0-.039.063.588.588,0,0,0-.063.122.566.566,0,0,0-.047.118c-.012.039-.028.071-.035.1s-.012.059-.016.082c-.012.047-.016.075-.016.075a.379.379,0,0,1,0-.075m.306.714s.008.035.023.09a.426.426,0,0,0,.031.1,1.1,1.1,0,0,0,.055.126,3.031,3.031,0,0,0,.169.3c.031.051.071.1.106.153-.028-.059-.055-.121-.078-.184a1.6,1.6,0,0,1-.071-.286.8.8,0,0,1-.008-.133c0-.043,0-.082,0-.121a.784.784,0,0,1,.035-.177l.02-.063a.465.465,0,0,0,0,.067c0,.024,0,.047,0,.075a.807.807,0,0,1,0,.1c0,.039.012.075.012.118s.016.082.023.126.024.086.031.133.031.09.043.133c.031.09.067.18.1.263s.075.157.106.219c.016.028.028.055.039.079.039.047.075.094.11.141.082.1.153.192.22.275.11.141.188.239.208.263a.733.733,0,0,1-.07-.055,2.412,2.412,0,0,1-.188-.165,3.021,3.021,0,0,1-.247-.251c-.086-.094-.173-.2-.255-.31a2.732,2.732,0,0,1-.22-.341,1.392,1.392,0,0,1-.086-.169,1.6,1.6,0,0,1-.059-.161.628.628,0,0,1-.035-.137.61.61,0,0,1-.012-.11Zm-1.208-.773a.623.623,0,0,0-.361.243c.369-.208.89.286,1.149.577l0,0a3.8,3.8,0,0,0,1.781,1.977,3.252,3.252,0,0,0,.2.376s-.039-1.361.553-1.463a.679.679,0,0,0-.436.027.63.63,0,0,0,.267-.494s-1.134.227-.62,1.475c-.2-.326-.808-1.428-.376-1.891,0,0-.243-.177-.326,0a1.044,1.044,0,0,1-.039-.954s-.4-.074-.714.6A1.254,1.254,0,0,1,15.286,7.2s.18-.157.02-.231a.539.539,0,0,1,.483.224s.169.012.035-.224-1.451-.993-1.875.679a2.36,2.36,0,0,0-.071.479A.9.9,0,0,0,12.65,7.74a.631.631,0,0,0,.522.216" transform="translate(5.206 1.651)" fill="#343333"/><path d="M3.167,10.763a.3.3,0,0,1,.012-.075c.012-.027.02-.059.035-.09a.786.786,0,0,1,.07-.1.531.531,0,0,1,.094-.09.71.71,0,0,1,.114-.075c.043-.023.086-.043.129-.063a1.837,1.837,0,0,1,.267-.078,1.911,1.911,0,0,1,.239-.028,1.383,1.383,0,0,1,.231,0s-.09.016-.224.047a2.107,2.107,0,0,0-.228.055,2.039,2.039,0,0,0-.251.082,1.121,1.121,0,0,0-.122.055c-.039.02-.075.043-.11.063a.978.978,0,0,0-.094.075c-.028.023-.051.055-.075.078s-.031.051-.047.075a.312.312,0,0,0-.027.067.488.488,0,0,1-.023.059s0-.023.008-.063m2.185-.318a1.987,1.987,0,0,1,.063-.231,1.79,1.79,0,0,1,.118-.251,1.174,1.174,0,0,1,.078-.118.769.769,0,0,1,.094-.1.491.491,0,0,1,.1-.082.9.9,0,0,1,.106-.051c.035-.012.067-.016.094-.023a.524.524,0,0,1,.075,0c.043,0,.067,0,.067,0a.592.592,0,0,1-.063.016.287.287,0,0,0-.071.016l-.082.039c-.027.02-.059.035-.086.059A.582.582,0,0,0,5.76,9.8a.939.939,0,0,0-.078.1,1.116,1.116,0,0,0-.075.114,1.9,1.9,0,0,0-.118.235c-.035.079-.063.149-.09.216-.039.106-.067.18-.079.208a2.168,2.168,0,0,1,.031-.224m-2.4.73a.5.5,0,0,0,.251.416c-.071-.145.157-.31.157-.31.342.357.565.165.565.165a.608.608,0,0,1,.239-1c.506-.224.816.07,1,.443l0,.012a1.349,1.349,0,0,0,.126.318,3.46,3.46,0,0,1,.13.632c.023.023.1-.082.129-.275.635.7,1.322.459,1.275.4,0,0-1.142-.283-1.31-.89l-.012-.039a.674.674,0,0,1,.118-.525.608.608,0,0,1,1.02-.09s.224-.192-.079-.584c0,0,.2-.2.326-.106a.506.506,0,0,0-.369-.314,1.122,1.122,0,0,1,.22-.345,1.513,1.513,0,0,0-1.243.53,1.7,1.7,0,0,0-.357.839.513.513,0,0,0-.079-.086,1.472,1.472,0,0,0-1.781-.177,1.515,1.515,0,0,0-.71,1.153,1.142,1.142,0,0,1,.377-.169" transform="translate(0.889 2.716)" fill="#343333"/><path d="M11.717,10.866l.029-.023a.215.215,0,0,0,.067-.156v0a.213.213,0,0,0-.09-.17.1.1,0,0,1,.08-.037.1.1,0,0,1,.043.01l.013.007a.4.4,0,0,0,.348.007.338.338,0,0,0,.045-.025h0a.173.173,0,0,0,.071-.1.178.178,0,0,0,.005-.042l0-.02-.006-.029a.152.152,0,0,1-.071.051l-.031.007a.99.99,0,0,1-.2.02h-.031c-.031,0-.062,0-.093-.007a.5.5,0,0,0,.431-.248h0a.5.5,0,0,0,.068-.252V9.839a.049.049,0,0,0-.017-.034h0a.244.244,0,0,0-.148-.05h-.01a.181.181,0,0,1,.046-.006l.035,0h0l.029,0,.033,0,.008,0,.012,0h0a.049.049,0,0,0,.018-.079l-.012-.01c-.017-.013-.034-.026-.051-.037a.671.671,0,0,0-.187-.087c-.02-.006-.041-.011-.063-.015l-.027,0-.036,0c-.022,0-.044,0-.066,0a.719.719,0,0,0-.077,0h-.007a.022.022,0,0,0-.016.022l0,.014,0,0a.21.21,0,0,1,.042.062v0a.012.012,0,0,1-.011.011h0a.162.162,0,0,1-.09-.032h0a.321.321,0,0,0-.087-.048l-.034-.01a.322.322,0,0,0-.075-.009l-.013,0a.032.032,0,0,1,0-.06l.012,0a.8.8,0,0,1,.082-.008h.048a.759.759,0,0,1,.1.007h0l.037,0a.269.269,0,0,0,.1-.019.027.027,0,0,0,.017-.025l0-.015L11.979,9.4a.489.489,0,0,0-.068-.047.522.522,0,0,0-.262-.07h-.027a.5.5,0,0,0-.07.008.108.108,0,0,0-.023-.151.4.4,0,0,0-.177-.074.391.391,0,0,0-.062,0h-.072c-.042,0-.083,0-.124,0a1.882,1.882,0,0,0-1.241.58.786.786,0,0,1,.331-.073l.061,0a.767.767,0,0,0-.47.547.411.411,0,0,1,.2-.051.427.427,0,0,1,.065.005.844.844,0,0,0-.247.446.854.854,0,0,0-.016.166v0l.073-.036a1.593,1.593,0,0,1,.534-.142c.046,0,.094-.006.141-.006a.743.743,0,0,1,.228.036l.034.012a.157.157,0,0,1,.071.216h0a.665.665,0,0,1-.3.285.779.779,0,0,1-.121.052,2.151,2.151,0,0,0,.267.017,2.123,2.123,0,0,0,.539-.069c.053-.014.1-.029.155-.047h0a2.1,2.1,0,0,0,.2-.083c.025-.012.1-.049.112-.057" transform="translate(3.974 2.707)" fill="#343333"/><path d="M12.829,9.669l-.008-.007,0,0c-.016-.013-.034-.026-.051-.038A.694.694,0,0,0,12.6,9.54l-.018-.006c-.021-.006-.042-.011-.063-.015l-.027,0-.036,0c-.022,0-.044,0-.066,0a.711.711,0,0,0-.077,0H12.3l-.01.006-.006.016,0,.013,0,0a.21.21,0,0,1,.042.062v0l0,.007-.008,0h0l-.018,0a.162.162,0,0,1-.065-.025L12.234,9.6h0a.321.321,0,0,0-.087-.047l-.034-.01a.32.32,0,0,0-.065-.009h-.009l-.013,0a.031.031,0,0,1-.015-.014l0-.015a.032.032,0,0,1,.021-.03l.012,0a.736.736,0,0,1,.082-.008h.048a.868.868,0,0,1,.1.007h0l.037,0a.269.269,0,0,0,.1-.019.026.026,0,0,0,.017-.025l0-.011,0,0h0l-.01-.009-.033-.025-.035-.022a.518.518,0,0,0-.075-.035.524.524,0,0,0-.145-.033l-.042,0h-.027a.54.54,0,0,0-.07.008A.109.109,0,0,0,12,9.231V9.226a.108.108,0,0,0-.044-.087.4.4,0,0,0-.177-.074.422.422,0,0,0-.062,0h-.072c-.042,0-.083,0-.124,0a1.849,1.849,0,0,0-.238.031l.005.014a.1.1,0,0,1-.013.069c.04.011.08.024.113.037.135.051.2.1.221.173l.025.01a.475.475,0,0,1,.05.02,3.154,3.154,0,0,1,.289.155l.011.008c.045.032.1.048.055.2s-.019.3-.115.426l.013.062a.362.362,0,0,1-.048.255.317.317,0,0,1-.207.132l-.007,0-.039.007a.673.673,0,0,1-.1.008.487.487,0,0,1-.115-.013.269.269,0,0,1,0,.056c-.018.148-.155.283-.4.391l-.035.015c.046,0,.093,0,.139,0a2.137,2.137,0,0,0,.539-.069q.079-.021.155-.047h0a2.131,2.131,0,0,0,.2-.083l.033-.016c.014-.007.067-.033.079-.041l.029-.023a.215.215,0,0,0,.067-.156v0a.214.214,0,0,0-.087-.168l0,0a.1.1,0,0,1,.08-.037.1.1,0,0,1,.043.009l.013.007a.394.394,0,0,0,.348.008.441.441,0,0,0,.045-.025h0a.171.171,0,0,0,.071-.1l0-.018,0-.024V10.3l0-.012h0l0-.01a.151.151,0,0,1-.071.05l-.031.007a.971.971,0,0,1-.2.021h-.031l-.031,0-.062-.006a.5.5,0,0,0,.091-.008.513.513,0,0,0,.119-.038.5.5,0,0,0,.222-.2h0a.5.5,0,0,0,.059-.156.505.505,0,0,0,.009-.1V9.839a.052.052,0,0,0-.017-.034h0l0,0-.007,0a.243.243,0,0,0-.1-.04l-.039,0h-.01a.185.185,0,0,1,.046-.006.188.188,0,0,1,.035,0h0l.029,0,.033,0,.008,0,.012,0h0a.049.049,0,0,0,.025-.07l-.006-.009" transform="translate(4.496 2.707)" fill="#343333"/><path d="M11.438,20.856S11.011,20,8.191,19.048c0,0-3.884-1.4-2.032-4.406,0,0,1.765-3.106.357-5.26l1.6-1.624a9.649,9.649,0,0,0,3.326.937,10.708,10.708,0,0,0,3.4-.879l1.522,1.566c-1.409,2.154.357,5.26.357,5.26,1.856,3.009-2.032,4.406-2.032,4.406-2.816.949-3.248,1.808-3.248,1.808m2.036-.055a1.568,1.568,0,0,1,.2.133,1.857,1.857,0,0,1,.2.188,1.221,1.221,0,0,1,.086.114.613.613,0,0,1,.067.122.647.647,0,0,1,.047.121.576.576,0,0,1,.015.118c0,.035-.007.067-.007.1a.306.306,0,0,1-.023.07l-.024.059s0-.023.008-.063a.193.193,0,0,0,0-.07c0-.027,0-.059-.008-.09s-.016-.067-.027-.1a.839.839,0,0,0-.051-.106.974.974,0,0,0-.071-.11c-.023-.035-.055-.067-.082-.1-.059-.067-.126-.129-.188-.188s-.126-.106-.176-.149c-.094-.079-.161-.13-.18-.142a.968.968,0,0,1,.208.1m.839.251c.02-.04.047-.1.083-.165a2.371,2.371,0,0,1,.133-.219c.051-.079.11-.161.173-.24a2.084,2.084,0,0,1,.2-.219,1.133,1.133,0,0,1,.1-.09.572.572,0,0,1,.1-.071A1,1,0,0,1,15.2,20a.316.316,0,0,1,.075-.028c.038-.01.06-.018.065-.019s-.027.018-.058.035a.255.255,0,0,0-.066.043.658.658,0,0,0-.079.059,2.382,2.382,0,0,0-.18.177c-.027.031-.059.067-.086.1a1.035,1.035,0,0,1,.118-.09,1.272,1.272,0,0,1,.185-.1c.035-.012.063-.023.094-.031a.789.789,0,0,1,.087-.02.591.591,0,0,1,.129-.011.3.3,0,0,1,.051,0l-.051.008-.051.012c-.024.008-.043.016-.071.024s-.051.02-.079.031a.4.4,0,0,0-.082.04c-.031.012-.059.031-.09.047s-.059.035-.086.055c-.059.039-.114.078-.165.118s-.1.082-.137.118a.254.254,0,0,0-.047.043c-.028.035-.055.071-.082.1l-.149.2a2.283,2.283,0,0,1-.149.192l.023-.055M15.785,19.6c.016,0,.039-.008.063-.012a.476.476,0,0,1,.078-.012.233.233,0,0,0,.047,0,.241.241,0,0,0,.051,0,1,1,0,0,1,.106.016l.059.012a.26.26,0,0,0,.055.019c.035.016.07.031.11.051s.067.043.1.063a.809.809,0,0,1,.086.075.792.792,0,0,1,.137.149.679.679,0,0,1,.1.168,1.54,1.54,0,0,0-.129-.144,1.675,1.675,0,0,0-.145-.13c-.027-.023-.059-.043-.086-.067s-.063-.043-.1-.059-.067-.035-.1-.047c-.016-.008-.035-.012-.051-.02s-.035-.012-.051-.016a.483.483,0,0,0-.1-.019.363.363,0,0,0-.09-.012c-.028,0-.055,0-.078,0h-.059l-.055,0a.372.372,0,0,1,.051-.016M9.673,20.845c-.055.043-.117.094-.18.149a2.186,2.186,0,0,0-.185.188c-.031.035-.059.066-.086.1a.658.658,0,0,0-.067.11A.53.53,0,0,0,9.1,21.5c-.016.035-.019.071-.032.1s0,.063-.008.09a.386.386,0,0,0,0,.07.1.1,0,0,1,0,.047.14.14,0,0,1-.019-.043.3.3,0,0,1-.02-.07.878.878,0,0,1-.011-.1c0-.035.008-.079.015-.118a.631.631,0,0,1,.048-.121.573.573,0,0,1,.067-.122,1.315,1.315,0,0,1,.09-.114,1.755,1.755,0,0,1,.2-.188,1.95,1.95,0,0,1,.2-.133.969.969,0,0,1,.208-.1,1.982,1.982,0,0,0-.177.142m-1.074.07c-.047-.059-.1-.129-.153-.2-.028-.031-.051-.067-.079-.1-.016-.016-.031-.028-.047-.043-.043-.035-.087-.075-.138-.118s-.11-.079-.165-.118c-.031-.019-.059-.039-.09-.055a.625.625,0,0,0-.087-.047.532.532,0,0,0-.086-.039.69.69,0,0,0-.078-.031l-.067-.023-.055-.012-.047-.008a.221.221,0,0,1,.047,0,.749.749,0,0,1,.216.031.909.909,0,0,1,.094.031,1.427,1.427,0,0,1,.188.1c.039.028.079.059.118.09-.031-.035-.059-.071-.09-.1a1.891,1.891,0,0,0-.18-.176.364.364,0,0,0-.078-.059.262.262,0,0,0-.063-.043A.585.585,0,0,1,7.7,19.95l.07.02A.607.607,0,0,1,7.841,20c.028.016.059.031.09.051a.756.756,0,0,1,.1.07c.035.028.071.059.106.09a2.691,2.691,0,0,1,.2.219c.063.079.122.161.173.24s.094.157.13.219.063.126.082.165l.024.055c-.02-.023-.075-.094-.145-.192m-1.35-1.3H7.186c-.023,0-.047,0-.078,0a.389.389,0,0,0-.09.012.443.443,0,0,0-.1.02c-.02,0-.035.012-.051.016s-.035.012-.051.019a.777.777,0,0,0-.1.047.794.794,0,0,0-.1.059c-.031.024-.063.043-.09.067-.055.043-.1.09-.145.129-.063.063-.1.114-.121.133a.894.894,0,0,1,.094-.157.948.948,0,0,1,.137-.149.8.8,0,0,1,.09-.075.834.834,0,0,1,.1-.063.9.9,0,0,1,.11-.051.458.458,0,0,0,.055-.02l.055-.012c.039-.008.075-.012.11-.016a.2.2,0,0,0,.047,0,.211.211,0,0,0,.047,0,.5.5,0,0,1,.082.012l.059.012a.443.443,0,0,1,.055.016s-.02,0-.055,0m10.082-4.947s-1.95-3.028-.392-5.409L14.993,7.248a10.561,10.561,0,0,1-3.5.851,10.526,10.526,0,0,1-3.491-.851L6.061,9.257c1.557,2.381-.393,5.409-.393,5.409-2.047,3.327,2.244,4.868,2.244,4.868a14.292,14.292,0,0,1,2.248.95A1.553,1.553,0,0,0,8.9,21.2a.5.5,0,0,0-.031.071h0c-.141-.518-.624-1.812-1.851-1.824-1.259-.012-.969,1.063-.828,1.2s.165.016.165.016a.38.38,0,0,1-.067-.38c.02.125.165.027.165.027a.911.911,0,0,1,1.067-.494c-.537.094-.561.388-.561.388a.767.767,0,0,1,.667.208c-.141.023-.063.227-.063.227.443-.239,1.185.53,1.3.655a1.457,1.457,0,0,0-.074,1.259,1.069,1.069,0,0,1,.259-.317.513.513,0,0,0,.412.255c-.125-.094,0-.345,0-.345.471.164.581-.106.581-.106a.611.611,0,0,1-.235-1c.667-.816,1.541.369,1.726.635v0c.016.02.023.035.031.043a.247.247,0,0,1,.028-.043v0c.184-.267,1.059-1.451,1.726-.635a.61.61,0,0,1-.231,1s.11.271.577.106c0,0,.13.251,0,.345a.509.509,0,0,0,.412-.255,1.067,1.067,0,0,1,.259.317,1.5,1.5,0,0,0-.1-1.318c.212-.216.851-.809,1.243-.6,0,0,.082-.2-.059-.228a.756.756,0,0,1,.663-.208s-.019-.294-.561-.388a.916.916,0,0,1,1.071.494s.141.1.165-.027a.392.392,0,0,1-.067.381s.02.122.161-.016.435-1.208-.824-1.2c-1.153.011-1.648,1.149-1.824,1.718A1.5,1.5,0,0,0,12.82,20.5a14.6,14.6,0,0,1,2.267-.961s4.291-1.542,2.244-4.868" transform="translate(1.977 1.931)" fill="#343333"/><path d="M16.551,16.691V15.012a2.483,2.483,0,0,1,.173.875,2.031,2.031,0,0,1-.114.67.8.8,0,0,1-.059.133m-.4.64a2.083,2.083,0,0,1-.255.271V13.663c.1.235.192.428.255.557ZM11.3,12.588V8.756h.016A10.451,10.451,0,0,0,14.48,7.92l1.326,1.326a4.255,4.255,0,0,0-.283,3.342Zm4.189,5.347q-.129.094-.259.176V12.682h.259Zm-.663.408q-.147.076-.259.129v-5.79h.259Zm-.659.282c-.09.031-.176.063-.259.09V12.682h.259Zm-.663.243c-.09.035-.176.075-.259.106V12.682H13.5Zm-.663.291c-.09.039-.177.082-.255.121v-6.6h.255Zm-.66.345c-.1.055-.184.11-.259.157V12.682h.259Zm-.663.463a2.869,2.869,0,0,0-.22.22v-7.5h.22ZM11.177,9.083a.561.561,0,0,0-.2-.335,1.792,1.792,0,0,0,.2.008Zm0,.842a.588.588,0,0,0-.263-.314.542.542,0,0,0,.263-.364Zm0,1.008a.61.61,0,0,0-.255-.3.633.633,0,0,0,.255-.3Zm0,1.655H10.82a.527.527,0,0,0,.071-.917.577.577,0,0,0,.286-.322Zm0,7.6a2.4,2.4,0,0,0-.462-.412A9.458,9.458,0,0,0,8.148,18.57a4.133,4.133,0,0,1-2.279-2.013,2.438,2.438,0,0,1,.358-2.146,8.369,8.369,0,0,0,.7-1.73h4.248ZM7.062,12.113a.572.572,0,0,0,.349.474H6.952c.043-.165.078-.322.11-.474m.023-1.8a2.953,2.953,0,0,0-.117-.432.417.417,0,0,1,.138.31.388.388,0,0,1-.02.121m-.243-.742a2.894,2.894,0,0,0-.172-.314l.294-.29a.36.36,0,0,1,.106.259.371.371,0,0,1-.228.345M7.148,9.5a.59.59,0,0,0,.228.231.462.462,0,0,0-.176.173.587.587,0,0,0-.22-.236A.481.481,0,0,0,7.148,9.5m.122-.847a.692.692,0,0,0,.086.063.623.623,0,0,0-.208.22.526.526,0,0,0-.07-.09Zm.4.137a.425.425,0,1,1-.3.124.428.428,0,0,1,.3-.124m.231-.769A.359.359,0,0,1,8,8.265a.37.37,0,0,1-.306.365H7.674a.437.437,0,0,0-.075,0,.382.382,0,0,1-.215-.09Zm.224.388a.608.608,0,0,0,.259.294.5.5,0,0,0-.2.216.618.618,0,0,0-.251-.231.516.516,0,0,0,.189-.278m-.11-.506.047-.043.1.043a.386.386,0,0,0-.059.137.459.459,0,0,0-.086-.133Zm.294.066c.188.083.463.2.78.314a.423.423,0,0,1-.835-.1.443.443,0,0,1,.055-.216m.91.463a.514.514,0,0,0,.2.235.562.562,0,0,0-.286.251.594.594,0,0,0-.185-.208.592.592,0,0,0,.267-.279m.655.106a.324.324,0,0,1-.173.047.374.374,0,0,1-.333-.2c.161.055.333.106.506.157m.2.051c.117.031.239.059.357.078a.514.514,0,0,0-.263.251A.581.581,0,0,0,9.93,8.7a.606.606,0,0,0,.145-.1m.545,1.954a.426.426,0,1,1,.426-.426.426.426,0,0,1-.426.426m0,1.024a.428.428,0,1,1,.424-.428.428.428,0,0,1-.424.428m-.4.537a.369.369,0,1,1,.369.369.369.369,0,0,1-.369-.369m-.09.255a.464.464,0,0,0,.235.223H9.863a.58.58,0,0,0,.271-.223M9.2,12.047a.424.424,0,1,1,.424.424.424.424,0,0,1-.424-.424m-.106.275a.608.608,0,0,0,.294.267H8.839a.506.506,0,0,0,.259-.267m-.851-.212a.369.369,0,1,1,.369.369.369.369,0,0,1-.369-.369m-.1.255a.515.515,0,0,0,.243.223H7.886a.542.542,0,0,0,.263-.223m-.5-.746a.425.425,0,1,1-.3.125.426.426,0,0,1,.3-.125m-.491-.392a.527.527,0,0,0,.216.291.618.618,0,0,0-.263.275,4.886,4.886,0,0,0,.047-.565m.22-.588a.584.584,0,0,0-.224.306,2.78,2.78,0,0,0-.028-.369A.507.507,0,0,0,7.2,10.47a.491.491,0,0,0,.18.169m.639-.451a.366.366,0,0,1-.322.365l-.023,0a.214.214,0,0,0-.051.007.371.371,0,1,1,.4-.368M8.364,9.6a.592.592,0,0,0-.275.294.5.5,0,0,0-.141-.145.592.592,0,0,0,.275-.294.562.562,0,0,0,.141.145m.3-.071a.371.371,0,1,1,.365-.369.371.371,0,0,1-.365.369m.687.208a.485.485,0,0,0-.165.157.582.582,0,0,0-.251-.282A.485.485,0,0,0,9.1,9.454a.643.643,0,0,0,.251.282m.3-.086a.428.428,0,1,1,.428-.428.428.428,0,0,1-.428.428m.416.243a.577.577,0,0,0-.145-.145.578.578,0,0,0,.275-.294.553.553,0,0,0,.141.145.584.584,0,0,0-.271.294m-.145.734a.57.57,0,0,0,.181-.2.6.6,0,0,0,.208.212.612.612,0,0,0-.2.192.552.552,0,0,0-.192-.2m.153.769a.618.618,0,0,0,.239.263.444.444,0,0,0-.149.137.588.588,0,0,0-.243-.263.579.579,0,0,0,.153-.137m-.8-.314a.375.375,0,0,1,.321-.369.057.057,0,0,0,.027,0c.016,0,.032,0,.047,0a.369.369,0,1,1-.4.369m-.082.271a.515.515,0,0,0,.153.165.62.62,0,0,0-.283.325.55.55,0,0,0-.157-.172.6.6,0,0,0,.287-.318m-.985-.208a.425.425,0,1,1,.123.3.424.424,0,0,1-.123-.3M8.1,11.4a.627.627,0,0,0,.243.263.45.45,0,0,0-.149.137.607.607,0,0,0-.243-.263A.511.511,0,0,0,8.1,11.4m-.055-.314a.369.369,0,0,1-.738,0,.375.375,0,0,1,.318-.369.054.054,0,0,0,.027,0c.015,0,.031,0,.047,0a.367.367,0,0,1,.345.369m.294-.447a.582.582,0,0,0-.2.192.55.55,0,0,0-.188-.2.555.555,0,0,0,.176-.2.588.588,0,0,0,.212.212m.3-.086a.422.422,0,1,1,.3-.124.426.426,0,0,1-.3.124m.62-.361a.369.369,0,1,1,.42.365l-.023,0a.222.222,0,0,0-.051.007.372.372,0,0,1-.345-.368m.1.451a.542.542,0,0,0-.188.231.62.62,0,0,0-.228-.235.661.661,0,0,0,.216-.212.511.511,0,0,0,.2.216m1.287-1.852a.371.371,0,1,1-.373.372.371.371,0,0,1,.373-.372m5.66,5.594a8.46,8.46,0,0,1-.714-1.8,3.974,3.974,0,0,1,.286-3.323l.012-.019-1.4-1.392-.02.008a10.325,10.325,0,0,1-3.236.835,3,3,0,0,1-.409-.019c-.082-.008-.161-.02-.243-.035A11.318,11.318,0,0,1,8.074,7.8l-.02-.011L6.588,9.246l.015.019a4.183,4.183,0,0,1,.287,3.318,8.721,8.721,0,0,1-.718,1.8,2.513,2.513,0,0,0-.365,2.2,4.172,4.172,0,0,0,2.322,2.047,9.812,9.812,0,0,1,2.542,1.193,1.828,1.828,0,0,1,.537.518l.031.059.028-.059a1.9,1.9,0,0,1,.542-.518,9.677,9.677,0,0,1,2.542-1.193,4.181,4.181,0,0,0,2.318-2.047,2.5,2.5,0,0,0-.365-2.2" transform="translate(2.227 2.162)" fill="#343333"/><path d="M8.751,13.017l.119.27.119-.27.294.033-.174-.239.174-.239-.294.031-.119-.27-.119.27-.294-.031.176.239-.176.239Z" transform="translate(3.41 4.11)" fill="#343333"/><path d="M7.849,14.988l.12.27.119-.27.293.033-.174-.239.174-.239-.293.033-.119-.27-.12.27-.293-.033.174.239-.174.239Z" transform="translate(3.023 4.955)" fill="#343333"/><path d="M9.009,13.373l-.294-.033.176.239-.176.239.294-.033.119.27.12-.27.293.033-.174-.239.174-.239-.293.033-.12-.27Z" transform="translate(3.52 4.439)" fill="#343333"/><path d="M7.849,12.582l.12.27.119-.27.293.031-.174-.239.174-.239-.293.033-.119-.27-.12.27-.293-.033.174.239-.174.239Z" transform="translate(3.023 3.924)" fill="#343333"/><path d="M8.72,14.591l.12.27.119-.27.293.033-.174-.239.174-.239-.293.033-.119-.27-.12.27-.293-.033.174.239-.174.239Z" transform="translate(3.397 4.785)" fill="#343333"/><path d="M7.175,14.18l-.119-.27-.12.27-.293-.033.174.239-.174.239.293-.033.12.27.119-.27.293.033-.174-.239.174-.239Z" transform="translate(2.633 4.785)" fill="#343333"/><path d="M6.963,12.977l.119.27.119-.27.294.033-.174-.239.174-.239-.294.033-.119-.27-.119.27-.294-.033.174.239-.174.239Z" transform="translate(2.643 4.094)" fill="#343333"/><path d="M6.352,13.34l.174.239-.174.239.293-.033.12.27.119-.27.294.033L7,13.579l.176-.239-.294.033-.119-.27-.12.27Z" transform="translate(2.508 4.439)" fill="#343333"/><path d="M29.979,6.44h0A2.166,2.166,0,0,1,32.1,8.654V19.5H29.979Z" transform="translate(12.632 1.585)" fill="#343333"/><path d="M55.334,6.44h0a2.161,2.161,0,0,1,2.112,2.209V19.5H55.334Z" transform="translate(23.496 1.585)" fill="#343333"/><path d="M33.921,6.985a1.24,1.24,0,1,1-1.3,1.222,1.271,1.271,0,0,1,1.3-1.222m-1.016,4.043h2.067v8.258H32.905Z" transform="translate(13.762 1.818)" fill="#343333"/><path d="M65.383,17.75h-.611A1.277,1.277,0,0,1,63.5,16.474h-.018a2.488,2.488,0,0,1-2.435,1.475,2.778,2.778,0,0,1-2.9-3.146V9.815h1.991v4.044c0,.9.068,2.336,1.456,2.336a1.782,1.782,0,0,0,1.824-2.021V9.815H65.4Z" transform="translate(24.688 3.031)" fill="#343333"/><path d="M64.386,6.478h0A2.026,2.026,0,0,1,66.408,8.5v3.639h.05a3.334,3.334,0,0,1,2.75-1.231,3.969,3.969,0,0,1,3.913,4.251,3.928,3.928,0,0,1-4,4.251A3.115,3.115,0,0,1,66.34,18h-.031v1.213H64.386Zm4.331,6.29a2.431,2.431,0,1,0,2.381,2.48v-.053a2.341,2.341,0,0,0-2.24-2.438c-.044,0-.089,0-.133,0Z" transform="translate(27.375 1.601)" fill="#343333"/><path d="M39.7,17.514a1.047,1.047,0,0,1-1.047-1.047v-4.08h1.182V10.347h-1.2V9a2.1,2.1,0,0,0-2.1-2.041v3.384H35.354v2.044h1.182V17.5a2.09,2.09,0,0,0,2.1,2.076l1.182-2.049h-.135Z" transform="translate(14.935 1.807)" fill="#343333"/><path d="M43.439,18.24a4.535,4.535,0,0,1-3.765-2.007,4.581,4.581,0,0,1-.768-2.517,4.15,4.15,0,0,1,.062-.746,4.529,4.529,0,0,1,8.942,0,4.817,4.817,0,0,1,.062.729,4.411,4.411,0,0,1-.126,1.056H40.739l.18.323a2.861,2.861,0,0,0,2.52,1.5h3.509a4.539,4.539,0,0,1-3.5,1.667Zm0-7.4a2.855,2.855,0,0,0-2.74,2.036l-.085.282h5.66l-.085-.282a2.857,2.857,0,0,0-2.745-2.036Z" transform="translate(16.457 2.752)" fill="#343333"/><path d="M56.931,18.76a5.955,5.955,0,0,1-3.438,1.025,6.852,6.852,0,0,1-4.322-1.4l-.04-.028A7.141,7.141,0,0,1,47.7,16.639c-.045-.071-.081-.143-.121-.216a6.99,6.99,0,0,1-.755-3.257,6.349,6.349,0,0,1,6.663-6.685,5.553,5.553,0,0,1,3.257.938L55.655,9.288a3.2,3.2,0,0,0-2.162-.737,4.279,4.279,0,0,0-4.331,4.494,4.332,4.332,0,0,0,4.331,4.69,3.3,3.3,0,0,0,2.292-.938Z" transform="translate(19.845 1.598)" fill="#343333"/><path d="M25.17,8.871v3.168h4.44v2.071H25.17v2.18a1.047,1.047,0,0,0,1.047,1.047h5.248v2.039H24.891a2.094,2.094,0,0,1-1.8-2.039V6.777H29.47A2.058,2.058,0,0,1,31.483,8.83v.04Z" transform="translate(9.681 1.729)" fill="#343333"/></g></svg>
