<svg xmlns="http://www.w3.org/2000/svg" xmlns:xlink="http://www.w3.org/1999/xlink" width="75.053" height="15" viewBox="0 0 75.053 15"><defs><clipPath id="a"><rect width="75.053" height="15" fill="#fff"/></clipPath></defs><g transform="translate(0 0)" clip-path="url(#a)"><path d="M113.649,34.654a2.5,2.5,0,0,1-1.4.4,1.755,1.755,0,0,1-1.928-1.86,1.787,1.787,0,0,1,1.957-1.9,2.442,2.442,0,0,1,1.369.385v-.819a3.507,3.507,0,0,0-1.475-.318,2.594,2.594,0,0,0-2.776,2.689,2.5,2.5,0,0,0,2.747,2.574,3.513,3.513,0,0,0,1.5-.318Zm.785,1.032h.877V33.439h2.468v2.246h.877V30.615h-.877v2.063h-2.468V30.615h-.877Zm5.326,0h.877V30.615h-.877Zm1.97,0h3.181v-.762h-2.3V30.615h-.877Zm3.79-.02.135.01c.376.029.723.048,1.06.048a3.522,3.522,0,0,0,2.3-.6,2.456,2.456,0,0,0,.925-2.034,2.38,2.38,0,0,0-.839-1.937,3.347,3.347,0,0,0-2.2-.569c-.425,0-.762.019-1.244.058l-.145.02Zm.877-4.3c.27-.019.453-.029.656-.029,1.282,0,1.966.626,1.966,1.8a1.78,1.78,0,0,1-.54,1.388,2.139,2.139,0,0,1-1.513.443c-.174,0-.328,0-.569-.019Zm8.059,2.574a1.123,1.123,0,0,1,.762-.781,1.066,1.066,0,0,1,.2.617c0,.781-.674,1.263-1.735,1.263-.858,0-1.417-.376-1.417-.935,0-.52.415-.877,1.186-1.012v-.627c-.646-.067-.964-.289-.964-.675s.376-.626.925-.626a1.909,1.909,0,0,1,1.032.309v-.7a2.414,2.414,0,0,0-1.108-.26c-.954,0-1.648.54-1.648,1.282a1.012,1.012,0,0,0,.964,1c-.829.25-1.253.723-1.253,1.407,0,.945.9,1.59,2.226,1.59,1.475,0,2.516-.819,2.516-1.976a2.007,2.007,0,0,0-.2-.868c.337-.1.646-.163,1.012-.231l.106-.019V32l-.116.029a9.737,9.737,0,0,0-2.226.665,1.786,1.786,0,0,0-1.022,1.244Zm4.058,1.745h.877v-2.13h2.179v-.762h-2.179V31.376h2.265v-.762h-3.142Zm3.039,0h.887l.048-.125c.106-.308.26-.733.51-1.4l.048-.116h2.015l.039.106.212.617c.087.241.174.5.26.79l.039.125h.954l-.087-.241c-.241-.733-.54-1.523-.848-2.362-.309-.82-.53-1.369-.916-2.285l-.068-.183h-1l-.078.174c-.424.925-.675,1.5-.983,2.255-.376.916-.7,1.726-.954,2.43Zm1.764-2.285.067-.183c.029-.077.058-.135.135-.347.058-.145.126-.3.183-.453.087-.2.115-.27.135-.327l.212-.511.058-.144c.077.193.116.279.241.636l.212.578c.067.173.135.376.212.6l.048.154Zm3.736,2.285h.849l.009-.135c.009-.54.068-1.619.1-2.149l.077-1.215v-.308c0-.174,0-.328-.029-.7h.019a6.948,6.948,0,0,0,.54,1.552c.106.279.26.665.511,1.359.183.5.27.752.5,1.388l.067.212h.761l.068-.212c.106-.3.261-.723.434-1.2.27-.752.453-1.234.588-1.552a7.194,7.194,0,0,0,.53-1.552h.019c-.029.386-.029.54-.029.7v.308l.077,1.215c.019.261.038.646.058,1.137.02.453.029.791.038,1.012l.01.135h.867l-.019-.251c-.02-.55-.048-1.012-.077-1.485-.048-.656-.106-1.465-.145-1.928l-.106-1.215-.019-.193h-.713c-.424,0-.463.038-.743.713-.173.414-.453,1.118-.675,1.668a7.125,7.125,0,0,0-.511,1.9,6.227,6.227,0,0,0-.192-.954c-.116-.4-.261-.771-.656-1.774-.241-.6-.424-1.041-.492-1.2a.524.524,0,0,0-.6-.357h-.751l-.02.193c-.106,1.176-.144,1.6-.2,2.449-.068.829-.106,1.465-.135,2.178Zm7.059,0h.877V30.615h-.877Zm1.97,0h3.181v-.762h-2.3V30.615h-.877Zm4.354,0h.877V33.651l.087-.125c.675-.9,1.388-1.928,1.918-2.786l.077-.125h-.983l-.039.067c-.328.549-.983,1.552-1.417,2.15l-.058.087c-.1-.145-.154-.241-.3-.473l-.4-.636c-.184-.3-.434-.713-.675-1.128l-.039-.067H158.45l.087.135a32.336,32.336,0,0,0,1.812,2.786l.087.116Z" transform="translate(-88.342 -24.637)" fill="#fff"/><path d="M193.169,63.992h.373v-.905h.926v-.324h-.926v-.6h.963v-.324h-1.336Zm1.717-1.049a1,1,0,0,0,1.049,1.106,1.035,1.035,0,0,0,1.074-1.143A1,1,0,0,0,195.96,61.8a1.033,1.033,0,0,0-1.073,1.143m.393-.021c0-.508.246-.8.667-.8s.668.3.668.8-.245.807-.668.807-.667-.3-.667-.807m2.233-1.086v1.336a.818.818,0,0,0,.18.618,1.143,1.143,0,0,0,1.417,0,.839.839,0,0,0,.181-.618V61.837h-.373V63.11a.743.743,0,0,1-.077.422.505.505,0,0,1-.438.184.52.52,0,0,1-.414-.156.66.66,0,0,1-.1-.451V61.837Zm2.407,2.155h.348V62.513a2.88,2.88,0,0,0-.045-.43,2.308,2.308,0,0,0,.2.463l.824,1.327c.058.1.1.119.233.119h.32V61.837h-.348v1.475a2.588,2.588,0,0,0,.049.435,2.746,2.746,0,0,0-.2-.467l-.819-1.323c-.057-.1-.1-.119-.233-.119h-.324Zm2.532-.008.058,0c.159.012.307.021.45.021a1.5,1.5,0,0,0,.979-.254,1.044,1.044,0,0,0,.393-.865,1.012,1.012,0,0,0-.356-.823,1.423,1.423,0,0,0-.934-.242c-.18,0-.323.008-.529.024l-.061.008Zm.373-1.827c.115-.008.192-.012.278-.012.545,0,.836.266.836.766a.756.756,0,0,1-.229.59.908.908,0,0,1-.643.189c-.074,0-.139,0-.241-.008Zm1.7,1.836h.377l.021-.053c.045-.131.11-.311.217-.594l.021-.049h.856l.016.045.09.262c.037.1.074.213.111.336l.016.053h.406l-.037-.1c-.1-.311-.229-.647-.36-1s-.226-.581-.389-.971l-.029-.078h-.426l-.033.074c-.18.394-.287.639-.418.959-.16.389-.3.733-.405,1.033Zm.75-.971.028-.078c.013-.033.025-.058.058-.147.024-.062.053-.127.078-.192.037-.086.049-.115.057-.14l.09-.217.024-.062c.033.082.049.119.1.271l.091.245c.028.074.057.16.09.254l.021.066Zm2.048.971h.373V62.16h.721v-.324H206.6v.324h.721Zm1.517,0h.373V61.837h-.373Zm.908-1.049a1,1,0,0,0,1.049,1.106,1.035,1.035,0,0,0,1.073-1.143,1,1,0,0,0-1.048-1.106,1.033,1.033,0,0,0-1.073,1.143m.393-.021c0-.508.246-.8.668-.8s.668.3.668.8-.246.807-.668.807-.668-.3-.668-.807m2.266,1.07h.348V62.513a2.847,2.847,0,0,0-.045-.43,2.274,2.274,0,0,0,.2.463l.823,1.327c.058.1.1.119.233.119h.32V61.837h-.349v1.475a2.614,2.614,0,0,0,.049.435,2.7,2.7,0,0,0-.2-.467l-.819-1.323c-.057-.1-.1-.119-.233-.119H212.4Z" transform="translate(-155.99 -49.906)" fill="#fff"/><path d="M71.32,29c.62-.237.214-.742-.07-.94-.217-.151-.653-.253-.836.087-.289.537.308,1.082.905.853" transform="translate(-56.801 -22.547)" fill="#fff"/><path d="M19.25,6.359c-.06-.244-1.413-.461-1.777-.517a4.075,4.075,0,0,0-.7-.8c-2.093-1.807-4.022-1.488-4.266-1.274a.467.467,0,0,0-.015.407c.05.067,2.657.057,3.583,1.9a2.3,2.3,0,0,1,.2,1.569,1.336,1.336,0,0,1-.425.665,2.156,2.156,0,0,1-.757.409,5,5,0,0,1-1.918.168,7.276,7.276,0,0,1-1.5-.269,6.217,6.217,0,0,1-1.116-.457A10.253,10.253,0,0,0,10.8,5.583a10.889,10.889,0,0,0-.279-2.167,6.659,6.659,0,0,0-.585-1.591A4.083,4.083,0,0,0,8.9.511,2.055,2.055,0,0,0,7.32.018,1.879,1.879,0,0,0,6.027.886a3.778,3.778,0,0,0-.509,1.658,6.644,6.644,0,0,0,.054,1.747A6.258,6.258,0,0,0,6.04,5.88a8.837,8.837,0,0,0,.617,1.113A8.514,8.514,0,0,0,7.768,8.352a11.227,11.227,0,0,0-2.987.557,9.459,9.459,0,0,0-3.09,1.635C.738,11.327-.166,12.483.026,13.6a1.55,1.55,0,0,0,.733,1.058,3.087,3.087,0,0,0,1.825.329,9.066,9.066,0,0,0,3.722-1.292,9.75,9.75,0,0,0,2.569-2.071,7.778,7.778,0,0,0,.958-1.434,8.247,8.247,0,0,1,1.483.529,14.488,14.488,0,0,1,1.382.713,5.207,5.207,0,0,0,.707.473.706.706,0,0,0,.509-.355,2.365,2.365,0,0,0-.508-.761,1.582,1.582,0,0,0-.284-.269c.059,0,.12.008.185.013a5.894,5.894,0,0,0,2.454-.36,4.132,4.132,0,0,0,1.5-.923,2.564,2.564,0,0,0,.749-1.426,2.266,2.266,0,0,0,.021-.412c.514-.275,1.3-.71,1.217-1.05M7.526,4.956a6.5,6.5,0,0,1-.27-.78,7.246,7.246,0,0,1-.3-1.683,2.677,2.677,0,0,1,.077-.831c.056-.2.167-.475.42-.532a.541.541,0,0,1,.317.053,1.114,1.114,0,0,1,.3.23,2.328,2.328,0,0,1,.437.692,5.984,5.984,0,0,1,.407,1.62A11.077,11.077,0,0,1,8.989,5.8,10.237,10.237,0,0,1,8.873,6.9l-.016-.016A7.742,7.742,0,0,1,7.9,5.648a5.333,5.333,0,0,1-.373-.693m-1.2,6.6a12.124,12.124,0,0,1-1.429,1,6.841,6.841,0,0,1-1.881.817,2.721,2.721,0,0,1-.709.086.711.711,0,0,1-.515-.167.623.623,0,0,1,.062-.658,2.755,2.755,0,0,1,.6-.706,6.715,6.715,0,0,1,1.681-1.041,9.9,9.9,0,0,1,3.494-.889l.114,0c-.076.119-.156.237-.241.353a6.51,6.51,0,0,1-1.173,1.214" transform="translate(0 0)" fill="#fff"/></g></svg>