<svg xmlns="http://www.w3.org/2000/svg" width="70.559" height="20" viewBox="0 0 70.559 20"><g transform="translate(-0.014)"><path d="M10.88,19.506a37.285,37.285,0,0,1,.058-4.534c.016-.1.036-.194.058-.288a3.468,3.468,0,0,0,1.809-1.26A2.784,2.784,0,0,0,16.129,9.17c0-.006,0-.012,0-.018A2.784,2.784,0,0,0,12.8,4.9,3.479,3.479,0,0,0,7.22,4.894,2.785,2.785,0,0,0,3.912,9.161a2.784,2.784,0,0,0,3.306,4.27,3.467,3.467,0,0,0,1.906,1.282c.02.088.039.177.054.269a37.006,37.006,0,0,1,.05,4.53,9.534,9.534,0,1,1,1.652-.006M12.157,9.377a3.188,3.188,0,0,1,.862,1.843,12.115,12.115,0,0,0-1.034.911,2.3,2.3,0,0,1-.372-1.255,2.124,2.124,0,0,1,.545-1.5m-.545-1.93a2.3,2.3,0,0,1,.255-1.05c.358.3.742.588,1.136.873a3.31,3.31,0,0,1-.845,1.676,2.135,2.135,0,0,1-.546-1.5m1.4-.754c-.308-.226-.605-.455-.885-.7a2.331,2.331,0,0,1,.521-.478,2.988,2.988,0,0,1,.364,1.173M15.77,8.85a17.083,17.083,0,0,0-2.133-1.7l-.146-.1c0-.021,0-.042,0-.064A3.462,3.462,0,0,0,13.061,5.3,2.315,2.315,0,0,1,15.77,8.85m-2.282,2.6c.19-.148.384-.3.579-.445a19.772,19.772,0,0,0,1.759-1.449,2.313,2.313,0,0,1-2.762,3.47,3.477,3.477,0,0,0,.424-1.576m-.064-3.875a15.936,15.936,0,0,1,2.06,1.657,19.675,19.675,0,0,1-1.7,1.4l-.332.252a3.766,3.766,0,0,0-.859-1.72,3.856,3.856,0,0,0,.833-1.589M12.389,13.2a3,3,0,0,1-1.218.928,4.552,4.552,0,0,1,.789-1.279,2.8,2.8,0,0,0,.43.351m-.112-.7c.219-.222.455-.434.7-.641a3,3,0,0,1-.332.947,2.341,2.341,0,0,1-.37-.306m-1.7-8.477a3.015,3.015,0,0,1,1.809,1.109,2.807,2.807,0,0,0-.61.552,5.168,5.168,0,0,1-1.2-1.661M8.249,5.668a2.806,2.806,0,0,0-.61-.546,3.017,3.017,0,0,1,1.8-1.1A5.155,5.155,0,0,1,8.249,5.668m.175,1.779a2.436,2.436,0,0,1-.694,1.51,2.475,2.475,0,0,1-.722-1.687c.4-.289.791-.579,1.155-.888a2.3,2.3,0,0,1,.262,1.064m0,3.43a2.3,2.3,0,0,1-.346,1.212A12.853,12.853,0,0,0,7,11.156a2.666,2.666,0,0,1,.727-1.788,2.433,2.433,0,0,1,.693,1.509m-1.394.9c.269.221.525.447.762.683a2.33,2.33,0,0,1-.416.351,2.994,2.994,0,0,1-.346-1.034M4.238,9.51a19.179,19.179,0,0,0,1.81,1.5l.48.368a3.486,3.486,0,0,0,.429,1.649A2.313,2.313,0,0,1,4.238,9.513m3.141-4a2.334,2.334,0,0,1,.524.472c-.28.243-.581.474-.891.7a2.989,2.989,0,0,1,.368-1.174M6.528,7.037l-.154.11A17.2,17.2,0,0,0,4.255,8.836,2.314,2.314,0,0,1,6.961,5.3a3.461,3.461,0,0,0-.435,1.682v.058m-.194,3.6A18.9,18.9,0,0,1,4.574,9.184a16.17,16.17,0,0,1,2-1.6,2.869,2.869,0,0,0,.7,1.582,3.129,3.129,0,0,0-.708,1.646l-.231-.176m2.624,3.528A3,3,0,0,1,7.635,13.2a2.814,2.814,0,0,0,.478-.4,4.577,4.577,0,0,1,.844,1.361M10.018,0a10.008,10.008,0,0,0-.626,20l.049,0h.013A.224.224,0,0,0,9.5,20a.069.069,0,0,0,.018-.005l.025-.008.02-.01.019-.01.018-.014.017-.013.014-.016.015-.017a.171.171,0,0,0,.011-.018c0-.006.008-.013.012-.02s0-.013.007-.02a.2.2,0,0,0,.008-.022c0-.008,0-.015,0-.022a.191.191,0,0,0,0-.022v0a40.486,40.486,0,0,0-.047-4.867,4.758,4.758,0,0,0-1.229-2.469,2.767,2.767,0,0,0,.48-1.561,2.705,2.705,0,0,0-.72-1.715,2.7,2.7,0,0,0,.72-1.714,2.763,2.763,0,0,0-.372-1.386A5.493,5.493,0,0,0,9.964,3.967h.085a5.508,5.508,0,0,0,1.458,2.109,2.765,2.765,0,0,0-.364,1.372,2.668,2.668,0,0,0,.571,1.711,2.66,2.66,0,0,0-.572,1.719,2.767,2.767,0,0,0,.514,1.606,4.89,4.89,0,0,0-1.064,1.89.235.235,0,0,0-.037.127c-.032.129-.061.262-.084.4a41.046,41.046,0,0,0-.054,4.872v.006a.112.112,0,0,0,0,.019.227.227,0,0,0,0,.024c0,.007,0,.014.007.02a.2.2,0,0,0,.009.022l.014.017a.177.177,0,0,0,.013.021l.012.014.018.019.014.011.022.016.015.008.025.011.017.005.026.006.021,0,.018,0h.015l.122-.009A10.008,10.008,0,0,0,10.018,0" fill="#fff"/><path d="M114.777,25.922v6.867h-1.16l-3.5-5.02v5.02h-1.1V25.922h1.159l3.5,4.973V25.922Z" transform="translate(-78.483 -18.664)" fill="#fff"/><path d="M139.185,31.739v1.05h-4.539V25.922h4.43v1.05h-3.325V28.7h3.109v1.051h-3.109v1.985Z" transform="translate(-96.937 -18.664)" fill="#fff"/><path d="M157.374,30.448a1.869,1.869,0,0,1-.212.89,2.033,2.033,0,0,1-.551.657,2.492,2.492,0,0,1-.746.4,2.61,2.61,0,0,1-.829.14,3.113,3.113,0,0,1-1.207-.24,2.378,2.378,0,0,1-1-.806L152.7,31.3l.987-.7.125.214a1.324,1.324,0,0,0,.5.484,1.517,1.517,0,0,0,.763.183,1.407,1.407,0,0,0,.42-.067,1.194,1.194,0,0,0,.368-.19,1,1,0,0,0,.263-.3.747.747,0,0,0,.1-.384.82.82,0,0,0-.1-.438.968.968,0,0,0-.3-.3,2.026,2.026,0,0,0-.476-.224c-.2-.065-.4-.132-.6-.2s-.428-.148-.628-.234a2.335,2.335,0,0,1-.582-.358,1.674,1.674,0,0,1-.429-.564,1.924,1.924,0,0,1-.163-.836,1.957,1.957,0,0,1,.2-.91,1.9,1.9,0,0,1,.533-.647,2.255,2.255,0,0,1,.742-.374,3.05,3.05,0,0,1,1.893.07,2.352,2.352,0,0,1,.913.669l.158.18-.952.739-.135-.2a1.186,1.186,0,0,0-1.054-.526,1.648,1.648,0,0,0-.438.059,1.159,1.159,0,0,0-.368.175.806.806,0,0,0-.246.285.9.9,0,0,0-.092.414.678.678,0,0,0,.177.513,1.71,1.71,0,0,0,.538.348,6.648,6.648,0,0,0,.766.267,3.874,3.874,0,0,1,.842.346,2.134,2.134,0,0,1,.68.6,1.753,1.753,0,0,1,.288,1.048" transform="translate(-109.934 -18.244)" fill="#fff"/><path d="M177.337,31.739v1.05H172.8V25.922h4.43v1.05H173.9V28.7h3.109v1.051H173.9v1.985Z" transform="translate(-124.407 -18.664)" fill="#fff"/><path d="M220.352,30.45a1.869,1.869,0,0,1-.212.89,2.026,2.026,0,0,1-.551.657,2.492,2.492,0,0,1-.746.4,2.6,2.6,0,0,1-.829.14,3.124,3.124,0,0,1-1.207-.24,2.366,2.366,0,0,1-1-.806l-.135-.185.986-.7.125.214a1.337,1.337,0,0,0,.5.484,1.521,1.521,0,0,0,.763.183,1.407,1.407,0,0,0,.42-.067,1.206,1.206,0,0,0,.369-.19,1.036,1.036,0,0,0,.263-.3.75.75,0,0,0,.094-.384.82.82,0,0,0-.1-.438.98.98,0,0,0-.3-.3,2.081,2.081,0,0,0-.476-.224c-.2-.065-.4-.132-.6-.2s-.428-.148-.628-.234a2.3,2.3,0,0,1-.582-.358,1.657,1.657,0,0,1-.431-.564,1.945,1.945,0,0,1-.163-.836,1.978,1.978,0,0,1,.2-.91,1.9,1.9,0,0,1,.535-.647,2.247,2.247,0,0,1,.74-.374,3.054,3.054,0,0,1,1.894.07,2.372,2.372,0,0,1,.913.67l.158.18-.952.739-.137-.2a1.186,1.186,0,0,0-1.054-.526,1.648,1.648,0,0,0-.438.059,1.159,1.159,0,0,0-.368.175.816.816,0,0,0-.244.285.868.868,0,0,0-.092.414.683.683,0,0,0,.176.513,1.73,1.73,0,0,0,.538.348,6.555,6.555,0,0,0,.766.267,3.874,3.874,0,0,1,.842.346,2.128,2.128,0,0,1,.679.6,1.753,1.753,0,0,1,.288,1.048" transform="translate(-155.28 -18.246)" fill="#fff"/><path d="M235.809,25.923V32.79h4.539V31.74h-3.434V29.755h3.109V28.7h-3.109V26.973h3.325v-1.05Z" transform="translate(-169.776 -18.665)" fill="#fff"/><path d="M83.46,31.479a2.38,2.38,0,0,1-1.008-.206,2.288,2.288,0,0,1-.756-.552,2.447,2.447,0,0,1-.476-.809,2.951,2.951,0,0,1,0-1.958,2.447,2.447,0,0,1,.476-.809,2.288,2.288,0,0,1,.756-.552,2.574,2.574,0,0,1,2.02,0,2.289,2.289,0,0,1,.756.552,2.476,2.476,0,0,1,.476.809,2.951,2.951,0,0,1,0,1.958,2.476,2.476,0,0,1-.476.809,2.289,2.289,0,0,1-.756.552,2.38,2.38,0,0,1-1.01.206m3.3-3.982a3.4,3.4,0,0,0-1.886-1.89,3.813,3.813,0,0,0-2.828,0,3.4,3.4,0,0,0-1.886,1.89,3.946,3.946,0,0,0,0,2.872,3.412,3.412,0,0,0,1.886,1.89,3.813,3.813,0,0,0,2.828,0,3.414,3.414,0,0,0,1.886-1.89,3.946,3.946,0,0,0,0-2.872" transform="translate(-57.514 -18.242)" fill="#fff"/><path d="M197.785,25.922v6.867h-1.16l-3.5-5.022v5.022h-1.1V25.922h1.159l3.5,4.973V25.922Z" transform="translate(-138.249 -18.664)" fill="#fff"/></g></svg>