<svg xmlns="http://www.w3.org/2000/svg" xmlns:xlink="http://www.w3.org/1999/xlink" width="52" height="39" viewBox="0 0 52 39"><defs><style>.a{fill:#fff;}.b{fill:url(#a);}.c{fill:url(#b);}.d{fill:url(#c);}.e{fill:url(#d);}.f,.g{stroke:none;}.g{fill:#ddd;}</style><linearGradient id="a" x1="-2.249" y1="0.52" x2="0.981" y2="0.5" gradientUnits="objectBoundingBox"><stop offset="0" stop-color="#262860"/><stop offset="1" stop-color="#3c429a"/></linearGradient><linearGradient id="b" x1="-1.737" y1="0.512" x2="2.08" y2="0.493" xlink:href="#a"/><linearGradient id="c" x1="0.146" y1="0.502" x2="2.617" y2="0.482" xlink:href="#a"/><linearGradient id="d" x1="-1.978" y1="0.508" x2="4.408" y2="0.488" xlink:href="#a"/></defs><g class="a"><path class="f" d="M 51.5 38.5 L 0.5 38.5 L 0.5 0.5 L 51.5 0.5 L 51.5 38.5 Z"/><path class="g" d="M 1 1 L 1 38 L 51 38 L 51 1 L 1 1 M 0 0 L 52 0 L 52 39 L 0 39 L 0 0 Z"/></g><path class="b" d="M52.224,27.714H48.965c-.121-.572-.26-1.127-.347-1.733,0-.225-.121-.312-.381-.312H44.311a.3.3,0,0,0-.347.26c-.173.52-.373,1.057-.572,1.595a.235.235,0,0,1-.173.173H39.64c.225-.52.433-1.04.641-1.543l4.567-10.885a1.612,1.612,0,0,1,1.673-1.109h2.86l.286,1.3q1.127,5.391,2.253,10.764c.087.459.208.919.312,1.369Zm-4.273-4.8c-.347-1.673-.693-3.319-1.04-4.957-.589,1.647-1.187,3.293-1.785,4.966Z" transform="translate(-5.285 -1.887)"/><path class="c" d="M36.5,13.9c.433.087.867.156,1.3.26s.763.208,1.179.321l-.607,2.86c-.555-.173-1.075-.347-1.612-.459a4.541,4.541,0,0,0-2.21,0,2.2,2.2,0,0,0-.867.451.754.754,0,0,0,0,1.2,4.81,4.81,0,0,0,.867.65c.719.416,1.473.78,2.167,1.248a3.189,3.189,0,0,1,1.534,2.288,4.073,4.073,0,0,1-1.924,4.16,6.639,6.639,0,0,1-3.085.979,11.033,11.033,0,0,1-4.533-.52l-.286-.1-.1-.061c.217-.971.433-1.95.633-2.947l.728.312a6.275,6.275,0,0,0,3.571.433,2.383,2.383,0,0,0,.919-.373.971.971,0,0,0,.113-1.6,9.906,9.906,0,0,0-1.17-.78c-.633-.381-1.3-.693-1.907-1.127a3.155,3.155,0,0,1-1.43-2.253,3.857,3.857,0,0,1,1.5-3.553A6.413,6.413,0,0,1,34.655,14l.208-.043Z" transform="translate(-3.776 -1.853)"/><path class="d" d="M20.6,14.2c-.191.433-.364.867-.537,1.283L15.039,27.492a.329.329,0,0,1-.364.243H11.495c-.217,0-.286-.069-.347-.277-.867-3.467-1.8-6.994-2.687-10.487A1.82,1.82,0,0,0,7.352,15.61a17.966,17.966,0,0,0-3.033-.988H4.18c0-.416,0-.416.39-.416h5.521a1.612,1.612,0,0,1,1.733,1.352c.468,2.47.936,4.94,1.387,7.4a2.127,2.127,0,0,0,.087.364,1.51,1.51,0,0,0,.1-.2q1.733-4.333,3.467-8.727a.277.277,0,0,1,.312-.217h3.467Z" transform="translate(-0.557 -1.89)"/><path class="e" d="M21.5,27.737c.971-4.533,1.933-9.031,2.9-13.537H27.87c-.147.693-.286,1.361-.433,2.037L25.1,27.417c-.052.243-.147.329-.416.321H21.5Z" transform="translate(-2.867 -1.893)"/></svg>
