<svg xmlns="http://www.w3.org/2000/svg" width="91.727" height="26" viewBox="0 0 91.727 26"><g transform="translate(-0.014)"><path d="M14.139,25.358a48.471,48.471,0,0,1,.075-5.894c.02-.128.047-.252.075-.375a4.508,4.508,0,0,0,2.352-1.638,3.62,3.62,0,0,0,4.322-5.53c0-.008,0-.016,0-.023A3.619,3.619,0,0,0,16.64,6.37a4.523,4.523,0,0,0-7.257-.007,3.62,3.62,0,0,0-4.3,5.547,3.62,3.62,0,0,0,4.3,5.55,4.506,4.506,0,0,0,2.478,1.667c.026.114.051.23.07.349a48.108,48.108,0,0,1,.065,5.889,12.395,12.395,0,1,1,2.147-.007M15.8,12.191a4.144,4.144,0,0,1,1.12,2.4,15.75,15.75,0,0,0-1.345,1.184,2.991,2.991,0,0,1-.484-1.631,2.761,2.761,0,0,1,.708-1.95m-.709-2.509a2.987,2.987,0,0,1,.331-1.365c.466.395.964.764,1.477,1.135a4.3,4.3,0,0,1-1.1,2.178,2.776,2.776,0,0,1-.71-1.948m1.816-.98c-.4-.294-.787-.591-1.151-.9a3.03,3.03,0,0,1,.678-.621A3.884,3.884,0,0,1,16.908,8.7m3.59,2.8a22.208,22.208,0,0,0-2.773-2.214l-.19-.136c0-.028,0-.055,0-.083a4.5,4.5,0,0,0-.561-2.181A3.009,3.009,0,0,1,20.5,11.5m-2.966,3.377c.247-.193.5-.385.752-.578a25.7,25.7,0,0,0,2.287-1.884,3.006,3.006,0,0,1-3.591,4.511,4.52,4.52,0,0,0,.552-2.049m-.083-5.038A20.716,20.716,0,0,1,20.126,12a25.578,25.578,0,0,1-2.213,1.82l-.431.328a4.9,4.9,0,0,0-1.117-2.236,5.013,5.013,0,0,0,1.082-2.066M16.1,17.156a3.9,3.9,0,0,1-1.584,1.207A5.918,5.918,0,0,1,15.543,16.7a3.634,3.634,0,0,0,.558.456m-.146-.91c.284-.289.591-.564.913-.834a3.9,3.9,0,0,1-.432,1.232,3.044,3.044,0,0,1-.482-.4M13.745,5.226A3.919,3.919,0,0,1,16.1,6.668a3.649,3.649,0,0,0-.793.717,6.719,6.719,0,0,1-1.559-2.16M10.719,7.369a3.648,3.648,0,0,0-.793-.709A3.923,3.923,0,0,1,12.26,5.228a6.7,6.7,0,0,1-1.541,2.141m.227,2.313a3.167,3.167,0,0,1-.9,1.963,3.217,3.217,0,0,1-.939-2.193c.522-.376,1.029-.753,1.5-1.155a2.992,2.992,0,0,1,.34,1.383m0,4.458a2.985,2.985,0,0,1-.45,1.575A16.709,16.709,0,0,0,9.1,14.5a3.465,3.465,0,0,1,.945-2.324,3.163,3.163,0,0,1,.9,1.961M9.134,15.312c.349.287.682.581.99.888a3.029,3.029,0,0,1-.541.456,3.892,3.892,0,0,1-.449-1.344M5.5,12.363a24.932,24.932,0,0,0,2.354,1.95q.314.239.623.478a4.531,4.531,0,0,0,.558,2.144A3.007,3.007,0,0,1,5.5,12.366m4.083-5.2a3.035,3.035,0,0,1,.681.613C9.9,8.1,9.513,8.4,9.11,8.694a3.886,3.886,0,0,1,.478-1.526M8.482,9.148l-.2.143a22.354,22.354,0,0,0-2.755,2.2,3.008,3.008,0,0,1,3.518-4.6,4.5,4.5,0,0,0-.565,2.187v.076m-.252,4.683a24.565,24.565,0,0,1-2.287-1.893,21.021,21.021,0,0,1,2.6-2.075A3.73,3.73,0,0,0,9.45,11.92a4.068,4.068,0,0,0-.921,2.14l-.3-.229m3.411,4.586a3.9,3.9,0,0,1-1.719-1.252,3.658,3.658,0,0,0,.622-.518,5.95,5.95,0,0,1,1.1,1.77M13.019,0A13.011,13.011,0,0,0,12.2,26l.064,0h.017a.291.291,0,0,0,.059-.006.09.09,0,0,0,.023-.007l.032-.01.026-.013.025-.013.023-.018c.007-.006.015-.011.022-.017l.019-.021.019-.022a.222.222,0,0,0,.014-.024c0-.008.011-.017.015-.026s.006-.017.009-.026a.265.265,0,0,0,.01-.029.291.291,0,0,0,0-.029.249.249,0,0,0,0-.028v-.005a52.631,52.631,0,0,0-.061-6.327,6.186,6.186,0,0,0-1.6-3.21,3.6,3.6,0,0,0,.624-2.03,3.517,3.517,0,0,0-.936-2.229,3.516,3.516,0,0,0,.936-2.229,3.592,3.592,0,0,0-.484-1.8,7.141,7.141,0,0,0,1.875-2.723h.11A7.16,7.16,0,0,0,14.954,7.9a3.594,3.594,0,0,0-.473,1.784,3.469,3.469,0,0,0,.743,2.224,3.458,3.458,0,0,0-.744,2.234,3.6,3.6,0,0,0,.668,2.088,6.357,6.357,0,0,0-1.383,2.457.306.306,0,0,0-.048.165c-.042.168-.079.34-.109.518a53.36,53.36,0,0,0-.071,6.333v.008a.145.145,0,0,0,0,.025.3.3,0,0,0,.005.031c0,.009.006.018.009.027a.266.266,0,0,0,.011.029l.019.021a.23.23,0,0,0,.017.027c0,.007.011.012.016.019a.246.246,0,0,0,.023.025l.018.014.029.021.02.01.033.015.023.007.034.008.027,0,.023,0h.02l.159-.011A13.011,13.011,0,0,0,13.019,0" transform="translate(0)" fill="#333"/><path d="M116.505,25.922v8.927H115l-4.546-6.527v6.527h-1.436V25.922h1.506l4.548,6.464V25.922Z" transform="translate(-69.327 -16.487)" fill="#333"/><path d="M140.547,33.484v1.365h-5.9V25.922h5.759v1.365h-4.323v2.251h4.041V30.9h-4.041v2.58Z" transform="translate(-85.629 -16.487)" fill="#333"/><path d="M158.777,31.981a2.43,2.43,0,0,1-.276,1.157,2.643,2.643,0,0,1-.716.854,3.24,3.24,0,0,1-.97.518,3.393,3.393,0,0,1-1.077.182,4.047,4.047,0,0,1-1.569-.312,3.092,3.092,0,0,1-1.3-1.048l-.176-.24,1.283-.913.162.278a1.722,1.722,0,0,0,.645.629,1.972,1.972,0,0,0,.992.238,1.829,1.829,0,0,0,.546-.087,1.552,1.552,0,0,0,.478-.248,1.307,1.307,0,0,0,.342-.391.971.971,0,0,0,.125-.5,1.066,1.066,0,0,0-.136-.569,1.259,1.259,0,0,0-.395-.391,2.634,2.634,0,0,0-.619-.291c-.255-.085-.514-.172-.784-.257s-.556-.193-.817-.3a3.036,3.036,0,0,1-.756-.465,2.176,2.176,0,0,1-.558-.733A2.5,2.5,0,0,1,152.994,28a2.544,2.544,0,0,1,.263-1.183,2.468,2.468,0,0,1,.693-.841,2.931,2.931,0,0,1,.964-.486,3.964,3.964,0,0,1,2.461.091,3.058,3.058,0,0,1,1.186.87l.206.234-1.238.96-.176-.259a1.541,1.541,0,0,0-1.37-.684,2.142,2.142,0,0,0-.569.077,1.508,1.508,0,0,0-.478.227,1.048,1.048,0,0,0-.319.37,1.163,1.163,0,0,0-.119.539.882.882,0,0,0,.23.667,2.222,2.222,0,0,0,.7.452,8.643,8.643,0,0,0,1,.348,5.037,5.037,0,0,1,1.095.45,2.774,2.774,0,0,1,.884.784,2.279,2.279,0,0,1,.374,1.363" transform="translate(-97.109 -16.116)" fill="#333"/><path d="M178.7,33.484v1.365h-5.9V25.922h5.759v1.365h-4.323v2.251h4.041V30.9h-4.041v2.58Z" transform="translate(-109.894 -16.487)" fill="#333"/><path d="M221.755,31.982a2.43,2.43,0,0,1-.276,1.157,2.634,2.634,0,0,1-.716.854,3.239,3.239,0,0,1-.97.518,3.376,3.376,0,0,1-1.077.182,4.061,4.061,0,0,1-1.569-.312,3.076,3.076,0,0,1-1.295-1.047l-.176-.24,1.282-.913.162.278a1.738,1.738,0,0,0,.645.629,1.977,1.977,0,0,0,.992.238,1.829,1.829,0,0,0,.546-.087,1.568,1.568,0,0,0,.48-.248,1.346,1.346,0,0,0,.342-.391.975.975,0,0,0,.123-.5,1.066,1.066,0,0,0-.136-.569,1.274,1.274,0,0,0-.393-.391,2.705,2.705,0,0,0-.619-.291c-.255-.085-.516-.172-.784-.257s-.556-.193-.816-.3a2.991,2.991,0,0,1-.756-.465,2.155,2.155,0,0,1-.56-.733A2.528,2.528,0,0,1,215.972,28a2.572,2.572,0,0,1,.263-1.183,2.471,2.471,0,0,1,.7-.841,2.921,2.921,0,0,1,.962-.486,3.97,3.97,0,0,1,2.463.091,3.084,3.084,0,0,1,1.187.871l.206.234-1.238.96-.178-.259a1.541,1.541,0,0,0-1.37-.684,2.142,2.142,0,0,0-.569.077,1.507,1.507,0,0,0-.478.227,1.061,1.061,0,0,0-.317.37,1.128,1.128,0,0,0-.119.539.888.888,0,0,0,.229.667,2.25,2.25,0,0,0,.7.452,8.519,8.519,0,0,0,1,.348,5.036,5.036,0,0,1,1.095.45,2.766,2.766,0,0,1,.883.784,2.279,2.279,0,0,1,.374,1.363" transform="translate(-137.165 -16.117)" fill="#333"/><path d="M235.809,25.923V34.85h5.9V33.485h-4.465v-2.58h4.041V29.538h-4.041V27.288h4.323V25.923Z" transform="translate(-149.97 -16.487)" fill="#333"/><path d="M84.531,33.323a3.094,3.094,0,0,1-1.31-.268,2.974,2.974,0,0,1-.983-.718,3.182,3.182,0,0,1-.619-1.051,3.837,3.837,0,0,1,0-2.546,3.182,3.182,0,0,1,.619-1.051,2.974,2.974,0,0,1,.983-.718,3.346,3.346,0,0,1,2.625,0,2.975,2.975,0,0,1,.983.718,3.219,3.219,0,0,1,.619,1.051,3.837,3.837,0,0,1,0,2.546,3.219,3.219,0,0,1-.619,1.051,2.975,2.975,0,0,1-.983.718,3.094,3.094,0,0,1-1.314.268m4.291-5.177a4.423,4.423,0,0,0-2.451-2.457,4.957,4.957,0,0,0-3.676,0,4.421,4.421,0,0,0-2.451,2.457,5.13,5.13,0,0,0,0,3.733A4.435,4.435,0,0,0,82.7,34.336a4.957,4.957,0,0,0,3.676,0,4.438,4.438,0,0,0,2.451-2.457,5.13,5.13,0,0,0,0-3.733" transform="translate(-50.804 -16.114)" fill="#333"/><path d="M199.513,25.922v8.927h-1.508l-4.546-6.528v6.528h-1.436V25.922h1.506l4.548,6.464V25.922Z" transform="translate(-122.121 -16.487)" fill="#333"/></g></svg>