<svg xmlns="http://www.w3.org/2000/svg" width="74.537" height="14" viewBox="0 0 74.537 14"><path d="M5.632,53.4c-1.253,1.051-3.01,1.051-3.961,1.628a2.89,2.89,0,0,0-.389.245l.043-.043c.879-.893,2.765-.994,4.047-2.132a1.317,1.317,0,0,1-.2-.706,1.158,1.158,0,0,1,.043-.317,1.226,1.226,0,0,1-.562-.5A5.268,5.268,0,0,1,4.177,50.3C.677,51.827,0,57.041,0,57.041l.058.014a8.81,8.81,0,0,1,1.08-.576c1.34-.634,4.119-.13,5.56-2.261A4.318,4.318,0,0,1,5.632,53.4" transform="translate(0 -43.055)" fill="#fff"/><path d="M47.342,48.815a8.886,8.886,0,0,1-1.051-.533c-1.066-.6-2.175-2.636-3.961-3.082a3.5,3.5,0,0,1-.576,1.455c1.325.475,2.276,1.757,3.183,2.146a3.4,3.4,0,0,0,.4.173h-.058c-1.123-.144-2.276-1.57-3.774-1.959-.072.086-.144.173-.216.245h0a3.592,3.592,0,0,1-.331.331h0a1.815,1.815,0,0,1-.691.288s-.058.014-.158.043a.4.4,0,0,1-.13.014h0l-.374.014a1.756,1.756,0,0,1-.461-.058l-.461-.1a.592.592,0,0,0,0,.288,1.885,1.885,0,0,0,.432.951,4.645,4.645,0,0,0,3.14,1.44h.6a9.858,9.858,0,0,0,4.494-1.6s.014-.043-.014-.058" transform="translate(-33.097 -38.69)" fill="#fff"/><path d="M32.455,7.6a1.937,1.937,0,0,1-.245.447l-.043.072a3.677,3.677,0,0,1-.3.4c-.058.072-.317.346-.389.418-.158.173.1.158.331.13.043,0,.086-.014.13-.014.1-.029.158-.043.158-.043a1.914,1.914,0,0,0,.691-.288h0c.115-.115.23-.216.331-.331h0c.072-.086.144-.173.216-.245a3.268,3.268,0,0,0,.259-.36,3.5,3.5,0,0,0,.576-1.455c.288-2.016-1.282-3.817-1.5-5.113a7.644,7.644,0,0,1-.144-1.2L32.5,0h-.014s-3.86,3.27-3.01,7.043a5.052,5.052,0,0,0,.475,1.267,1.223,1.223,0,0,0,.562.5l.072.029c.014,0,.288.1.4.014l.029-.029a1.644,1.644,0,0,0,.158-.158,3.523,3.523,0,0,0,.446-.49,2.921,2.921,0,0,0,.187-.259,1.7,1.7,0,0,0,.158-.274,3.293,3.293,0,0,0,.36-1.239c.144-1.628-.778-3.241-.576-4.407l.014-.058a4.105,4.105,0,0,0,.029.447c.072,1.023.951,2.405.922,3.9A3.37,3.37,0,0,1,32.426,7.6" transform="translate(-25.124)" fill="#fff"/><path d="M113.352,12.616a3.071,3.071,0,0,1-.23,1.21,2.37,2.37,0,0,1-.591.835,2.574,2.574,0,0,1-.893.49,3.892,3.892,0,0,1-1.109.158,2.937,2.937,0,0,1-2.1-.691,2.61,2.61,0,0,1-.735-2,2.538,2.538,0,0,1,.85-1.959,2.768,2.768,0,0,1,.893-.461,3.705,3.705,0,0,1,1.051-.144,3.157,3.157,0,0,1,2.117.663,2.472,2.472,0,0,1,.749,1.9m.691,3.039.029-6.021h-.706v1.095a2.791,2.791,0,0,0-.461-.533,2.919,2.919,0,0,0-.72-.461,4,4,0,0,0-.835-.245,5.8,5.8,0,0,0-.85-.072,4.347,4.347,0,0,0-1.584.259,3.026,3.026,0,0,0-1.08.72,2.765,2.765,0,0,0-.634,1.037,3.807,3.807,0,0,0-.2,1.21,4.039,4.039,0,0,0,.187,1.239,2.834,2.834,0,0,0,.6,1.051,3.056,3.056,0,0,0,1.08.735,4.264,4.264,0,0,0,1.584.288,4.121,4.121,0,0,0,1.786-.36,2.692,2.692,0,0,0,1.109-.979v1.066a3.562,3.562,0,0,1-.115.864,1.782,1.782,0,0,1-.4.763,2.069,2.069,0,0,1-.85.547,3.939,3.939,0,0,1-1.44.216,5.269,5.269,0,0,1-1.152-.115,2.338,2.338,0,0,1-.792-.317,1.312,1.312,0,0,1-.446-.49,1.562,1.562,0,0,1-.2-.634l-.014-.072h-.706l.014.086a2.158,2.158,0,0,0,.979,1.685,4.516,4.516,0,0,0,2.319.49,5.092,5.092,0,0,0,1.786-.259,2.578,2.578,0,0,0,1.066-.72,2.529,2.529,0,0,0,.519-.994,4.615,4.615,0,0,0,.13-1.08m5.027-5.387v-.72l-.058-.014c-.1-.029-.173-.043-.245-.058a1.268,1.268,0,0,0-.245-.029,3.235,3.235,0,0,0-1.642.418,2.645,2.645,0,0,0-.922,1.023V9.62h-.706l-.029,6.4h.706l.014-3.457a2.8,2.8,0,0,1,.158-.907,2.33,2.33,0,0,1,.446-.778,2.23,2.23,0,0,1,.735-.547,2.341,2.341,0,0,1,1.037-.2,2.8,2.8,0,0,1,.389.014.9.9,0,0,1,.23.058Zm6.193,2.16-5.574-.014a2.938,2.938,0,0,1,.879-1.671,2.805,2.805,0,0,1,1.9-.634,3.129,3.129,0,0,1,.994.144,2.525,2.525,0,0,1,.85.447,2.651,2.651,0,0,1,.619.749,2.541,2.541,0,0,1,.331.979m.792.634V12.99a4.092,4.092,0,0,0-.245-1.412,3.2,3.2,0,0,0-.691-1.123,2.934,2.934,0,0,0-1.095-.735,4.384,4.384,0,0,0-3.2.058,3.172,3.172,0,0,0-1.109.835,3.334,3.334,0,0,0-.576,1.095,4.482,4.482,0,0,0-.187,1.08,4.138,4.138,0,0,0,.245,1.44,3.116,3.116,0,0,0,.706,1.095,3.078,3.078,0,0,0,1.123.691,4.245,4.245,0,0,0,1.469.245,3.819,3.819,0,0,0,2.117-.547,3.353,3.353,0,0,0,1.253-1.757l.029-.1h-.706l-.014.043a5.216,5.216,0,0,1-.245.5,1.96,1.96,0,0,1-.432.562,3.05,3.05,0,0,1-.749.475,3.38,3.38,0,0,1-1.181.187,3.516,3.516,0,0,1-1.224-.2,2.421,2.421,0,0,1-.907-.562,2.375,2.375,0,0,1-.562-.835,3.127,3.127,0,0,1-.2-.994Zm6.683-.6-5.574-.014a2.634,2.634,0,0,1,2.794-2.3,3.414,3.414,0,0,1,1.008.144,2.83,2.83,0,0,1,.85.447,2.649,2.649,0,0,1,.619.749,3.412,3.412,0,0,1,.3.979m.778.634v-.072a4.092,4.092,0,0,0-.245-1.412,3.4,3.4,0,0,0-.677-1.123,3.055,3.055,0,0,0-1.095-.735,3.894,3.894,0,0,0-1.484-.274,3.971,3.971,0,0,0-1.7.331,3.311,3.311,0,0,0-1.109.835,3.123,3.123,0,0,0-.591,1.095,4.484,4.484,0,0,0-.187,1.08,3.83,3.83,0,0,0,.245,1.44,3.151,3.151,0,0,0,.72,1.095,3.22,3.22,0,0,0,1.109.691,4.389,4.389,0,0,0,1.484.245,3.853,3.853,0,0,0,2.117-.547,3.187,3.187,0,0,0,1.239-1.757l.043-.1h-.72l-.014.043a5.21,5.21,0,0,1-.245.5,1.96,1.96,0,0,1-.432.562,2.9,2.9,0,0,1-.763.475,3.38,3.38,0,0,1-1.181.187,3.576,3.576,0,0,1-1.224-.2,2.422,2.422,0,0,1-.907-.562,2.585,2.585,0,0,1-.562-.835,2.776,2.776,0,0,1-.2-.994ZM140.5,16.13l.014-3.932c0-.115,0-.274-.014-.461a2.79,2.79,0,0,0-.086-.576,2.638,2.638,0,0,0-.259-.591,2.258,2.258,0,0,0-.519-.533,2.721,2.721,0,0,0-.821-.389,4.326,4.326,0,0,0-1.224-.144,3.431,3.431,0,0,0-.979.13,2.452,2.452,0,0,0-.763.331,2.669,2.669,0,0,0-.576.475c-.1.115-.187.245-.288.36V9.706h-.706l-.014,6.4h.706l.014-3.73a2.45,2.45,0,0,1,.158-.835,1.874,1.874,0,0,1,.461-.706,2.145,2.145,0,0,1,.807-.5,3.227,3.227,0,0,1,1.181-.187,3.4,3.4,0,0,1,1.109.144,1.511,1.511,0,0,1,.677.418,1.306,1.306,0,0,1,.346.634,3.2,3.2,0,0,1,.1.85l-.014,3.9Zm4.379-8.21V7.286h-.058c-.187-.014-.346-.029-.519-.058a2.875,2.875,0,0,0-1.282.086,1.219,1.219,0,0,0-.519.346,1.3,1.3,0,0,0-.245.533,3.255,3.255,0,0,0-.072.677v.864h-1.469v.634h1.469l-.043,5.761h.706l.014-5.776h1.815V9.721h-1.815V8.684a.966.966,0,0,1,.115-.5.817.817,0,0,1,.288-.259.711.711,0,0,1,.331-.086c.13,0,.216-.014.3-.014.13,0,.274.014.432.014a3.5,3.5,0,0,1,.432.058Zm.951,1.829h-.706l-.029,6.4h.706Zm0-1.037V7.272h-.706v1.44Zm7.331,7.461.014-3.932c0-.115-.014-.274-.014-.461a2.852,2.852,0,0,0-.1-.576,2.634,2.634,0,0,0-.259-.591,2.184,2.184,0,0,0-.5-.533,2.813,2.813,0,0,0-.835-.389,4.259,4.259,0,0,0-1.224-.144,3.431,3.431,0,0,0-.979.13,2.451,2.451,0,0,0-.763.331,2.669,2.669,0,0,0-.576.475,1.981,1.981,0,0,0-.274.36V9.749h-.706l-.029,6.4h.706l.014-3.73a2.829,2.829,0,0,1,.144-.835,2.065,2.065,0,0,1,.461-.706,2.266,2.266,0,0,1,.807-.5,3.147,3.147,0,0,1,1.167-.187,3.4,3.4,0,0,1,1.109.144,1.65,1.65,0,0,1,.691.418,1.821,1.821,0,0,1,.36.634,3.926,3.926,0,0,1,.1.85l-.014,3.9Zm1.757-6.4h-.706l-.029,6.4h.706Zm0-1.037V7.3h-.706v1.44Zm11.206,1.08h-.835l-2.708,5.848-2.9-5.833-.014-.043h-2.161l.014-2.117h-.706l-.014,2.117H155.4v.634h1.411l-.014,4.134a5.743,5.743,0,0,0,.058.778,1.191,1.191,0,0,0,.23.547,1.1,1.1,0,0,0,.49.331,2.5,2.5,0,0,0,.807.1h.49c.173-.014.331-.029.49-.058l.058-.014v-.619l-.475.058a2.776,2.776,0,0,1-.85-.014.824.824,0,0,1-.331-.115.492.492,0,0,1-.2-.245,1.116,1.116,0,0,1-.072-.432l.014-4.436h1.642l3.054,6.064-.72,1.628c-.13.245-.245.461-.331.619a1.083,1.083,0,0,1-.274.331.936.936,0,0,1-.317.158,2.087,2.087,0,0,1-.461.043h-.317v.663h.432a2.276,2.276,0,0,0,.677-.086,1.288,1.288,0,0,0,.475-.274,1.462,1.462,0,0,0,.346-.389,3.3,3.3,0,0,0,.274-.5Z" transform="translate(-91.588 -6.163)" fill="#fff"/><path d="M338.9,83.545h.245V81.889h0l.763,1.656h.317V81.529h-.245V83.2h0l-.763-1.671H338.9Zm-2.1-.994c0-.619.23-.85.49-.85.346,0,.475.389.475.807,0,.619-.23.85-.49.85-.346,0-.475-.4-.475-.807m-.259,0c0,.619.288,1.008.734,1.008.475,0,.763-.36.763-1.051,0-.619-.288-1.008-.734-1.008-.49,0-.763.36-.763,1.051m-1.267.994h.259V81.529h-.259Zm-1.656,0h.259v-1.8h.461v-.216h-1.181v.216h.461Zm-2.333-.749.317-1.008h0l.317,1.008Zm.2-1.267-.677,2.016h.259l.159-.533H332l.159.533h.274l-.663-2.016Zm-2.665.216h.158c.5,0,.677.331.677.763,0,.519-.23.821-.677.821h-.158Zm-.259,1.8h.317a.932.932,0,0,0,1.037-1.037.942.942,0,0,0-.375-.835.842.842,0,0,0-.533-.144h-.447Zm-2.405,0h.245V81.889h0l.763,1.656h.317V81.529h-.245V83.2h0l-.763-1.671h-.317Zm-1.224-2.016h-.259V82.84c0,.317-.144.519-.375.519s-.375-.2-.375-.519V81.529h-.259v1.282a.826.826,0,0,0,.086.447.574.574,0,0,0,.547.317.559.559,0,0,0,.547-.317.886.886,0,0,0,.086-.447Zm-3.514,1.023c0-.619.23-.85.49-.85.346,0,.475.389.475.807,0,.619-.23.85-.49.85-.346,0-.475-.4-.475-.807m-.259,0c0,.619.288,1.008.735,1.008.475,0,.763-.36.763-1.051,0-.619-.288-1.008-.735-1.008-.49,0-.763.36-.763,1.051m-1.944.994h.259v-.936h.619v-.216h-.634v-.648h.648v-.216H319.2v2.016Z" transform="translate(-273.225 -69.761)" fill="#fff"/></svg>