<svg xmlns="http://www.w3.org/2000/svg" width="80.6" height="44.1" viewBox="0 0 80.6 44.1"><defs><style>.a{fill:#ae0034;}.b{fill:#231f20;fill-rule:evenodd;}</style></defs><path class="a" d="M78.1,21h-.7L77,23h-.3l.4-2h-.7v-.2h1.8Zm.3-.2h.4l.3,2,1.1-2h.4L80.2,23h-.3l.4-1.9-1.1,2h-.3l-.3-2-.4,2H78Z"/><path class="b" d="M7.9,3.8A7.5,7.5,0,0,1,13.8,0H28.6l-10,18.8H0ZM38.2,9.4a5.3,5.3,0,0,1,4.1-2.7H52.5l-5,9.4a5.3,5.3,0,0,1-4,2.7H33.2Z"/><path class="b" d="M55.2,1.5A2.8,2.8,0,0,1,57.4,0h5.3L59.8,5.3a2.8,2.8,0,0,1-2.2,1.5H52.3ZM18.7,18.8H33.3L25.5,33.4H10.8Zm6.8,14.6H35.7l-4.6,8.7a4,4,0,0,1-3,2H19.7Z"/><path class="a" d="M53.3,23.4l-2.8,5.3c-.2.4,0,.6.4.7a1.8,1.8,0,0,0,.8-.2l-1,2.2a3.2,3.2,0,0,1-1,.1c-1.8,0-2.5-1.1-1.8-2.5l4.7-8.9a2,2,0,0,1,1.6-1h1.4l-1,2h1.3l-1.2,2.4Zm-14.2.4v.1l-1.2,2.2-2.2,4.1a2.2,2.2,0,0,1-.9.9,1.6,1.6,0,0,1-.7.2H32.6l2.8-5.2,1.2-2.3c.2-.4,0-.6-.3-.6a1.2,1.2,0,0,0-1,.6l-1.2,2.3-2.2,4.1a2,2,0,0,1-1.6,1H29l4-7.4c.8-1.7,1.8-2.9,4.7-2.9h3.7c1.4,0,2.6.8,1.5,3l-3.4,6.3a2,2,0,0,1-1.6,1H36.5l2.7-5,1.2-2.4a.367.367,0,0,0-.3-.6,1.2,1.2,0,0,0-1,.6Zm29.3-.4-1,1.7H65.1l.7-1.4a.367.367,0,0,0-.3-.6,1.2,1.2,0,0,0-1,.6l-2.3,4.5-.3.4c-.1.4,0,.7.3.7s.8-.3,1.2-1l.3-.6h-.6l1-1.8h3l-1.7,3A5.4,5.4,0,0,1,61,31.5c-1.6,0-2.4-1.1-1.6-2.5l.4-.8,2.6-4.9a5.4,5.4,0,0,1,4.3-2.5c1.7,0,2.4,1.2,1.7,2.6ZM55,28.6c-.2.4,0,.7.3.7a1.2,1.2,0,0,0,1-.7l2.5-4.9a.367.367,0,0,0-.3-.6,1.2,1.2,0,0,0-1,.6Zm6.4-5.2-3,5.6a5.4,5.4,0,0,1-4.3,2.5c-1.7,0-2.5-1.1-1.7-2.5l3-5.6a5.4,5.4,0,0,1,4.3-2.6C61.4,20.8,62.2,22,61.4,23.4ZM43.6,28.6c-.1.4,0,.7.3.7a1.2,1.2,0,0,0,1-.7l2.6-4.9a.367.367,0,0,0-.3-.6,1.2,1.2,0,0,0-1,.6ZM50,23.4,47,29a5.4,5.4,0,0,1-4.4,2.5c-1.6,0-2.4-1.1-1.6-2.5l3-5.6a5.4,5.4,0,0,1,4.3-2.6c1.7,0,2.4,1.2,1.7,2.6Zm21.5.3v.2l-1.1,2h.4a1.6,1.6,0,0,0,1.3-.8l.7-1.4a.367.367,0,0,0-.3-.6,1.2,1.2,0,0,0-1,.6Zm-2.3,4.4-1.1,2.1a2,2,0,0,1-1.6,1H65l3-5.6.9-1.7c1.3-2.5,2.9-3,4.7-3,2.1,0,2.4,1.3,1.5,3L75,24l-.8,1.5v.1a5.5,5.5,0,0,1-4.5,2.6,3.2,3.2,0,0,1-.6,0Z"/></svg>
