<svg xmlns="http://www.w3.org/2000/svg" xmlns:xlink="http://www.w3.org/1999/xlink" width="52" height="39" viewBox="0 0 52 39"><defs><style>.a{fill:none;}.b{clip-path:url(#a);}.c{fill:#fff;}.d{fill:#006fcf;}</style><clipPath id="a"><path class="a" d="M0,0H52V39H0Z"/></clipPath></defs><g class="b"><path class="c" d="M.24,9.03H51.807V30.463H.249Z" transform="translate(-0.032 -1.204)"/><path class="d" d="M32.76,27.96l-1.04-1.317v1.283H28.305V25.776a3.319,3.319,0,0,1-1.43.312h-1.2v1.881H20.523l-.953-1.239-.927,1.231H10.1V19.813h8.58l.953,1.231.927-1.231H51.87V-8.18H0V13.7L1.95,9.136H5.313L6.4,11.684V9.136h4.2l.667,1.846.641-1.846H30.654v.953a3.987,3.987,0,0,1,2.687-.953h5.98L40.4,11.684V9.136H43.94l.936,1.456V9.136H48.4v8.147h-3.51l-.953-1.473v1.473H38.827l-.52-1.248H36.92l-.52,1.248H33.228a3.839,3.839,0,0,1-2.6-.867v.867H25.393L24.353,16v1.283H4.81l-.477-1.248H2.9l-.494,1.248H0v26.4H51.853V27.362a3.293,3.293,0,0,1-1.967.607Zm18.521-5.755.607-1.369H48.663a1.907,1.907,0,0,0-2.115,1.907,1.733,1.733,0,0,0,1.907,1.82h1.456a.507.507,0,1,1,0,1.014H46.739v1.369h3.155a1.907,1.907,0,0,0,2.115-1.993A1.673,1.673,0,0,0,50.1,23.219H48.655a.5.5,0,0,1-.546-.5.494.494,0,0,1,.546-.494Zm-8.814.494a.494.494,0,0,1,.546-.494h2.6l.607-1.369H43.073a1.907,1.907,0,0,0-2.123,1.907,1.733,1.733,0,0,0,1.907,1.82H44.3a.507.507,0,0,1,0,1.014H41.132v1.369h3.155A1.907,1.907,0,0,0,46.4,24.953a1.673,1.673,0,0,0-1.907-1.733H43.047a.5.5,0,0,1-.546-.5Zm-7.037,4.247H40.4V25.577h-3.38v-1.04h3.337V23.176H37.007v-.971h3.432V20.836H35.464v6.11Zm-.243,0-1.993-2.227a1.959,1.959,0,1,0-.52-3.883H29.328v6.11h1.543V24.779h.607l1.82,2.167Zm-2.661-3.467H30.793V22.205h1.733a.63.63,0,1,1,0,1.248Zm-3.9-.563A1.959,1.959,0,0,0,26.5,20.862H23.036v6.11h1.543V24.979h1.837a2.011,2.011,0,0,0,2.167-2.063Zm-1.56,0a.659.659,0,0,1-.719.693H24.613v-1.4h1.733a.667.667,0,0,1,.719.693Zm-4.1,4.03-2.453-3.085,2.427-3.033H21.06L19.613,22.7,18.2,20.836H16.224L18.677,23.9l-2.444,3.051h1.907l1.43-1.907,1.447,1.907Zm-11.839,0h4.983V25.577H12.645v-1.04h3.337V23.176H12.671v-.971h3.467V20.836H11.111v6.11Zm36.235-10.7V10.176H45.821v3.787l-2.427-3.787H41.418v6.067h1.543v-3.9l2.513,3.9Zm-7.852,0h1.733l-2.6-6.067H36.617l-2.6,6.11H35.75l.494-1.248H39l.52,1.213Zm-1.066-2.6h-1.69l.867-2.08.867,2.08Zm-4.992-2.115H35.1V10.176H33.367a2.773,2.773,0,0,0-2.947,3.007v.087a2.7,2.7,0,0,0,2.825,3.016h.13l.641-1.387h-.494a1.456,1.456,0,0,1-1.56-1.629v-.087A1.447,1.447,0,0,1,33.5,11.589ZM28.08,16.243h1.56V10.176H28.08Zm-.243,0-1.976-2.227a1.939,1.939,0,0,0-.52-3.839h-3.4v6.067H23.5V14.076h.589l1.82,2.167Zm-2.661-3.467h-1.69V11.528h1.69a.641.641,0,0,1,.728.624c0,.347-.26.624-.737.624Zm-9.1,3.467h4.992V14.891H17.6v-1.04h3.354V12.525H17.645v-.988h3.467V10.176H16.085v6.067Zm-2.6,0h1.543V10.176h-2.4l-1.352,3.883L9.88,10.176H7.419v6.067H8.953V11.736l1.6,4.507h1.361l1.6-4.524v4.524Zm-7.973,0H7.237l-2.6-6.067H2.6L0,16.243H1.733l.5-1.248H5.009L5.5,16.243Zm-1.04-2.6H2.73l.867-2.08Z" transform="translate(0 1.091)"/></g></svg>
