<svg xmlns="http://www.w3.org/2000/svg" width="67.57" height="10.824" viewBox="0 0 67.57 10.824">
    <defs>
        <style>
            .cls-1{fill:#fff}
        </style>
    </defs>
    <g id="logo-marketplace-bar" transform="translate(-20.951 -2.476)">
        <g id="Group_1363" transform="translate(20.951 2.476)">
            <g id="Group_1362">
                <path id="Path_872" d="M132.794 253.932v-5.645h1.455v.454a2.244 2.244 0 0 1 1.525-.57 2.46 2.46 0 0 1 1.9.884 2.8 2.8 0 0 1 2-.884 2.574 2.574 0 0 1 1.979.908 2.8 2.8 0 0 1 .57 1.862v2.991h-1.513v-3.049a1.325 1.325 0 0 0-.279-.966 1.133 1.133 0 0 0-.849-.349 1.762 1.762 0 0 0-1.362.745 4.956 4.956 0 0 1 .047.628v2.991h-1.513v-3.049a1.326 1.326 0 0 0-.279-.966 1.133 1.133 0 0 0-.849-.349 1.743 1.743 0 0 0-1.315.7v3.666z" class="cls-1" transform="translate(-132.794 -245.203)"/>
                <path id="Path_873" d="M183.172 253.932h-1.455v-.454a2.359 2.359 0 0 1-1.571.57 2.838 2.838 0 0 1-2.13-.954 3.03 3.03 0 0 1-.722-1.979 2.833 2.833 0 0 1 2.77-2.944 2.584 2.584 0 0 1 1.653.57v-.454h1.455zm-1.513-3.666a1.735 1.735 0 0 0-1.4-.7 1.544 1.544 0 0 0 .035 3.084 1.653 1.653 0 0 0 1.361-.7z" class="cls-1" transform="translate(-166.936 -245.203)"/>
                <path id="Path_874" d="M212.476 249.626a2.1 2.1 0 0 0-.547-.058 1.675 1.675 0 0 0-1.374.815v3.55h-1.513v-5.645h1.458v.57a2.112 2.112 0 0 1 1.641-.687 3.082 3.082 0 0 1 .512.047z" class="cls-1" transform="translate(-191.295 -245.203)"/>
                <path id="Path_875" d="M231.372 242.576l3.107 3.108h-2.037l-2.386-2.444v2.444h-1.513v-8.264h1.513v4.446l1.944-1.827h2.13z" class="cls-1" transform="translate(-206.256 -236.954)"/>
                <path id="Path_876" d="M259.314 253.036a3.062 3.062 0 0 1-2.314 1.012 2.823 2.823 0 0 1-2.956-2.933 2.784 2.784 0 0 1 2.747-2.944 2.74 2.74 0 0 1 2.665 2.886 2.511 2.511 0 0 1-.035.431h-3.911a1.482 1.482 0 0 0 1.525 1.338 2 2 0 0 0 1.42-.652zm-1.408-2.654a1.126 1.126 0 0 0-1.117-.989 1.224 1.224 0 0 0-1.21.989z" class="cls-1" transform="translate(-225.82 -245.203)"/>
                <path id="Path_877" d="M283.43 249.136a3.725 3.725 0 0 1-.943.116 2.324 2.324 0 0 1-1.955-.815 2.649 2.649 0 0 1-.419-1.687v-1.979h-1.571v-1.28h1.571v-1.571h1.513v1.571h1.862v1.28h-1.862v2.153a1.039 1.039 0 0 0 .186.71.959.959 0 0 0 .768.279 3.71 3.71 0 0 0 .617-.058z" class="cls-1" transform="translate(-244.617 -240.407)"/>
                <path id="Path_878" d="M310.73 250.624a2.825 2.825 0 0 1-2.793 3.026 2.292 2.292 0 0 1-1.722-.7v2.654h-1.571v-7.856h1.443v.722a2.207 2.207 0 0 1 1.85-.85 2.805 2.805 0 0 1 2.793 3.004zm-1.595.012a1.485 1.485 0 0 0-1.49-1.594 1.595 1.595 0 0 0 0 3.177 1.481 1.481 0 0 0 1.49-1.584z" class="cls-1" transform="translate(-264.643 -244.781)"/>
                <path id="Path_879" d="M336.663 244.149h-1.571v-8.729h1.571z" class="cls-1" transform="translate(-288.005 -235.42)"/>
                <path id="Path_880" d="M351.182 250.089v3.422h-1.443v-.559a2.361 2.361 0 0 1-1.758.7 1.764 1.764 0 0 1-1.99-1.722c0-1.048.85-1.676 2.177-1.676h1.443V250a.943.943 0 0 0-1.071-1.013 2.026 2.026 0 0 0-1.525.791l-.815-.966a3.123 3.123 0 0 1 2.514-1.187 2.258 2.258 0 0 1 2.468 2.464zm-1.571 1.269v-.07h-1.234c-.512 0-.8.2-.8.582s.337.628.826.628a1.152 1.152 0 0 0 1.208-1.141z" class="cls-1" transform="translate(-296.367 -244.781)"/>
                <path id="Path_881" d="M377.978 249.041l-1.094.85a1.612 1.612 0 0 0-1.385-.838 1.578 1.578 0 0 0 0 3.154 1.656 1.656 0 0 0 1.385-.826l1.094.838a2.771 2.771 0 0 1-2.5 1.431 3.015 3.015 0 1 1 0-6.029 2.749 2.749 0 0 1 2.5 1.42z" class="cls-1" transform="translate(-316.623 -244.781)"/>
                <path id="Path_882" d="M404.113 251.159h-4.039a1.521 1.521 0 0 0 1.618 1.141 2.54 2.54 0 0 0 1.606-.582l.651 1.071a3.507 3.507 0 0 1-2.3.861 3.013 3.013 0 0 1-3.154-3.014 2.971 2.971 0 0 1 3.014-3.014 2.614 2.614 0 0 1 2.712 2.677 4.035 4.035 0 0 1-.108.86zm-4.039-1.106h2.619a1.171 1.171 0 0 0-1.245-1.164 1.408 1.408 0 0 0-1.374 1.164z" class="cls-1" transform="translate(-336.647 -244.781)"/>
            </g>
        </g>
    </g>
</svg>
