<svg xmlns="http://www.w3.org/2000/svg" width="67.801" height="11.897" viewBox="0 0 67.801 11.897">
    <defs>
        <style>
            .cls-1{fill:#fff}
        </style>
    </defs>
    <g id="logo-lyconet-bar" transform="translate(-148.477 -239.326)">
        <path id="Path_19" d="M159.63 249.81a1.265 1.265 0 0 0 .166-.132 1.23 1.23 0 0 0 .389-.9v-.026a1.231 1.231 0 0 0-.518-.979.6.6 0 0 1 .458-.214.6.6 0 0 1 .247.054l.074.04a2.264 2.264 0 0 0 2 .043 2.226 2.226 0 0 0 .257-.141.993.993 0 0 0 .437-.818 1.055 1.055 0 0 0-.042-.283.871.871 0 0 1-.409.291q-.087.022-.175.04a5.636 5.636 0 0 1-1.152.119h-.179q-.27-.008-.533-.041a2.936 2.936 0 0 0 .522-.048 2.884 2.884 0 0 0 1.957-1.374h.006a2.839 2.839 0 0 0 .338-.9 2.886 2.886 0 0 0 .053-.551v-.069a.289.289 0 0 0-.1-.194 1.4 1.4 0 0 0-.85-.286h-.059a1.039 1.039 0 0 1 .264-.035 1.052 1.052 0 0 1 .2.02 1.018 1.018 0 0 0 .169.015 1.074 1.074 0 0 0 .192-.018l.047-.01.068-.018a.285.285 0 0 0 .105-.452l-.071-.059c-.095-.076-.193-.149-.295-.216a3.912 3.912 0 0 0-1.072-.5c-.119-.035-.239-.064-.362-.087-.051-.01-.1-.02-.155-.027q-.1-.016-.207-.025c-.125-.012-.251-.018-.379-.018a4.061 4.061 0 0 0-.441.025h-.005l-.037.006a.129.129 0 0 0-.093.124l.027.078.024.025a1.19 1.19 0 0 1 .24.357l.005.026-.061.066h-.017a.944.944 0 0 1-.52-.184 1.847 1.847 0 0 0-.5-.274 1.81 1.81 0 0 0-.2-.058 1.885 1.885 0 0 0-.429-.051l-.077-.017a.185.185 0 0 1 .011-.342l.068-.013a4.684 4.684 0 0 1 .468-.048c.084 0 .168-.007.252-.007h.022a4.7 4.7 0 0 1 .577.039h.006a1.58 1.58 0 0 0 .215.015 1.55 1.55 0 0 0 .566-.111.153.153 0 0 0 .1-.143l-.026-.086-.063-.053a3.105 3.105 0 0 0-.393-.27 3 3 0 0 0-1.5-.4h-.156a2.975 2.975 0 0 0-.4.048.623.623 0 0 0-.131-.867 2.3 2.3 0 0 0-1.015-.424 2.381 2.381 0 0 0-.356-.027h-.414c-.239 0-.476.008-.711.023a10.81 10.81 0 0 0-7.13 3.331 4.509 4.509 0 0 1 1.9-.419c.118 0 .235.006.351.015a4.412 4.412 0 0 0-2.7 3.142 2.354 2.354 0 0 1 1.516-.265 4.836 4.836 0 0 0-1.511 3.514v.018q.207-.109.418-.207a9.167 9.167 0 0 1 3.066-.816q.4-.036.812-.036a4.278 4.278 0 0 1 1.311.206c.065.021.129.043.193.068a.9.9 0 0 1 .409 1.242s-.036.067 0 0a3.828 3.828 0 0 1-1.724 1.639 4.486 4.486 0 0 1-.694.3 12.289 12.289 0 0 0 4.628-.3q.452-.118.89-.27l.025-.009a12.075 12.075 0 0 0 1.169-.477c.146-.077.577-.29.644-.334z" class="cls-1" transform="translate(0 -.065)"/>
        <path id="Path_20" d="M183.312 242.934l-.047-.042-.024-.017q-.142-.115-.295-.216a3.923 3.923 0 0 0-.967-.465l-.106-.033c-.118-.035-.239-.064-.362-.087-.051-.01-.1-.02-.155-.027-.068-.01-.138-.019-.207-.025-.125-.012-.251-.018-.379-.018a4.055 4.055 0 0 0-.441.025h-.005l-.037.006-.056.034-.038.091.027.078.024.025a1.19 1.19 0 0 1 .24.357l.005.026-.012.037-.048.029h-.017l-.1-.011a.933.933 0 0 1-.373-.143l-.044-.03a1.838 1.838 0 0 0-1.073-.381h-.054l-.077-.017-.086-.081-.023-.087a.185.185 0 0 1 .12-.173l.068-.013a4.685 4.685 0 0 1 .468-.048h.275a4.7 4.7 0 0 1 .577.039h.006a1.58 1.58 0 0 0 .214.015 1.551 1.551 0 0 0 .566-.111.153.153 0 0 0 .1-.143l-.013-.066-.013-.02-.06-.05c-.061-.05-.125-.1-.191-.142s-.133-.088-.2-.127a2.988 2.988 0 0 0-1.262-.393c-.079-.007-.16-.011-.241-.011h-.156a2.989 2.989 0 0 0-.4.048.614.614 0 0 0 .118-.336v-.031a.622.622 0 0 0-.251-.5 2.312 2.312 0 0 0-1.015-.424 2.382 2.382 0 0 0-.356-.027h-.414c-.239 0-.476.008-.711.023a10.987 10.987 0 0 0-1.368.177l.032.083a.553.553 0 0 1-.073.395c.229.063.46.14.65.212.775.3 1.166.6 1.27.994a1.127 1.127 0 0 0 .143.058c.074.025.172.066.285.117a17.791 17.791 0 0 1 1.661.891l.066.044c.258.185.572.277.314 1.126-.247.812-.109 1.716-.659 2.45l.072.355a2.07 2.07 0 0 1-.277 1.468 1.822 1.822 0 0 1-1.189.76l-.039.009c-.077.015-.151.027-.225.038a3.953 3.953 0 0 1-.57.044 2.772 2.772 0 0 1-.659-.075 1.545 1.545 0 0 1-.006.323c-.1.847-.889 1.624-2.271 2.245-.066.03-.134.058-.2.087q.4.026.8.026a12.205 12.205 0 0 0 3.094-.4q.452-.118.89-.27l.025-.009a12.127 12.127 0 0 0 1.169-.477l.19-.091c.081-.04.388-.19.454-.234a1.267 1.267 0 0 0 .166-.132 1.23 1.23 0 0 0 .389-.9v-.026a1.231 1.231 0 0 0-.5-.964l-.02-.015a.6.6 0 0 1 .458-.214.6.6 0 0 1 .247.054l.074.04a2.264 2.264 0 0 0 2 .043 2.23 2.23 0 0 0 .257-.141.987.987 0 0 0 .406-.575l.02-.1a.943.943 0 0 0 .011-.138 1.02 1.02 0 0 0-.008-.119l-.007-.043c-.005-.044-.01-.07-.01-.07l-.014-.056a.868.868 0 0 1-.409.291c-.058.015-.116.028-.176.04a5.628 5.628 0 0 1-1.152.119h-.179c-.06 0-.117-.006-.176-.01-.12-.007-.239-.017-.357-.032a2.939 2.939 0 0 0 .522-.048 2.884 2.884 0 0 0 1.957-1.374h.006a2.84 2.84 0 0 0 .338-.9 2.887 2.887 0 0 0 .053-.551v-.069a.29.29 0 0 0-.1-.194l-.021-.015-.038-.026a1.4 1.4 0 0 0-.565-.227 1.428 1.428 0 0 0-.225-.018h-.06a1.025 1.025 0 0 1 .467-.015 1.018 1.018 0 0 0 .169.015 1.074 1.074 0 0 0 .192-.018l.047-.01.068-.018a.287.287 0 0 0 .177-.265.279.279 0 0 0-.036-.135z" class="cls-1" transform="translate(-14.148 -.065)"/>
        <path id="Path_21" d="M306.251 247.1a.772.772 0 0 1-.772-.772v-3.008h.873v-1.5h-.873V240.833a1.545 1.545 0 0 0-1.544-1.5v2.492h-.873v1.5h.873v3.767h.006a1.537 1.537 0 0 0 1.537 1.519l.873-1.509z" class="cls-1" transform="translate(-90.074)"/>
        <path id="Path_22" d="M211.758 247.1H207.9a.772.772 0 0 1-.772-.772v-5.525a1.511 1.511 0 0 0-1.512-1.481h-.029v7.778a1.538 1.538 0 0 0 1.333 1.5h4.843z" class="cls-1" transform="translate(-33.273)"/>
        <path id="Path_23" d="M224.894 245.766l-2.2 3.812-2.2-3.812h-1.675l1.325 2.293 1.715 2.969-.7 1.219-.26.451a2.059 2.059 0 0 1-1.646.823v1.454q.173 0 .342-.018a3.515 3.515 0 0 0 2.554-1.522 3.557 3.557 0 0 0 .262-.454l.29-.5.838-1.45 3.039-5.262z" class="cls-1" transform="translate(-40.985 -3.753)"/>
        <path id="Path_24" d="M256.144 248.825a3.5 3.5 0 1 0-3.494 3.508 3.5 3.5 0 0 0 3.494-3.508zm-5.453.011a1.952 1.952 0 1 1 1.956 1.948 1.952 1.952 0 0 1-1.955-1.948z" class="cls-1" transform="translate(-58.656 -3.499)"/>
        <path id="Path_25" d="M239.588 250.784a1.952 1.952 0 1 1 .922-3.672l.776-1.341a3.5 3.5 0 1 0 .051 6.094l-.775-1.342a1.941 1.941 0 0 1-.974.261z" class="cls-1" transform="translate(-51.049 -3.5)"/>
        <path id="Path_26" d="M270.809 246.846a1.952 1.952 0 0 1 1.956 1.948h.006v3.33h1.543v-3.337a3.5 3.5 0 0 0-5.458-2.9q-.146.1-.281.211a1.476 1.476 0 0 0-1.2-.613h-.062v6.631h1.544V248.8h.005a1.952 1.952 0 0 1 1.947-1.954z" class="cls-1" transform="translate(-69.243 -3.479)"/>
        <path id="Path_27" d="M288.817 252.3a3.5 3.5 0 0 0 2.9-1.55h-2.9a1.951 1.951 0 0 1-1.718-1.018h5.089a3.482 3.482 0 0 0 .126-.94 3.5 3.5 0 1 0-7 .014 3.5 3.5 0 0 0 3.507 3.494zm-.011-5.453a1.952 1.952 0 0 1 1.87 1.383h-3.733a1.952 1.952 0 0 1 1.863-1.383z" class="cls-1" transform="translate(-79.73 -3.48)"/>
    </g>
</svg>
