<svg xmlns="http://www.w3.org/2000/svg" width="72.554" height="14" viewBox="0 0 72.554 14"><g transform="translate(0)"><g transform="translate(0 0)"><g transform="translate(2.4 2.556)"><path d="M6.887,12.435a.666.666,0,0,1-.51-1.094L8.735,8.53a2.631,2.631,0,0,0-.147-3.592,2.7,2.7,0,0,0-3.809,0,2.639,2.639,0,0,0-.169,3.59l1.314,1.483a.666.666,0,0,1-.053.94h0a.667.667,0,0,1-.94-.054L3.6,9.4A4.008,4.008,0,0,1,6.677,2.818,4.008,4.008,0,0,1,9.522,3.992a3.965,3.965,0,0,1,.237,5.4L7.4,12.2a.668.668,0,0,1-.511.238" transform="translate(-2.645 -2.818)" fill="#fff"/></g><path d="M5.018,14a.666.666,0,0,1-.492-.216L1.515,10.5A6.325,6.325,0,0,1,1.9,1.872a6.433,6.433,0,0,1,9.078.005,6.326,6.326,0,0,1,.373,8.6L8.725,13.625a.666.666,0,0,1-.938.085h0a.666.666,0,0,1-.087-.938h0l2.63-3.15a5,5,0,0,0-.294-6.8,5.111,5.111,0,0,0-7.208,0,5,5,0,0,0-.315,6.8l2.49,2.716,1.745-2a.666.666,0,1,1,1,.875h0L5.519,13.771A.668.668,0,0,1,5.025,14Z" transform="translate(0 0)" fill="#fff"/><g transform="translate(5.215 5.417)"><path d="M8.2,7.2A1.223,1.223,0,1,1,6.973,5.973,1.223,1.223,0,0,1,8.2,7.2" transform="translate(-5.75 -5.973)" fill="#fff"/></g></g><path d="M21.014,10.28a2.436,2.436,0,0,1-.652.078.883.883,0,0,1-.757-.3,1.727,1.727,0,0,1-.223-1V6.69a.008.008,0,0,1,.007-.006h2.059a.008.008,0,0,0,.007-.007V5.565a.008.008,0,0,0-.007-.007H19.389a.008.008,0,0,1-.007-.007V4.338a.7.7,0,0,0-.614-.706.674.674,0,0,0-.732.61c0,.02,0,.041,0,.061V9.066a4.843,4.843,0,0,0,.1,1.029,1.931,1.931,0,0,0,.346.769,1.533,1.533,0,0,0,.663.484,2.827,2.827,0,0,0,1.041.167,3.36,3.36,0,0,0,.891-.106,5.085,5.085,0,0,0,.608-.2V11.2l-.219-1.056-.006-.006h0q-.216.083-.439.144Z" transform="translate(-1.679 -0.338)" fill="#fff"/><path d="M25.834,5.682c-.121-.018-.239-.033-.356-.044a2.856,2.856,0,0,0-.312-.016,6.116,6.116,0,0,0-1.3.128,7.516,7.516,0,0,0-.97.272v5.539a.008.008,0,0,0,.007.007h1.334a.008.008,0,0,0,.007-.007V6.9a2.845,2.845,0,0,1,.346-.076,2.673,2.673,0,0,1,.473-.044,3.408,3.408,0,0,1,.686.062,4.311,4.311,0,0,1,.453.115l.008,0h0l.23-1.123V5.817c-.066-.022-.153-.045-.262-.071s-.225-.047-.347-.064Z" transform="translate(-2.132 -0.523)" fill="#fff"/><path d="M31.239,6.23a1.8,1.8,0,0,0-.726-.468,3.294,3.294,0,0,0-1.125-.167,5.878,5.878,0,0,0-1.047.091,5.481,5.481,0,0,0-.742.177V5.87l.165,1.078.006.006h0A3.817,3.817,0,0,1,28.4,6.8a5.13,5.13,0,0,1,.858-.066,1.587,1.587,0,0,1,.574.091.887.887,0,0,1,.562.624,1.752,1.752,0,0,1,.055.445v.223a4.444,4.444,0,0,0-.523-.091A4.249,4.249,0,0,0,29.459,8a4.4,4.4,0,0,0-.919.091,2.285,2.285,0,0,0-.775.312,1.6,1.6,0,0,0-.529.562,1.7,1.7,0,0,0-.195.847,2.014,2.014,0,0,0,.173.881,1.516,1.516,0,0,0,.479.58,2,2,0,0,0,.741.323,4.253,4.253,0,0,0,.958.1,9.66,9.66,0,0,0,1.42-.091q.624-.091.936-.161l.005-.006V7.91a3.585,3.585,0,0,0-.117-.941A1.754,1.754,0,0,0,31.239,6.23Zm-.8,4.317-.005.007a5.115,5.115,0,0,1-.941.065,1.548,1.548,0,0,1-.816-.181.714.714,0,0,1-.3-.663.7.7,0,0,1,.112-.406.746.746,0,0,1,.295-.251,1.424,1.424,0,0,1,.413-.122,3.043,3.043,0,0,1,.453-.034,2.993,2.993,0,0,1,.468.034,2.713,2.713,0,0,1,.318.065l0,.006Z" transform="translate(-2.517 -0.521)" fill="#fff"/><path d="M41.867,5.595a2.689,2.689,0,0,0-1,.195,2.5,2.5,0,0,0-.869.58,2.831,2.831,0,0,0-.608.964,3.652,3.652,0,0,0-.229,1.348,3.9,3.9,0,0,0,.181,1.209,2.6,2.6,0,0,0,.544.958,2.485,2.485,0,0,0,.936.635,3.577,3.577,0,0,0,1.337.229,5.131,5.131,0,0,0,.59-.034c.193-.023.375-.05.544-.083a4.151,4.151,0,0,0,.445-.112,2.246,2.246,0,0,0,.3-.114v-.007l-.176-1.088-.006-.006h0a3.69,3.69,0,0,1-.635.186,4.2,4.2,0,0,1-.9.091,1.884,1.884,0,0,1-1.276-.385,1.533,1.533,0,0,1-.5-1.078s0-.007.006-.008h3.831a.008.008,0,0,0,.007-.006q.011-.109.016-.245c0-.091.005-.176.005-.25a3.233,3.233,0,0,0-.674-2.228,2.4,2.4,0,0,0-1.877-.748Zm-1.3,2.485a.008.008,0,0,1-.007-.007h0a2.364,2.364,0,0,1,.122-.493,1.416,1.416,0,0,1,.251-.434,1.243,1.243,0,0,1,.4-.307,1.213,1.213,0,0,1,.544-.117,1.175,1.175,0,0,1,.519.106,1.089,1.089,0,0,1,.367.289,1.281,1.281,0,0,1,.229.434,1.791,1.791,0,0,1,.078.522.008.008,0,0,1-.007.007Z" transform="translate(-3.645 -0.52)" fill="#fff"/><path d="M64.128,6.431a2.489,2.489,0,0,0-.886-.619,2.893,2.893,0,0,0-1.131-.218,2.85,2.85,0,0,0-1.125.218,2.557,2.557,0,0,0-.885.619,2.811,2.811,0,0,0-.58.963,3.642,3.642,0,0,0-.206,1.253,3.673,3.673,0,0,0,.206,1.259,2.844,2.844,0,0,0,.574.969,2.575,2.575,0,0,0,.88.624,2.81,2.81,0,0,0,1.136.223,2.867,2.867,0,0,0,1.142-.223,2.555,2.555,0,0,0,.886-.624,2.8,2.8,0,0,0,.569-.969,3.76,3.76,0,0,0,.2-1.259A3.62,3.62,0,0,0,64.7,7.394,2.866,2.866,0,0,0,64.128,6.431Zm-.975,3.61a1.315,1.315,0,0,1-1.844.242,1.33,1.33,0,0,1-.242-.242,2.32,2.32,0,0,1-.373-1.392,2.275,2.275,0,0,1,.373-1.376,1.324,1.324,0,0,1,1.859-.227,1.341,1.341,0,0,1,.227.227,2.275,2.275,0,0,1,.373,1.376A2.326,2.326,0,0,1,63.153,10.041Z" transform="translate(-5.522 -0.521)" fill="#fff"/><path d="M69.581,5.682c-.121-.018-.239-.033-.356-.044a2.856,2.856,0,0,0-.312-.016,6.116,6.116,0,0,0-1.3.128,7.516,7.516,0,0,0-.97.272v5.539l.005.007h1.335a.008.008,0,0,0,.007-.007V6.9a2.846,2.846,0,0,1,.346-.076,2.674,2.674,0,0,1,.473-.044,3.408,3.408,0,0,1,.686.062,4.31,4.31,0,0,1,.453.115l.008,0h0l.231-1.123V5.817c-.066-.022-.153-.045-.262-.071s-.225-.047-.347-.064Z" transform="translate(-6.204 -0.523)" fill="#fff"/><path d="M46.7,3.634a.7.7,0,0,0-.613.706v7.036a.008.008,0,0,0,.007.007h1.334a.008.008,0,0,0,.006-.007V4.3a.674.674,0,0,0-.677-.67l-.057,0Z" transform="translate(-4.291 -0.338)" fill="#fff"/><path d="M72.042,3.634a.673.673,0,0,0-.735.6c0,.016,0,.033,0,.049v7.088a.008.008,0,0,0,.007.007h1.333a.008.008,0,0,0,.007-.007V4.338A.7.7,0,0,0,72.042,3.634Z" transform="translate(-6.638 -0.338)" fill="#fff"/><path d="M78.114,4.31V5.754l-.005.007h0a3.44,3.44,0,0,0-.544-.218,2.534,2.534,0,0,0-.746-.1,2.647,2.647,0,0,0-1.1.218,2.258,2.258,0,0,0-.816.618,2.724,2.724,0,0,0-.507.963,4.273,4.273,0,0,0-.173,1.252,3.637,3.637,0,0,0,.207,1.264,2.654,2.654,0,0,0,.59.958,2.562,2.562,0,0,0,.931.607,3.406,3.406,0,0,0,1.237.212,7.81,7.81,0,0,0,1.276-.1,8.041,8.041,0,0,0,1-.221l0-.006V4.254a.676.676,0,0,0-1.348.056m0,5.959-.005.007c-.1.022-.219.042-.368.06a4.668,4.668,0,0,1-.551.028,1.44,1.44,0,0,1-1.17-.507,2.115,2.115,0,0,1-.424-1.4,2.389,2.389,0,0,1,.339-1.36,1.207,1.207,0,0,1,1.075-.5,1.861,1.861,0,0,1,.629.106,2.1,2.1,0,0,1,.471.226v.005Z" transform="translate(-6.909 -0.34)" fill="#fff"/><path d="M36.67,6.811q-.167.562-.352,1.125t-.375,1.088q-.186.52-.352.938l-.008,0,0,0q-.165-.418-.358-.938t-.38-1.088q-.181-.562-.346-1.125l-.173-.62a.583.583,0,0,0-.563-.433h-.207a.584.584,0,0,0-.559.755q.39,1.284.847,2.438.586,1.484,1.145,2.63H36.14q.559-1.147,1.145-2.63.453-1.154.847-2.437a.585.585,0,0,0-.39-.729.57.57,0,0,0-.17-.025H37.41a.582.582,0,0,0-.562.43q-.082.3-.178.622Z" transform="translate(-3.069 -0.536)" fill="#fff"/><path d="M53.518,4.535a.693.693,0,0,1,.666.494c.075.251.154.509.235.772q.2.657.422,1.316t.439,1.294q.219.635.422,1.2.169-.608.326-1.321T56.343,6.8q.158-.77.309-1.569.1-.507.186-1.006a.693.693,0,0,1,.683-.57h.035a.7.7,0,0,1,.7.7.74.74,0,0,1-.014.134q-.331,1.669-.717,3.234-.483,1.952-1.079,3.729h-1.36q-.872-2.272-1.688-4.961-.418,1.36-.845,2.587t-.856,2.373H50.339q-.607-1.778-1.084-3.729-.382-1.566-.711-3.236a.7.7,0,0,1,.549-.817.72.72,0,0,1,.132-.013h.1a.692.692,0,0,1,.683.569q.091.491.181,1,.151.8.315,1.569t.332,1.49Q51,9,51.173,9.612q.214-.574.433-1.209t.434-1.294q.214-.658.411-1.31.116-.386.223-.757a.7.7,0,0,1,.667-.5Z" transform="translate(-4.518 -0.341)" fill="#fff"/></g></svg>
