<svg xmlns="http://www.w3.org/2000/svg" width="103.419" height="10.263" viewBox="0 0 103.419 10.263">
  <g id="Gruppe_1650" data-name="Gruppe 1650" transform="translate(0 0)">
    <path id="Pfad_902" data-name="Pfad 902" d="M3094.952,136.6l.856-.635a3.248,3.248,0,0,0,2.717,1.669c1.152,0,1.965-.635,1.965-1.624,0-.9-.665-1.255-1.625-1.713l-1.093-.517c-1.137-.546-2.2-1.241-2.2-2.614a2.691,2.691,0,0,1,2.939-2.54,3.609,3.609,0,0,1,3.058,1.654l-.843.635a2.659,2.659,0,0,0-2.23-1.226c-.9,0-1.728.458-1.728,1.418,0,.886.68,1.211,1.566,1.639l1.078.517c1.418.679,2.274,1.4,2.274,2.717,0,1.639-1.344,2.717-3.145,2.717a4.1,4.1,0,0,1-3.589-2.1" transform="translate(-3035.892 -128.434)" fill="#9d7d00"/>
    <path id="Pfad_903" data-name="Pfad 903" d="M3348.072,134.689h-3.441V143.4h-1.152v-8.713h-3.425v-1.034h8.018Z" transform="translate(-3273.079 -133.301)" fill="#9d7d00"/>
    <path id="Pfad_904" data-name="Pfad 904" d="M3618.586,133.662a5.058,5.058,0,1,1-5.066-5.036A5.011,5.011,0,0,1,3618.586,133.662Zm-8.92-.015a3.863,3.863,0,1,0,3.869-3.958A3.828,3.828,0,0,0,3609.666,133.647Z" transform="translate(-3532.827 -128.434)" fill="#9d7d00"/>
    <path id="Pfad_905" data-name="Pfad 905" d="M3991.532,143.4l-3.028-4.091h-2.082V143.4h-1.152v-9.747h3.426a2.815,2.815,0,0,1,3.115,2.821,2.707,2.707,0,0,1-2.051,2.7l3.115,4.223Zm-5.11-5.124h2.229a1.737,1.737,0,0,0,1.965-1.787,1.754,1.754,0,0,0-1.965-1.8h-2.229Z" transform="translate(-3897.46 -133.301)" fill="#9d7d00"/>
    <path id="Pfad_906" data-name="Pfad 906" d="M4275.941,134.689h-5.094v2.983h3.9v1.034h-3.9v3.662h5.271V143.4H4269.7v-9.747h6.245Z" transform="translate(-4172.7 -133.301)" fill="#9d7d00"/>
    <path id="Pfad_1149" data-name="Pfad 1149" d="M1271.7,140.539c0-.755-.518-1.23-1.392-1.23h-2.282v2.46h2.282c.874,0,1.392-.46,1.392-1.23m-3.674-5.111v2.237h1.377c.83,0,1.275-.459,1.275-1.126s-.445-1.111-1.275-1.111Zm5.644,5.185a2.926,2.926,0,0,1-3.215,2.874H1266.1V133.71h3.466a2.8,2.8,0,0,1,3.1,2.726,2.376,2.376,0,0,1-.726,1.763,2.446,2.446,0,0,1,1.733,2.415" transform="translate(-1266.103 -133.354)" fill="#333"/>
    <path id="Pfad_1150" data-name="Pfad 1150" d="M1551.135,133.711v9.778h6.755v-1.808h-4.755v-2.474h3.363v-1.7h-3.363v-1.985h4.577v-1.807Z" transform="translate(-1541.931 -133.355)" fill="#333"/>
    <path id="Pfad_1151" data-name="Pfad 1151" d="M1814.141,122.7v9.956h2v-5.867l5.659,6.045h.666v-9.956h-2v5.836l-5.674-6.014Z" transform="translate(-1796.443 -122.697)" fill="#333"/>
    <path id="Pfad_1152" data-name="Pfad 1152" d="M2141.422,133.711v9.778h6.754v-1.808h-4.755v-2.474h3.364v-1.7h-3.364v-1.985H2148v-1.807Z" transform="translate(-2113.155 -133.355)" fill="#333"/>
    <path id="Pfad_1153" data-name="Pfad 1153" d="M2404.427,133.711v9.778h2V139.77h3.63v-1.808h-3.63v-2.444h4.43v-1.807Z" transform="translate(-2367.667 -133.355)" fill="#333"/>
    <rect id="Rechteck_1534" data-name="Rechteck 1534" width="2" height="9.778" transform="translate(44.691 0.356)" fill="#333"/>
    <path id="Pfad_1154" data-name="Pfad 1154" d="M2752.833,133.711v1.807h3.126v7.97h2v-7.97h3.141v-1.807Z" transform="translate(-2704.822 -133.355)" fill="#333"/>
  </g>
</svg>
