<svg xmlns="http://www.w3.org/2000/svg" width="97.839" height="17.168" viewBox="0 0 97.839 17.168">
  <g id="Gruppe_1649" data-name="Gruppe 1649" transform="translate(0 0)">
    <path id="Pfad_19" data-name="Pfad 19" d="M164.571,254.406a1.824,1.824,0,0,0,.239-.19,1.775,1.775,0,0,0,.561-1.3v-.038a1.776,1.776,0,0,0-.747-1.412.86.86,0,0,1,.661-.309.871.871,0,0,1,.357.078l.107.058a3.267,3.267,0,0,0,2.885.063,3.217,3.217,0,0,0,.371-.2l0,0a1.433,1.433,0,0,0,.63-1.18,1.522,1.522,0,0,0-.06-.409,1.257,1.257,0,0,1-.59.42q-.126.032-.253.058a8.135,8.135,0,0,1-1.663.172c-.086,0-.172,0-.258-.005q-.389-.012-.769-.06a4.236,4.236,0,0,0,.753-.07,4.162,4.162,0,0,0,2.824-1.982l.009,0,0-.006a4.1,4.1,0,0,0,.487-1.292,4.165,4.165,0,0,0,.077-.795v-.045l0-.02,0-.034a.418.418,0,0,0-.143-.279l0,0a2.018,2.018,0,0,0-1.226-.413l-.086,0a1.5,1.5,0,0,1,.381-.051,1.521,1.521,0,0,1,.293.029l0,0a1.471,1.471,0,0,0,.243.022,1.549,1.549,0,0,0,.276-.026l.068-.014.1-.025h0a.411.411,0,0,0,.152-.652l-.1-.086c-.137-.11-.279-.214-.425-.312a5.645,5.645,0,0,0-1.547-.719c-.171-.05-.345-.092-.522-.125-.074-.014-.149-.028-.224-.039q-.148-.023-.3-.037c-.18-.017-.363-.027-.547-.027a5.862,5.862,0,0,0-.637.036h-.008l-.053.008a.187.187,0,0,0-.134.179l.039.113.035.036a1.717,1.717,0,0,1,.346.515l.008.038-.088.1h-.024a1.362,1.362,0,0,1-.75-.266h0a2.665,2.665,0,0,0-.721-.4,2.6,2.6,0,0,0-.284-.084,2.719,2.719,0,0,0-.619-.073l-.111-.025a.267.267,0,0,1,.016-.493l.1-.018a6.764,6.764,0,0,1,.676-.07c.121-.006.242-.01.364-.01h.031a6.79,6.79,0,0,1,.832.056h.009a2.281,2.281,0,0,0,.31.022,2.237,2.237,0,0,0,.817-.16.221.221,0,0,0,.143-.206l-.038-.124-.091-.077a4.481,4.481,0,0,0-.567-.389,4.336,4.336,0,0,0-2.169-.582H164c-.072,0-.145,0-.216,0a4.294,4.294,0,0,0-.582.069.9.9,0,0,0-.188-1.251,3.318,3.318,0,0,0-1.465-.612,3.44,3.44,0,0,0-.514-.039c-.061,0-.124,0-.184,0-.137,0-.274,0-.413,0-.344,0-.687.012-1.026.034a15.6,15.6,0,0,0-10.289,4.807,6.507,6.507,0,0,1,2.746-.6c.17,0,.34.009.507.021a6.366,6.366,0,0,0-3.9,4.533,3.4,3.4,0,0,1,2.188-.382,6.978,6.978,0,0,0-2.181,5.071v.026q.3-.157.6-.3a13.228,13.228,0,0,1,4.425-1.178q.579-.051,1.172-.052a6.174,6.174,0,0,1,1.892.3c.094.031.187.063.279.1a1.306,1.306,0,0,1,.591,1.792s-.052.1,0,0a5.524,5.524,0,0,1-2.488,2.366,6.478,6.478,0,0,1-1,.434,17.735,17.735,0,0,0,6.678-.435q.652-.171,1.285-.39l.036-.013a17.424,17.424,0,0,0,1.687-.688C163.852,254.777,164.475,254.469,164.571,254.406Z" transform="translate(-148.477 -239.37)" fill="#333"/>
    <path id="Pfad_20" data-name="Pfad 20" d="M187.989,244.483l-.068-.061-.035-.025q-.205-.165-.425-.312a5.661,5.661,0,0,0-1.395-.671l-.152-.048c-.171-.05-.345-.092-.522-.125-.074-.014-.149-.028-.224-.039-.1-.015-.2-.027-.3-.037-.18-.017-.363-.027-.547-.027a5.854,5.854,0,0,0-.637.036h-.008l-.053.008-.081.049-.054.131.039.113.035.036a1.717,1.717,0,0,1,.346.515l.007.038-.017.053-.07.042H183.8l-.148-.016a1.347,1.347,0,0,1-.538-.207l-.064-.043h0a2.653,2.653,0,0,0-1.548-.549l-.078,0-.111-.025-.125-.117-.033-.126a.268.268,0,0,1,.173-.25l.1-.018a6.767,6.767,0,0,1,.676-.07l.093,0c.09,0,.18-.007.271-.007h.031a6.79,6.79,0,0,1,.832.056h.009a2.281,2.281,0,0,0,.31.022,2.238,2.238,0,0,0,.817-.16.222.222,0,0,0,.143-.206l-.019-.1-.019-.028-.005,0-.087-.072c-.089-.072-.181-.14-.275-.205s-.192-.126-.291-.184a4.312,4.312,0,0,0-1.821-.567c-.114-.01-.231-.016-.347-.016h-.008c-.069,0-.136,0-.2,0h-.012a4.314,4.314,0,0,0-.583.069.886.886,0,0,0,.171-.484l0-.045a.9.9,0,0,0-.362-.722,3.336,3.336,0,0,0-1.465-.612,3.441,3.441,0,0,0-.514-.039c-.062,0-.123,0-.184,0-.137,0-.274,0-.413,0-.344,0-.686.012-1.026.034a15.849,15.849,0,0,0-1.973.255l.046.119a.8.8,0,0,1-.106.57c.33.09.664.2.938.307,1.119.426,1.683.864,1.833,1.434a1.625,1.625,0,0,0,.207.084c.107.036.248.095.412.169a25.678,25.678,0,0,1,2.4,1.286l.095.063c.373.267.826.4.453,1.625-.356,1.171-.158,2.476-.95,3.535l.1.512a2.988,2.988,0,0,1-.4,2.118,2.629,2.629,0,0,1-1.716,1.1l-.057.013c-.111.021-.219.039-.325.055a5.706,5.706,0,0,1-.822.064,4,4,0,0,1-.952-.108,2.229,2.229,0,0,1-.008.465c-.149,1.223-1.283,2.344-3.278,3.24-.1.043-.194.084-.292.125q.572.037,1.154.038a17.613,17.613,0,0,0,4.465-.573q.652-.171,1.284-.39l.036-.013a17.5,17.5,0,0,0,1.687-.688l.274-.132c.117-.058.56-.275.656-.338a1.828,1.828,0,0,0,.239-.19,1.775,1.775,0,0,0,.561-1.3v-.038a1.777,1.777,0,0,0-.719-1.391l-.028-.021a.859.859,0,0,1,.661-.309.872.872,0,0,1,.357.078l.107.058a3.267,3.267,0,0,0,2.885.063,3.222,3.222,0,0,0,.371-.2l0,0a1.424,1.424,0,0,0,.586-.83l.03-.151a1.36,1.36,0,0,0,.016-.2,1.472,1.472,0,0,0-.011-.172l-.01-.062c-.007-.063-.015-.1-.015-.1l0,.005-.02-.08a1.252,1.252,0,0,1-.59.42c-.084.021-.168.04-.253.058a8.125,8.125,0,0,1-1.662.172c-.086,0-.172,0-.258-.005s-.169-.008-.254-.014c-.173-.01-.345-.024-.515-.046a4.241,4.241,0,0,0,.753-.07,4.162,4.162,0,0,0,2.824-1.982l.009,0,0-.006a4.1,4.1,0,0,0,.487-1.292,4.167,4.167,0,0,0,.077-.795v-.045l0-.02,0-.034a.418.418,0,0,0-.143-.279h0l0,0-.031-.022-.055-.038a2.013,2.013,0,0,0-.815-.327,2.057,2.057,0,0,0-.325-.026l-.086,0a1.48,1.48,0,0,1,.674-.022l0,0a1.471,1.471,0,0,0,.243.022,1.55,1.55,0,0,0,.276-.026l.068-.014.1-.025h0a.414.414,0,0,0,.255-.382.4.4,0,0,0-.052-.2Z" transform="translate(-158.136 -239.37)" fill="#bcbcbb"/>
    <path id="Pfad_21" data-name="Pfad 21" d="M307.664,250.55a1.114,1.114,0,0,1-1.114-1.114V245.09h1.259v-2.167H306.55v-1.3l0-.066,0-.06a2.23,2.23,0,0,0-2.228-2.166v3.6h-1.259v2.167h1.259v5.436h.009a2.218,2.218,0,0,0,2.219,2.191l1.259-2.177Z" transform="translate(-209.97 -239.326)" fill="#333"/>
    <path id="Pfad_22" data-name="Pfad 22" d="M214.495,250.55h-5.573a1.114,1.114,0,0,1-1.114-1.114v-7.973a2.181,2.181,0,0,0-2.182-2.137h0l-.042,0v11.19l0,.032a2.219,2.219,0,0,0,1.923,2.167h6.989Z" transform="translate(-171.192 -239.326)" fill="#333"/>
    <path id="Pfad_23" data-name="Pfad 23" d="M227.587,245.766l-3.177,5.5-3.177-5.5h-2.417l1.911,3.309,2.474,4.284-1.016,1.758-.376.651a2.971,2.971,0,0,1-2.375,1.187v2.1q.249,0,.493-.025a5.072,5.072,0,0,0,3.685-2.2,5.127,5.127,0,0,0,.379-.656l.418-.724,1.209-2.093L230,245.766Z" transform="translate(-176.457 -241.888)" fill="#333"/>
    <path id="Pfad_24" data-name="Pfad 24" d="M259.246,250.373a5.052,5.052,0,1,0-5.042,5.062A5.051,5.051,0,0,0,259.246,250.373Zm-7.868.016a2.817,2.817,0,1,1,2.822,2.81A2.817,2.817,0,0,1,251.378,250.388Z" transform="translate(-188.521 -241.714)" fill="#333"/>
    <path id="Pfad_25" data-name="Pfad 25" d="M241.139,253.2a2.817,2.817,0,1,1,1.33-5.3l1.12-1.935a5.052,5.052,0,1,0,.074,8.793l-1.119-1.937A2.8,2.8,0,0,1,241.139,253.2Z" transform="translate(-183.328 -241.715)" fill="#333"/>
    <path id="Pfad_26" data-name="Pfad 26" d="M272.358,247.532a2.817,2.817,0,0,1,2.822,2.811v.005h.008v4.806h2.227v-4.816a5.052,5.052,0,0,0-7.876-4.179q-.211.143-.406.3a2.13,2.13,0,0,0-1.732-.885l-.09,0v9.569h2.228v-4.8h.008A2.817,2.817,0,0,1,272.358,247.532Z" transform="translate(-195.748 -241.701)" fill="#333"/>
    <path id="Pfad_27" data-name="Pfad 27" d="M290.371,255.4a5.046,5.046,0,0,0,4.184-2.236h-4.189a2.815,2.815,0,0,1-2.479-1.469h7.343a5.025,5.025,0,0,0,.182-1.357,5.051,5.051,0,1,0-10.1.02,5.052,5.052,0,0,0,5.061,5.042Zm-.016-7.868a2.816,2.816,0,0,1,2.7,2h-5.387A2.817,2.817,0,0,1,290.355,247.533Z" transform="translate(-202.908 -241.701)" fill="#333"/>
  </g>
</svg>
