<svg xmlns="http://www.w3.org/2000/svg" xmlns:xlink="http://www.w3.org/1999/xlink" width="119" height="23.783" viewBox="0 0 119 23.783"><defs><clipPath id="a"><rect width="118.999" height="23.783" fill="none"/></clipPath></defs><g transform="translate(0 0)" clip-path="url(#a)"><path d="M116.138,37.081a3.966,3.966,0,0,1-2.216.627,2.783,2.783,0,0,1-3.057-2.95,2.834,2.834,0,0,1,3.1-3.01,3.872,3.872,0,0,1,2.17.611v-1.3a5.561,5.561,0,0,0-2.338-.5,4.113,4.113,0,0,0-4.4,4.264c0,2.476,1.712,4.081,4.356,4.081a5.57,5.57,0,0,0,2.384-.5Zm1.244,1.636h1.391V35.155h3.913v3.562h1.391v-8.04h-1.391v3.271h-3.913V30.677h-1.391Zm8.444,0h1.391v-8.04h-1.391Zm3.123,0h5.044V37.508h-3.653V30.677H128.95Zm6.01-.031.215.016c.6.046,1.146.076,1.681.076a5.584,5.584,0,0,0,3.653-.948,3.9,3.9,0,0,0,1.467-3.225,3.773,3.773,0,0,0-1.33-3.072,5.307,5.307,0,0,0-3.484-.9c-.673,0-1.208.031-1.972.092l-.23.031Zm1.391-6.817c.428-.03.719-.045,1.04-.045,2.032,0,3.118.993,3.118,2.858a2.823,2.823,0,0,1-.856,2.2,3.391,3.391,0,0,1-2.4.7c-.275,0-.52,0-.9-.031Zm12.777,4.081a1.78,1.78,0,0,1,1.208-1.238,1.69,1.69,0,0,1,.32.978c0,1.238-1.069,2-2.751,2-1.361,0-2.247-.6-2.247-1.483,0-.825.657-1.391,1.88-1.6v-.994c-1.024-.107-1.528-.458-1.528-1.07,0-.6.6-.993,1.467-.993a3.026,3.026,0,0,1,1.636.489V30.922a3.827,3.827,0,0,0-1.757-.413c-1.513,0-2.614.856-2.614,2.032a1.6,1.6,0,0,0,1.528,1.59c-1.314.4-1.987,1.146-1.987,2.231,0,1.5,1.421,2.522,3.53,2.522,2.339,0,3.989-1.3,3.989-3.133a3.183,3.183,0,0,0-.321-1.376c.535-.152,1.024-.259,1.6-.367l.169-.031v-1.1l-.184.045a15.439,15.439,0,0,0-3.53,1.055,2.831,2.831,0,0,0-1.621,1.972Zm6.434,2.766h1.391V35.339h3.454V34.131h-3.454V31.884h3.592V30.677h-4.982Zm4.819,0h1.406l.077-.2c.168-.489.413-1.162.809-2.216l.077-.183h3.194l.061.168.336.979c.138.382.276.794.413,1.253l.061.2h1.513l-.138-.382c-.381-1.161-.856-2.415-1.345-3.744-.489-1.3-.841-2.17-1.452-3.623l-.107-.29H163.7l-.123.275c-.672,1.467-1.07,2.384-1.558,3.576-.6,1.452-1.116,2.736-1.513,3.852Zm2.8-3.623.106-.29c.046-.123.092-.214.214-.55.092-.229.2-.474.291-.719.137-.32.183-.428.214-.519l.336-.81.092-.229c.122.306.183.443.382,1.009l.337.917c.106.275.214.6.336.948l.076.244Zm5.924,3.623h1.345l.015-.215c.015-.856.107-2.567.153-3.408l.122-1.926v-.489c0-.276,0-.52-.046-1.116h.03a11.017,11.017,0,0,0,.856,2.461c.168.443.413,1.054.81,2.155.291.795.428,1.192.8,2.2l.107.336H174.5l.107-.336c.168-.474.413-1.147.688-1.9.428-1.193.719-1.957.932-2.461a11.407,11.407,0,0,0,.841-2.461h.031c-.046.612-.046.856-.046,1.116v.489l.122,1.926c.031.413.061,1.024.091,1.8.031.719.046,1.254.061,1.605l.016.215h1.375l-.03-.4c-.031-.872-.077-1.6-.123-2.354-.076-1.04-.168-2.323-.23-3.057l-.168-1.926-.031-.306H177c-.673,0-.734.061-1.177,1.131-.275.657-.718,1.773-1.07,2.644a11.3,11.3,0,0,0-.81,3.011,9.874,9.874,0,0,0-.305-1.513c-.184-.627-.413-1.223-1.04-2.813-.382-.947-.673-1.65-.78-1.9a.831.831,0,0,0-.948-.565h-1.191l-.031.306c-.168,1.864-.229,2.537-.321,3.882-.107,1.314-.168,2.323-.214,3.454Zm11.192,0h1.391v-8.04h-1.391Zm3.124,0h5.043V37.508h-3.653V30.677h-1.391Zm6.9,0h1.391V35.491l.138-.2c1.07-1.421,2.2-3.057,3.042-4.417l.122-.2h-1.558l-.062.107c-.52.871-1.558,2.461-2.246,3.408l-.092.138c-.153-.229-.244-.382-.473-.749l-.642-1.008c-.291-.474-.688-1.131-1.07-1.789l-.062-.107h-1.635l.138.214a51.27,51.27,0,0,0,2.873,4.417l.138.183Z" transform="translate(-76.013 -21.199)" fill="#333"/><path d="M193.169,65.275h.591V63.839h1.468v-.513H193.76v-.955h1.526v-.513h-2.118Zm2.723-1.663a1.588,1.588,0,0,0,1.663,1.754,1.641,1.641,0,0,0,1.7-1.812,1.588,1.588,0,0,0-1.663-1.753,1.637,1.637,0,0,0-1.7,1.812m.624-.033c0-.8.389-1.273,1.058-1.273s1.059.469,1.059,1.273-.389,1.28-1.059,1.28-1.058-.475-1.058-1.28m3.541-1.721v2.118a1.3,1.3,0,0,0,.286.98,1.812,1.812,0,0,0,2.247,0,1.329,1.329,0,0,0,.286-.98V61.858h-.591v2.02a1.178,1.178,0,0,1-.123.67.8.8,0,0,1-.7.292.825.825,0,0,1-.656-.247,1.047,1.047,0,0,1-.163-.715v-2.02Zm3.816,3.417h.552V62.93a4.563,4.563,0,0,0-.071-.682,3.663,3.663,0,0,0,.318.734l1.306,2.1c.091.156.162.189.37.189h.507V61.858H206.3V64.2a4.1,4.1,0,0,0,.078.689,4.351,4.351,0,0,0-.325-.741l-1.3-2.1c-.091-.156-.162-.189-.37-.189h-.514Zm4.015-.013.091.006c.253.019.487.033.714.033a2.375,2.375,0,0,0,1.553-.4,1.656,1.656,0,0,0,.623-1.371,1.6,1.6,0,0,0-.565-1.305,2.256,2.256,0,0,0-1.481-.383c-.286,0-.513.013-.838.039l-.1.013Zm.591-2.9c.182-.013.3-.019.442-.019.864,0,1.325.422,1.325,1.215a1.2,1.2,0,0,1-.364.935,1.439,1.439,0,0,1-1.02.3c-.117,0-.22,0-.383-.013Zm2.69,2.911h.6l.033-.085c.072-.208.175-.493.344-.942l.033-.078h1.357l.026.071.143.416c.059.162.117.338.175.533l.026.085h.643l-.059-.163c-.162-.493-.363-1.026-.571-1.591s-.358-.922-.617-1.539l-.045-.123h-.676l-.052.117c-.286.624-.455,1.014-.663,1.52-.253.617-.474,1.163-.643,1.637Zm1.189-1.54.045-.123c.02-.052.04-.091.092-.234.039-.1.084-.2.123-.305.058-.136.078-.182.091-.221l.143-.344.039-.1c.052.13.078.189.162.429l.144.389c.045.117.091.254.142.4l.033.1Zm3.247,1.54h.591v-2.9h1.143v-.513h-2.878v.513H215.6Zm2.406,0h.591V61.858h-.591Zm1.439-1.663a1.588,1.588,0,0,0,1.663,1.754,1.641,1.641,0,0,0,1.7-1.812,1.587,1.587,0,0,0-1.662-1.753,1.637,1.637,0,0,0-1.7,1.812m.623-.033c0-.8.39-1.273,1.059-1.273s1.059.469,1.059,1.273-.39,1.28-1.059,1.28-1.059-.475-1.059-1.28m3.592,1.7h.552V62.93a4.511,4.511,0,0,0-.072-.682,3.6,3.6,0,0,0,.319.734l1.305,2.1c.091.156.162.189.37.189h.507V61.858h-.553V64.2a4.15,4.15,0,0,0,.078.689,4.275,4.275,0,0,0-.325-.741l-1.3-2.1c-.091-.156-.163-.189-.37-.189h-.514Z" transform="translate(-134.22 -42.941)" fill="#333"/><path d="M71.894,29.634c.983-.376.34-1.176-.11-1.49-.345-.24-1.035-.4-1.325.138-.459.851.488,1.715,1.435,1.352" transform="translate(-48.874 -19.4)" fill="#f3bb00"/><path d="M30.522,10.082c-.1-.387-2.241-.731-2.817-.82A6.461,6.461,0,0,0,26.6,8c-3.319-2.866-6.378-2.36-6.764-2.02a.74.74,0,0,0-.023.646c.08.107,4.213.09,5.68,3.019a3.65,3.65,0,0,1,.323,2.487,2.119,2.119,0,0,1-.674,1.054,3.418,3.418,0,0,1-1.2.648A7.929,7.929,0,0,1,20.9,14.1a11.536,11.536,0,0,1-2.379-.427,9.856,9.856,0,0,1-1.769-.725,16.257,16.257,0,0,0,.367-4.1,17.265,17.265,0,0,0-.443-3.435A10.558,10.558,0,0,0,15.749,2.9,6.474,6.474,0,0,0,14.119.81,3.258,3.258,0,0,0,11.606.03,2.979,2.979,0,0,0,9.556,1.4,5.991,5.991,0,0,0,8.75,4.033,10.534,10.534,0,0,0,8.835,6.8a9.923,9.923,0,0,0,.741,2.52,14.012,14.012,0,0,0,.978,1.765,13.5,13.5,0,0,0,1.763,2.154,17.8,17.8,0,0,0-4.736.883,15,15,0,0,0-4.9,2.592C1.171,17.96-.264,19.793.041,21.558A2.458,2.458,0,0,0,1.2,23.236a4.894,4.894,0,0,0,2.894.522A14.375,14.375,0,0,0,10,21.71a15.46,15.46,0,0,0,4.073-3.283,12.332,12.332,0,0,0,1.519-2.274,13.076,13.076,0,0,1,2.352.838,22.972,22.972,0,0,1,2.191,1.13,8.256,8.256,0,0,0,1.121.751,1.12,1.12,0,0,0,.808-.562,3.75,3.75,0,0,0-.805-1.207,2.508,2.508,0,0,0-.45-.427c.094.005.191.012.293.021a9.345,9.345,0,0,0,3.891-.571,6.551,6.551,0,0,0,2.382-1.464A4.066,4.066,0,0,0,28.56,12.4a3.593,3.593,0,0,0,.033-.654c.815-.435,2.063-1.126,1.93-1.665M11.932,7.858A10.3,10.3,0,0,1,11.5,6.621a11.49,11.49,0,0,1-.47-2.669,4.244,4.244,0,0,1,.122-1.318c.089-.323.265-.753.666-.844a.857.857,0,0,1,.5.084,1.767,1.767,0,0,1,.478.365,3.691,3.691,0,0,1,.694,1.1A9.488,9.488,0,0,1,14.141,5.9,17.563,17.563,0,0,1,14.253,9.2a16.23,16.23,0,0,1-.185,1.736l-.025-.025a12.275,12.275,0,0,1-1.519-1.954,8.455,8.455,0,0,1-.592-1.1m-1.9,10.458A19.223,19.223,0,0,1,7.768,19.9a10.847,10.847,0,0,1-2.982,1.3,4.314,4.314,0,0,1-1.124.136,1.128,1.128,0,0,1-.817-.266.989.989,0,0,1,.1-1.044,4.368,4.368,0,0,1,.948-1.12,10.648,10.648,0,0,1,2.665-1.65,15.7,15.7,0,0,1,5.54-1.409l.18-.007c-.121.189-.247.376-.381.559a10.322,10.322,0,0,1-1.86,1.924" transform="translate(0 0)" fill="#f3bb00"/></g></svg>