<svg xmlns="http://www.w3.org/2000/svg" width="111.603" height="20.962" viewBox="0 0 111.603 20.962"><path d="M8.432,54.937C6.556,56.511,3.925,56.511,2.5,57.374a4.327,4.327,0,0,0-.582.367l.065-.065c1.316-1.337,4.141-1.488,6.06-3.192a1.972,1.972,0,0,1-.3-1.057,1.734,1.734,0,0,1,.065-.474,1.836,1.836,0,0,1-.841-.755,7.887,7.887,0,0,1-.712-1.9C1.014,52.586,0,60.393,0,60.393l.086.022A13.192,13.192,0,0,1,1.7,59.552c2.006-.949,6.168-.194,8.324-3.386a6.465,6.465,0,0,1-1.6-1.229" transform="translate(0 -39.452)" fill="#76bc21"/><path d="M51.656,50.613a13.3,13.3,0,0,1-1.574-.8c-1.6-.906-3.256-3.947-5.931-4.615a5.236,5.236,0,0,1-.863,2.178c1.984.712,3.407,2.631,4.766,3.213a5.084,5.084,0,0,0,.6.259h-.086c-1.682-.216-3.407-2.351-5.65-2.933-.108.129-.216.259-.323.367h0a5.378,5.378,0,0,1-.5.5h0a2.717,2.717,0,0,1-1.035.431s-.086.022-.237.065a.6.6,0,0,1-.194.022h0l-.561.022a2.629,2.629,0,0,1-.69-.086l-.69-.151a.887.887,0,0,0,0,.431,2.823,2.823,0,0,0,.647,1.423,6.955,6.955,0,0,0,4.7,2.157h.906A14.76,14.76,0,0,0,51.678,50.7s.022-.065-.022-.086" transform="translate(-30.328 -35.452)" fill="#76bc21"/><path d="M34,11.387a2.9,2.9,0,0,1-.367.669l-.065.108a5.506,5.506,0,0,1-.453.6c-.086.108-.474.518-.582.625-.237.259.151.237.5.194.065,0,.129-.022.194-.022.151-.043.237-.065.237-.065a2.865,2.865,0,0,0,1.035-.431h0c.173-.173.345-.323.5-.5h0c.108-.129.216-.259.323-.367a4.892,4.892,0,0,0,.388-.539,5.236,5.236,0,0,0,.863-2.178C37,6.47,34.646,3.774,34.322,1.833a11.445,11.445,0,0,1-.216-1.79L34.063,0h-.022s-5.78,4.9-4.507,10.546a7.564,7.564,0,0,0,.712,1.9,1.832,1.832,0,0,0,.841.755l.108.043c.022,0,.431.151.6.022l.043-.043a2.462,2.462,0,0,0,.237-.237,5.275,5.275,0,0,0,.669-.733,4.373,4.373,0,0,0,.28-.388,2.54,2.54,0,0,0,.237-.41A4.931,4.931,0,0,0,33.8,9.6C34.02,7.16,32.64,4.744,32.942,3l.022-.086a6.148,6.148,0,0,0,.043.669c.108,1.531,1.423,3.6,1.38,5.844a5.045,5.045,0,0,1-.431,1.962" transform="translate(-23.022)" fill="#76bc21"/><path d="M116.511,15.309a4.6,4.6,0,0,1-.345,1.812,3.548,3.548,0,0,1-.884,1.251,3.854,3.854,0,0,1-1.337.733,5.828,5.828,0,0,1-1.661.237,4.4,4.4,0,0,1-3.149-1.035,3.908,3.908,0,0,1-1.1-3,3.8,3.8,0,0,1,1.272-2.933,4.144,4.144,0,0,1,1.337-.69,5.548,5.548,0,0,1,1.574-.216,4.728,4.728,0,0,1,3.17.992,3.7,3.7,0,0,1,1.121,2.847m1.035,4.55.043-9.015h-1.057v1.639a4.18,4.18,0,0,0-.69-.8,4.37,4.37,0,0,0-1.078-.69,5.984,5.984,0,0,0-1.251-.367,8.686,8.686,0,0,0-1.272-.108,6.509,6.509,0,0,0-2.372.388,4.53,4.53,0,0,0-1.617,1.078,4.14,4.14,0,0,0-.949,1.553,5.7,5.7,0,0,0-.3,1.812,6.047,6.047,0,0,0,.28,1.855,4.243,4.243,0,0,0,.906,1.574,4.576,4.576,0,0,0,1.617,1.1,6.384,6.384,0,0,0,2.372.431,6.17,6.17,0,0,0,2.674-.539,4.031,4.031,0,0,0,1.661-1.466v1.6a5.333,5.333,0,0,1-.173,1.294,2.668,2.668,0,0,1-.6,1.143,3.1,3.1,0,0,1-1.272.82,5.9,5.9,0,0,1-2.157.323,7.89,7.89,0,0,1-1.725-.173,3.5,3.5,0,0,1-1.186-.474,1.964,1.964,0,0,1-.669-.733,2.339,2.339,0,0,1-.3-.949l-.022-.108h-1.057l.022.129a3.231,3.231,0,0,0,1.466,2.523,6.762,6.762,0,0,0,3.472.733,7.624,7.624,0,0,0,2.674-.388,3.86,3.86,0,0,0,1.6-1.078,3.787,3.787,0,0,0,.776-1.488,6.91,6.91,0,0,0,.194-1.617m7.526-8.066V10.715l-.086-.022c-.151-.043-.259-.065-.367-.086a1.9,1.9,0,0,0-.367-.043,4.844,4.844,0,0,0-2.459.625,3.96,3.96,0,0,0-1.38,1.531v-1.9h-1.057l-.043,9.575h1.057l.022-5.176a4.188,4.188,0,0,1,.237-1.359A3.489,3.489,0,0,1,121.3,12.7a3.339,3.339,0,0,1,1.1-.819,3.5,3.5,0,0,1,1.553-.3,4.185,4.185,0,0,1,.582.022,1.341,1.341,0,0,1,.345.086Zm9.273,3.235L126,15.007a4.4,4.4,0,0,1,1.316-2.5,4.2,4.2,0,0,1,2.847-.949,4.684,4.684,0,0,1,1.488.216,3.78,3.78,0,0,1,1.272.669,3.969,3.969,0,0,1,.927,1.121,3.805,3.805,0,0,1,.5,1.466m1.186.949v-.108a6.127,6.127,0,0,0-.367-2.113,4.794,4.794,0,0,0-1.035-1.682,4.394,4.394,0,0,0-1.639-1.1,6.564,6.564,0,0,0-4.788.086,4.749,4.749,0,0,0-1.661,1.251,4.992,4.992,0,0,0-.863,1.639,6.711,6.711,0,0,0-.28,1.617,6.2,6.2,0,0,0,.367,2.157,4.665,4.665,0,0,0,1.057,1.639,4.608,4.608,0,0,0,1.682,1.035,6.356,6.356,0,0,0,2.2.367,5.718,5.718,0,0,0,3.17-.82,5.02,5.02,0,0,0,1.876-2.631l.043-.151h-1.057l-.022.065a7.812,7.812,0,0,1-.367.755,2.934,2.934,0,0,1-.647.841,4.567,4.567,0,0,1-1.121.712,5.06,5.06,0,0,1-1.768.28,5.265,5.265,0,0,1-1.833-.3,3.626,3.626,0,0,1-1.359-.841,3.557,3.557,0,0,1-.841-1.251,4.682,4.682,0,0,1-.3-1.488Zm10.007-.906-8.346-.022a3.943,3.943,0,0,1,4.184-3.451,5.112,5.112,0,0,1,1.51.216,4.237,4.237,0,0,1,1.272.669,3.967,3.967,0,0,1,.927,1.121,5.109,5.109,0,0,1,.453,1.466m1.165.949v-.108a6.127,6.127,0,0,0-.367-2.113,5.083,5.083,0,0,0-1.014-1.682,4.574,4.574,0,0,0-1.639-1.1,5.83,5.83,0,0,0-2.221-.41,5.945,5.945,0,0,0-2.545.5,4.957,4.957,0,0,0-1.661,1.251,4.675,4.675,0,0,0-.884,1.639,6.713,6.713,0,0,0-.28,1.617,5.735,5.735,0,0,0,.367,2.157,4.717,4.717,0,0,0,1.078,1.639,4.821,4.821,0,0,0,1.661,1.035,6.572,6.572,0,0,0,2.221.367,5.769,5.769,0,0,0,3.17-.82,4.772,4.772,0,0,0,1.855-2.631l.065-.151H145.43l-.022.065a7.806,7.806,0,0,1-.367.755,2.935,2.935,0,0,1-.647.841,4.341,4.341,0,0,1-1.143.712,5.061,5.061,0,0,1-1.768.28,5.354,5.354,0,0,1-1.833-.3,3.626,3.626,0,0,1-1.359-.841,3.871,3.871,0,0,1-.841-1.251,4.157,4.157,0,0,1-.3-1.488Zm10.459,4.55.022-5.887c0-.173,0-.41-.022-.69a4.177,4.177,0,0,0-.129-.863,3.948,3.948,0,0,0-.388-.884,3.381,3.381,0,0,0-.776-.8,4.074,4.074,0,0,0-1.229-.582,6.477,6.477,0,0,0-1.833-.216,5.137,5.137,0,0,0-1.466.194,3.671,3.671,0,0,0-1.143.5,4,4,0,0,0-.863.712c-.151.173-.28.367-.431.539V10.952h-1.057l-.022,9.575h1.057l.022-5.586a3.668,3.668,0,0,1,.237-1.251,2.806,2.806,0,0,1,.69-1.057,3.212,3.212,0,0,1,1.208-.755,4.832,4.832,0,0,1,1.768-.28,5.085,5.085,0,0,1,1.661.216,2.262,2.262,0,0,1,1.014.625,1.955,1.955,0,0,1,.518.949,4.788,4.788,0,0,1,.151,1.272l-.022,5.844Zm6.556-12.293V7.329h-.086c-.28-.022-.518-.043-.776-.086a4.3,4.3,0,0,0-1.919.129,1.825,1.825,0,0,0-.776.518,1.942,1.942,0,0,0-.367.8,4.872,4.872,0,0,0-.108,1.014V11h-2.2v.949h2.2l-.065,8.626h1.057l.022-8.648h2.717v-.949H160.7V9.421a1.447,1.447,0,0,1,.172-.755,1.223,1.223,0,0,1,.431-.388,1.064,1.064,0,0,1,.5-.129c.194,0,.324-.022.453-.022.194,0,.41.022.647.022a5.238,5.238,0,0,1,.647.086Zm1.423,2.739h-1.057l-.043,9.575H165.1Zm0-1.553V7.308h-1.057V9.464Zm10.977,11.171.022-5.887c0-.173-.022-.41-.022-.69a4.268,4.268,0,0,0-.151-.863,3.943,3.943,0,0,0-.388-.884,3.269,3.269,0,0,0-.755-.8,4.212,4.212,0,0,0-1.251-.582,6.376,6.376,0,0,0-1.833-.216,5.137,5.137,0,0,0-1.466.194,3.67,3.67,0,0,0-1.143.5,4,4,0,0,0-.863.712,2.968,2.968,0,0,0-.41.539V11.017H166.8l-.043,9.575h1.057l.022-5.586a4.236,4.236,0,0,1,.216-1.251,3.092,3.092,0,0,1,.69-1.057,3.393,3.393,0,0,1,1.208-.755,4.712,4.712,0,0,1,1.747-.28,5.084,5.084,0,0,1,1.661.216,2.47,2.47,0,0,1,1.035.625,2.727,2.727,0,0,1,.539.949,5.879,5.879,0,0,1,.151,1.272l-.022,5.844Zm2.631-9.575h-1.057l-.043,9.575h1.057Zm0-1.553V7.351h-1.057V9.508Zm16.778,1.617h-1.251l-4.054,8.756-4.335-8.734-.022-.065h-3.235l.022-3.17H181.6l-.022,3.17h-2.113v.949h2.113l-.022,6.189a8.6,8.6,0,0,0,.086,1.165,1.783,1.783,0,0,0,.345.82,1.642,1.642,0,0,0,.733.5,3.746,3.746,0,0,0,1.208.151h.733c.259-.022.5-.043.733-.086l.086-.022v-.927l-.712.086a4.156,4.156,0,0,1-1.272-.022,1.234,1.234,0,0,1-.5-.173.736.736,0,0,1-.3-.367,1.671,1.671,0,0,1-.108-.647l.022-6.642h2.459l4.572,9.079-1.078,2.437c-.194.367-.367.69-.5.927a1.622,1.622,0,0,1-.41.5,1.4,1.4,0,0,1-.474.237,3.125,3.125,0,0,1-.69.065h-.474v.992h.647a3.408,3.408,0,0,0,1.014-.129,1.929,1.929,0,0,0,.712-.41,2.189,2.189,0,0,0,.518-.582,4.939,4.939,0,0,0,.41-.755Z" transform="translate(-83.925 -5.647)" fill="#7c7c7b"/><path d="M348.7,84.562h.367v-2.48h0l1.143,2.48h.474V81.543h-.367v2.5h0l-1.143-2.5H348.7Zm-3.149-1.488c0-.927.345-1.272.733-1.272.518,0,.712.582.712,1.208,0,.927-.345,1.272-.733,1.272-.518,0-.712-.6-.712-1.208m-.388,0c0,.927.431,1.51,1.1,1.51.712,0,1.143-.539,1.143-1.574,0-.927-.431-1.51-1.1-1.51-.733,0-1.143.539-1.143,1.574m-1.9,1.488h.388V81.543h-.388Zm-2.48,0h.388v-2.7h.69v-.323H340.1v.323h.69Zm-3.494-1.121.474-1.51h0l.474,1.51Zm.3-1.9-1.014,3.019h.388l.237-.8h1.164l.237.8h.41l-.992-3.019Zm-3.99.323h.237c.755,0,1.014.5,1.014,1.143,0,.776-.345,1.229-1.014,1.229h-.237Zm-.388,2.7h.474a1.4,1.4,0,0,0,1.553-1.553,1.41,1.41,0,0,0-.561-1.251,1.261,1.261,0,0,0-.8-.216h-.668Zm-3.6,0h.367v-2.48h0l1.143,2.48h.474V81.543h-.367v2.5h0l-1.143-2.5h-.474Zm-1.833-3.019h-.388v1.962c0,.474-.216.776-.561.776s-.561-.3-.561-.776V81.543h-.388v1.919a1.236,1.236,0,0,0,.129.669.86.86,0,0,0,.819.474.837.837,0,0,0,.819-.474,1.327,1.327,0,0,0,.129-.669Zm-5.262,1.531c0-.927.345-1.272.733-1.272.518,0,.712.582.712,1.208,0,.927-.345,1.272-.733,1.272-.518,0-.712-.6-.712-1.208m-.388,0c0,.927.431,1.51,1.1,1.51.712,0,1.143-.539,1.143-1.574,0-.927-.431-1.51-1.1-1.51-.733,0-1.143.539-1.143,1.574m-2.911,1.488h.388v-1.4h.927v-.324h-.949v-.97h.97v-.323H319.2v3.019Z" transform="translate(-250.362 -63.924)" fill="#7c7c7b"/></svg>