<svg xmlns="http://www.w3.org/2000/svg" width="71.667" height="7.112" viewBox="0 0 71.667 7.112">
    <defs>
        <style>
            .cls-1{fill:#fff}
        </style>
    </defs>
    <g id="logo-benefit-store-bar" transform="translate(-28.333 -2.746)">
        <path id="Path_902" d="M3094.952 134.152l.594-.44a2.25 2.25 0 0 0 1.883 1.156c.8 0 1.361-.44 1.361-1.126 0-.624-.461-.87-1.126-1.187l-.758-.358c-.788-.379-1.525-.86-1.525-1.811a1.865 1.865 0 0 1 2.036-1.76 2.5 2.5 0 0 1 2.119 1.146l-.583.44a1.844 1.844 0 0 0-1.545-.849c-.624 0-1.2.317-1.2.982 0 .614.471.839 1.085 1.136l.747.358c.982.471 1.575.972 1.575 1.883a1.961 1.961 0 0 1-2.179 1.883 2.837 2.837 0 0 1-2.487-1.453" class="cls-1" transform="translate(-3025.692 -125.748)"/>
        <path id="Path_903" d="M3345.61 134.371h-2.385v6.038h-.8v-6.038h-2.374v-.716h5.557z" class="cls-1" transform="translate(-3265.308 -130.664)"/>
        <path id="Path_904" d="M3615.48 132.116a3.505 3.505 0 1 1-3.511-3.49 3.473 3.473 0 0 1 3.511 3.49zm-6.182-.01a2.677 2.677 0 1 0 2.681-2.743 2.653 2.653 0 0 0-2.679 2.742z" class="cls-1" transform="translate(-3527.718 -125.748)"/>
        <path id="Path_905" d="M3989.609 140.409l-2.1-2.835h-1.443v2.835h-.8v-6.754h2.374a1.951 1.951 0 0 1 2.159 1.955 1.876 1.876 0 0 1-1.422 1.873l2.158 2.927zm-3.541-3.551h1.545a1.2 1.2 0 0 0 1.362-1.238 1.215 1.215 0 0 0-1.362-1.248h-1.545z" class="cls-1" transform="translate(-3896.087 -130.664)"/>
        <path id="Path_906" d="M4274.024 134.371h-3.53v2.067h2.7v.716h-2.7v2.538h3.653v.716h-4.447v-6.754h4.328z" class="cls-1" transform="translate(-4174.147 -130.664)"/>
        <path id="Path_1149" d="M1269.984 138.443c0-.523-.359-.852-.965-.852h-1.581v1.7h1.581c.606 0 .965-.319.965-.853m-2.546-3.542v1.55h.954c.575 0 .884-.318.884-.78s-.308-.77-.884-.77zm3.911 3.593a2.027 2.027 0 0 1-2.228 1.992h-3.021v-6.771h2.4a1.943 1.943 0 0 1 2.146 1.889 1.647 1.647 0 0 1-.5 1.222 1.7 1.7 0 0 1 1.2 1.674" class="cls-1" transform="translate(-1237.77 -130.718)"/>
        <path id="Path_1150" d="M1551.135 133.711v6.776h4.681v-1.253h-3.295v-1.714h2.33v-1.18h-2.33v-1.376h3.172v-1.252z" class="cls-1" transform="translate(-1516.424 -130.719)"/>
        <path id="Path_1151" d="M1814.141 122.7v6.9h1.386v-4.07l3.922 4.189h.462v-6.9h-1.386v4.045l-3.932-4.168z" class="cls-1" transform="translate(-1773.543 -119.951)"/>
        <path id="Path_1152" d="M2141.423 133.711v6.776h4.681v-1.253h-3.3v-1.714h2.331v-1.18h-2.331v-1.376h3.173v-1.252z" class="cls-1" transform="translate(-2093.501 -130.719)"/>
        <path id="Path_1153" d="M2404.427 133.711v6.776h1.386v-2.577h2.516v-1.253h-2.516v-1.694h3.07v-1.252z" class="cls-1" transform="translate(-2350.62 -130.719)"/>
        <path id="Rectangle_1534" d="M0 0H1.386V6.776H0z" class="cls-1" transform="translate(59.303 2.992)"/>
        <path id="Path_1154" d="M2752.833 133.711v1.252H2755v5.523h1.385v-5.523h2.177v-1.252z" class="cls-1" transform="translate(-2691.229 -130.719)"/>
    </g>
</svg>
