<svg xmlns="http://www.w3.org/2000/svg" width="101.67" height="19.618" viewBox="0 0 101.67 19.618"><g transform="translate(0 0)"><g transform="translate(0 0)"><g transform="translate(3.362 3.581)"><path d="M8.589,16.294a.933.933,0,0,1-.714-1.533l3.3-3.94a3.687,3.687,0,0,0-.206-5.034,3.78,3.78,0,0,0-5.338,0,3.7,3.7,0,0,0-.236,5.03L7.24,12.893a.933.933,0,0,1-.074,1.317h0a.934.934,0,0,1-1.318-.075l-1.869-2.1A5.617,5.617,0,0,1,8.3,2.818a5.617,5.617,0,0,1,3.987,1.644,5.556,5.556,0,0,1,.332,7.56l-3.3,3.94a.936.936,0,0,1-.715.333" transform="translate(-2.645 -2.818)" fill="#40b5a8"/></g><path d="M7.032,19.616a.933.933,0,0,1-.689-.3l-4.219-4.6A8.864,8.864,0,0,1,2.659,2.623a9.014,9.014,0,0,1,12.721.008A8.865,8.865,0,0,1,15.9,14.685l-3.675,4.407a.933.933,0,0,1-1.314.119h0a.933.933,0,0,1-.122-1.314h0l3.685-4.414a7.007,7.007,0,0,0-.412-9.53,7.163,7.163,0,0,0-10.1,0,7,7,0,0,0-.441,9.528l3.49,3.806,2.445-2.8a.933.933,0,0,1,1.407,1.226h0L7.735,19.3a.936.936,0,0,1-.693.32Z" transform="translate(0 0)" fill="#40b5a8"/><g transform="translate(7.308 7.591)"><path d="M9.179,7.687A1.714,1.714,0,1,1,7.464,5.973,1.714,1.714,0,0,1,9.179,7.687" transform="translate(-5.75 -5.973)" fill="#40b5a8"/></g></g><path d="M22.21,12.949a3.413,3.413,0,0,1-.914.109,1.237,1.237,0,0,1-1.061-.422,2.42,2.42,0,0,1-.313-1.4V7.918a.011.011,0,0,1,.01-.009h2.885a.011.011,0,0,0,.01-.01V6.342a.011.011,0,0,0-.01-.01H19.933a.011.011,0,0,1-.01-.01v-1.7a.977.977,0,0,0-.86-.989.944.944,0,0,0-1.026.855c0,.028,0,.057,0,.085v6.673a6.786,6.786,0,0,0,.14,1.442,2.706,2.706,0,0,0,.484,1.078,2.148,2.148,0,0,0,.929.679,3.962,3.962,0,0,0,1.459.234,4.708,4.708,0,0,0,1.249-.149,7.126,7.126,0,0,0,.851-.286v-.011l-.308-1.479-.009-.009h0q-.3.116-.615.2Z" transform="translate(4.884 0.983)" fill="#40b5a8"/><path d="M27.012,5.706c-.169-.025-.336-.046-.5-.062a4,4,0,0,0-.437-.023,8.571,8.571,0,0,0-1.819.179,10.532,10.532,0,0,0-1.36.381v7.761a.011.011,0,0,0,.01.01h1.869a.011.011,0,0,0,.01-.01V7.409a3.986,3.986,0,0,1,.485-.107,3.746,3.746,0,0,1,.663-.062,4.775,4.775,0,0,1,.961.086,6.041,6.041,0,0,1,.635.161l.011-.006h0l.323-1.573V5.9c-.093-.031-.215-.064-.367-.1s-.315-.066-.487-.09Z" transform="translate(6.202 1.522)" fill="#40b5a8"/><path d="M32.924,6.485a2.517,2.517,0,0,0-1.017-.656A4.616,4.616,0,0,0,30.33,5.6a8.237,8.237,0,0,0-1.468.127,7.681,7.681,0,0,0-1.04.248v.01l.231,1.511.009.009h0a5.349,5.349,0,0,1,.879-.215,7.188,7.188,0,0,1,1.2-.093,2.223,2.223,0,0,1,.8.127,1.243,1.243,0,0,1,.788.874,2.455,2.455,0,0,1,.078.624V9.13A6.228,6.228,0,0,0,31.085,9a5.954,5.954,0,0,0-.656-.039,6.169,6.169,0,0,0-1.287.127,3.2,3.2,0,0,0-1.085.437,2.246,2.246,0,0,0-.741.788,2.378,2.378,0,0,0-.273,1.187,2.823,2.823,0,0,0,.243,1.234,2.125,2.125,0,0,0,.671.812A2.8,2.8,0,0,0,28.994,14a5.96,5.96,0,0,0,1.342.141,13.537,13.537,0,0,0,1.99-.127q.875-.128,1.312-.225l.008-.009V8.84a5.024,5.024,0,0,0-.164-1.319A2.458,2.458,0,0,0,32.924,6.485Zm-1.117,6.049-.008.01a7.167,7.167,0,0,1-1.319.091,2.17,2.17,0,0,1-1.144-.254,1,1,0,0,1-.421-.929.982.982,0,0,1,.156-.569,1.046,1.046,0,0,1,.413-.352,2,2,0,0,1,.578-.172,4.264,4.264,0,0,1,.635-.047,4.194,4.194,0,0,1,.656.047,3.8,3.8,0,0,1,.446.092l.006.009Z" transform="translate(7.324 1.515)" fill="#40b5a8"/><path d="M42.954,5.6a3.769,3.769,0,0,0-1.4.273,3.5,3.5,0,0,0-1.217.812,3.967,3.967,0,0,0-.851,1.351,5.118,5.118,0,0,0-.32,1.888,5.471,5.471,0,0,0,.254,1.694,3.637,3.637,0,0,0,.763,1.342,3.483,3.483,0,0,0,1.312.89,5.013,5.013,0,0,0,1.873.32,7.19,7.19,0,0,0,.827-.047c.271-.032.525-.07.763-.117a5.817,5.817,0,0,0,.624-.156,3.147,3.147,0,0,0,.423-.16v-.01l-.247-1.525-.009-.009h0a5.171,5.171,0,0,1-.89.261,5.884,5.884,0,0,1-1.257.127,2.64,2.64,0,0,1-1.788-.539,2.148,2.148,0,0,1-.694-1.511c0-.005,0-.01.009-.011h5.368a.011.011,0,0,0,.01-.009q.015-.153.023-.343c.005-.127.008-.247.008-.351a4.531,4.531,0,0,0-.944-3.122A3.364,3.364,0,0,0,42.954,5.6ZM41.139,9.078a.011.011,0,0,1-.01-.01h0a3.313,3.313,0,0,1,.17-.691,1.985,1.985,0,0,1,.352-.609,1.741,1.741,0,0,1,.554-.43,1.7,1.7,0,0,1,.763-.164,1.647,1.647,0,0,1,.727.149,1.526,1.526,0,0,1,.515.405,1.8,1.8,0,0,1,.32.609,2.51,2.51,0,0,1,.109.732.011.011,0,0,1-.01.01Z" transform="translate(10.606 1.514)" fill="#40b5a8"/><path d="M66.059,6.767A3.488,3.488,0,0,0,64.818,5.9,4.054,4.054,0,0,0,63.233,5.6a3.994,3.994,0,0,0-1.577.305,3.584,3.584,0,0,0-1.24.867,3.94,3.94,0,0,0-.812,1.35,5.1,5.1,0,0,0-.288,1.756,5.147,5.147,0,0,0,.288,1.764,3.985,3.985,0,0,0,.8,1.357,3.609,3.609,0,0,0,1.233.874,3.938,3.938,0,0,0,1.592.313,4.018,4.018,0,0,0,1.6-.313,3.58,3.58,0,0,0,1.242-.874,3.926,3.926,0,0,0,.8-1.357,5.269,5.269,0,0,0,.281-1.764,5.072,5.072,0,0,0-.288-1.756A4.017,4.017,0,0,0,66.059,6.767Zm-1.366,5.058a1.842,1.842,0,0,1-2.584.339,1.864,1.864,0,0,1-.339-.339,3.251,3.251,0,0,1-.522-1.951,3.188,3.188,0,0,1,.522-1.928,1.856,1.856,0,0,1,2.605-.318,1.879,1.879,0,0,1,.318.318,3.188,3.188,0,0,1,.522,1.928A3.26,3.26,0,0,1,64.693,11.825Z" transform="translate(16.066 1.515)" fill="#40b5a8"/><path d="M70.759,5.706c-.169-.025-.336-.046-.5-.062a4,4,0,0,0-.437-.023A8.571,8.571,0,0,0,68,5.8a10.533,10.533,0,0,0-1.36.381v7.761l.008.01h1.871a.011.011,0,0,0,.01-.01V7.409a3.987,3.987,0,0,1,.485-.107,3.746,3.746,0,0,1,.663-.062,4.775,4.775,0,0,1,.961.086,6.039,6.039,0,0,1,.635.161l.011-.006h0l.324-1.573V5.9c-.093-.031-.215-.064-.367-.1s-.315-.066-.487-.09Z" transform="translate(18.051 1.522)" fill="#40b5a8"/><path d="M46.949,3.635a.978.978,0,0,0-.859.989v9.859a.011.011,0,0,0,.01.01H47.97a.011.011,0,0,0,.009-.01V4.57a.945.945,0,0,0-.949-.939q-.04,0-.08,0Z" transform="translate(12.484 0.983)" fill="#40b5a8"/><path d="M72.338,3.635a.944.944,0,0,0-1.029.848c0,.023,0,.046,0,.069v9.932a.011.011,0,0,0,.01.01h1.868a.011.011,0,0,0,.01-.01V4.622A.976.976,0,0,0,72.338,3.635Z" transform="translate(19.313 0.983)" fill="#40b5a8"/><path d="M79.679,4.576V6.6l-.008.01h-.006A4.82,4.82,0,0,0,78.9,6.3a3.551,3.551,0,0,0-1.046-.141,3.709,3.709,0,0,0-1.545.305,3.164,3.164,0,0,0-1.144.865,3.817,3.817,0,0,0-.71,1.35,5.987,5.987,0,0,0-.243,1.755,5.1,5.1,0,0,0,.29,1.772,3.718,3.718,0,0,0,.827,1.342,3.59,3.59,0,0,0,1.3.85,4.773,4.773,0,0,0,1.733.3,10.943,10.943,0,0,0,1.788-.141,11.268,11.268,0,0,0,1.406-.31l.006-.009V4.5a.947.947,0,0,0-1.889.079m0,8.351-.008.01c-.135.031-.306.058-.516.084a6.542,6.542,0,0,1-.773.039,2.018,2.018,0,0,1-1.639-.71,2.963,2.963,0,0,1-.593-1.958,3.348,3.348,0,0,1,.475-1.906,1.692,1.692,0,0,1,1.506-.7,2.608,2.608,0,0,1,.882.149,2.944,2.944,0,0,1,.66.316v.008Z" transform="translate(20.101 0.988)" fill="#40b5a8"/><path d="M38.156,7.233q-.234.787-.493,1.577t-.526,1.525q-.261.728-.493,1.314l-.011.005-.005-.005q-.231-.585-.5-1.314t-.532-1.525q-.254-.787-.485-1.577l-.243-.869a.817.817,0,0,0-.789-.606h-.29A.819.819,0,0,0,33,6.815q.547,1.8,1.187,3.416.822,2.08,1.6,3.685h1.62q.783-1.607,1.6-3.685.635-1.617,1.187-3.415a.819.819,0,0,0-.546-1.022.8.8,0,0,0-.238-.036h-.227a.816.816,0,0,0-.788.6q-.114.414-.249.872Z" transform="translate(8.929 1.56)" fill="#40b5a8"/><path d="M55.519,4.887a.971.971,0,0,1,.933.693c.105.352.216.713.329,1.081q.284.921.591,1.844t.615,1.814q.307.89.591,1.679.236-.852.458-1.852t.442-2.08q.221-1.079.433-2.2.135-.711.261-1.409a.971.971,0,0,1,.957-.8h.05a.977.977,0,0,1,.975.977,1.038,1.038,0,0,1-.019.188q-.463,2.339-1.005,4.532-.677,2.736-1.512,5.226H57.71Q56.488,11.4,55.345,7.63q-.585,1.906-1.184,3.626t-1.2,3.326h-1.9q-.85-2.492-1.519-5.226-.536-2.194-1-4.534a.975.975,0,0,1,.769-1.145,1.009,1.009,0,0,1,.186-.018h.139a.969.969,0,0,1,.957.8q.128.688.254,1.4.212,1.119.441,2.2t.465,2.088Q52,11.149,52.233,12q.3-.8.607-1.694t.607-1.814q.3-.923.576-1.836.162-.541.313-1.061a.973.973,0,0,1,.935-.7Z" transform="translate(13.145 0.991)" fill="#40b5a8"/></g></svg>