<svg xmlns="http://www.w3.org/2000/svg" id="logo-travelworld-bar" width="70.456" height="12.264" viewBox="0 0 70.456 12.264">
    <defs>
        <style>
            .cls-1{fill:#fff}
        </style>
    </defs>
    <g id="Group_3301" transform="translate(60.95)">
        <g id="Group_2869" transform="translate(1.775 1.889)">
            <path id="Path_1187" d="M3.134 7.111a.492.492 0 0 1-.376-.811L4.5 4.222a1.952 1.952 0 0 0-.11-2.655 2 2 0 0 0-2.819 0 1.952 1.952 0 0 0-.125 2.653l.978 1.1a.493.493 0 0 1-.039.7.493.493 0 0 1-.7-.039L.7 4.868a2.94 2.94 0 0 1 .176-4 2.984 2.984 0 0 1 4.206 0 2.941 2.941 0 0 1 .17 3.992l-1.74 2.075a.493.493 0 0 1-.378.176" class="cls-1" transform="translate(0 .002)"/>
        </g>
        <g id="Group_2870">
            <path id="Path_1188" d="M3.71 10.353a.493.493 0 0 1-.363-.158L1.121 7.766a4.682 4.682 0 0 1 .279-6.38 4.757 4.757 0 0 1 6.714 0 4.682 4.682 0 0 1 .277 6.364l-1.939 2.326a.493.493 0 0 1-.693.064.493.493 0 0 1-.059-.694l1.942-2.33a3.7 3.7 0 0 0-.216-5.029 3.769 3.769 0 0 0-5.328 0 3.7 3.7 0 0 0-.233 5.03L3.7 9.122l1.29-1.481a.492.492 0 1 1 .742.647l-1.652 1.9a.492.492 0 0 1-.365.169z" class="cls-1" transform="translate(-.001)"/>
        </g>
        <g id="Group_2871" transform="translate(3.855 4.007)">
            <path id="Path_1189" d="M1.809.9a.9.9 0 0 1-.9.9A.9.9 0 0 1 .9 0a.9.9 0 0 1 .9.9" class="cls-1" transform="translate(0 -.001)"/>
        </g>
    </g>
    <path id="Path_1584" d="M42.162 34.42a2.62 2.62 0 0 1-.691.083.936.936 0 0 1-.8-.319 1.83 1.83 0 0 1-.237-1.064v-2.51a.007.007 0 0 1 .007-.007h2.184a.007.007 0 0 0 .007-.007v-1.181a.007.007 0 0 0-.007-.007h-2.187a.007.007 0 0 1-.007-.007v-1.287a.74.74 0 0 0-.651-.749.715.715 0 0 0-.776.649V33.132a5.124 5.124 0 0 0 .105 1.093 2.038 2.038 0 0 0 .368.816 1.624 1.624 0 0 0 .7.514 2.98 2.98 0 0 0 1.1.178 3.547 3.547 0 0 0 .946-.113 5.361 5.361 0 0 0 .645-.216.007.007 0 0 0 0-.008l-.233-1.12a.007.007 0 0 0-.008-.006 4.78 4.78 0 0 1-.465.15z" class="cls-1" transform="translate(-39 -23.491)"/>
    <path id="Path_1585" d="M51.013 31.072c-.126-.019-.251-.035-.378-.047s-.237-.018-.331-.018a6.443 6.443 0 0 0-1.377.136 7.952 7.952 0 0 0-1.03.288.008.008 0 0 0 0 .007v5.874a.007.007 0 0 0 .007.007h1.415a.007.007 0 0 0 .007-.007v-4.94a.007.007 0 0 1 0-.007 3.148 3.148 0 0 1 .368-.081 2.875 2.875 0 0 1 .5-.047 3.63 3.63 0 0 1 .727.065 4.639 4.639 0 0 1 .483.122.007.007 0 0 0 .009 0l.245-1.191a.007.007 0 0 0 0-.008q-.1-.035-.278-.075c-.115-.033-.241-.059-.367-.078z" class="cls-1" transform="translate(-43.217 -25.219)"/>
    <path id="Path_1586" d="M59.927 31.634a1.909 1.909 0 0 0-.774-.5 3.5 3.5 0 0 0-1.194-.177 6.248 6.248 0 0 0-1.111.095 5.713 5.713 0 0 0-.789.187.007.007 0 0 0 0 .008l.175 1.144a.007.007 0 0 0 .007.006 4.018 4.018 0 0 1 .666-.163 5.379 5.379 0 0 1 .91-.071 1.678 1.678 0 0 1 .609.095.944.944 0 0 1 .6.662 1.841 1.841 0 0 1 .059.473v.236a4.619 4.619 0 0 0-.555-.1 4.474 4.474 0 0 0-.5-.029 4.637 4.637 0 0 0-.975.1 2.426 2.426 0 0 0-.822.331 1.692 1.692 0 0 0-.562.6 1.8 1.8 0 0 0-.207.9 2.129 2.129 0 0 0 .183.934 1.614 1.614 0 0 0 .508.615 2.132 2.132 0 0 0 .789.343 4.494 4.494 0 0 0 1.016.105 10.243 10.243 0 0 0 1.507-.1q.663-.1.993-.17a.007.007 0 0 0 .005-.007v-3.745a3.789 3.789 0 0 0-.124-1 1.859 1.859 0 0 0-.414-.772zm-.845 4.58a.007.007 0 0 1-.006.007 5.387 5.387 0 0 1-1 .07 1.648 1.648 0 0 1-.863-.2.758.758 0 0 1-.319-.7.741.741 0 0 1 .118-.431.789.789 0 0 1 .315-.266 1.5 1.5 0 0 1 .437-.13 3.236 3.236 0 0 1 .478-.036 3.2 3.2 0 0 1 .5.036 2.845 2.845 0 0 1 .338.069.007.007 0 0 1 0 .007z" class="cls-1" transform="translate(-46.806 -25.197)"/>
    <path id="Path_1587" d="M80.542 30.958a2.859 2.859 0 0 0-1.064.207 2.661 2.661 0 0 0-.922.615 2.993 2.993 0 0 0-.644 1.022 3.88 3.88 0 0 0-.242 1.43 4.142 4.142 0 0 0 .189 1.282 2.75 2.75 0 0 0 .578 1.016 2.628 2.628 0 0 0 .993.674 3.791 3.791 0 0 0 1.42.242 5.415 5.415 0 0 0 .626-.036q.307-.035.573-.089a4.575 4.575 0 0 0 .473-.118 2.311 2.311 0 0 0 .321-.121.008.008 0 0 0 0-.008l-.187-1.157a.007.007 0 0 0-.007-.006 3.934 3.934 0 0 1-.671.2 4.446 4.446 0 0 1-.951.095 2 2 0 0 1-1.353-.408 1.625 1.625 0 0 1-.526-1.144.008.008 0 0 1 .007-.008h4.06a.007.007 0 0 0 .007-.006c.007-.077.013-.164.017-.26s.006-.187.006-.266a3.429 3.429 0 0 0-.715-2.366 2.546 2.546 0 0 0-1.988-.79zm-1.374 2.636a.008.008 0 0 1-.007-.008 2.48 2.48 0 0 1 .129-.526 1.5 1.5 0 0 1 .266-.461 1.322 1.322 0 0 1 .421-.325 1.278 1.278 0 0 1 .578-.124 1.247 1.247 0 0 1 .55.112 1.15 1.15 0 0 1 .39.307 1.372 1.372 0 0 1 .242.461 1.9 1.9 0 0 1 .082.554.008.008 0 0 1-.007.008z" class="cls-1" transform="translate(-57.338 -25.195)"/>
    <path id="Path_1588" d="M119.673 31.848a2.639 2.639 0 0 0-.94-.656 3.07 3.07 0 0 0-1.2-.231 3.026 3.026 0 0 0-1.194.231 2.708 2.708 0 0 0-.94.656 2.983 2.983 0 0 0-.615 1.022 3.842 3.842 0 0 0-.219 1.33 3.889 3.889 0 0 0 .219 1.336 3.024 3.024 0 0 0 .609 1.028 2.721 2.721 0 0 0 .933.662 3 3 0 0 0 1.206.237 3.032 3.032 0 0 0 1.209-.237 2.709 2.709 0 0 0 .94-.662 2.965 2.965 0 0 0 .6-1.028 3.99 3.99 0 0 0 .21-1.336 3.829 3.829 0 0 0-.219-1.33 3.058 3.058 0 0 0-.599-1.022zm-1.034 3.829a1.4 1.4 0 0 1-2.208 0 2.461 2.461 0 0 1-.4-1.477 2.413 2.413 0 0 1 .4-1.46 1.4 1.4 0 0 1 2.208 0 2.413 2.413 0 0 1 .4 1.46 2.462 2.462 0 0 1-.4 1.478z" class="cls-1" transform="translate(-74.835 -25.198)"/>
    <path id="Path_1589" d="M131.1 31.072c-.126-.019-.251-.035-.378-.047s-.237-.018-.331-.018a6.443 6.443 0 0 0-1.377.136 7.949 7.949 0 0 0-1.029.288.008.008 0 0 0 0 .007v5.874a.007.007 0 0 0 .007.007h1.408a.007.007 0 0 0 .007-.007v-4.94a.007.007 0 0 1 0-.007 3.148 3.148 0 0 1 .368-.081 2.875 2.875 0 0 1 .5-.047 3.629 3.629 0 0 1 .727.065 4.636 4.636 0 0 1 .483.122.007.007 0 0 0 .009 0l.245-1.191a.006.006 0 0 0 0-.008q-.1-.035-.278-.075t-.361-.078z" class="cls-1" transform="translate(-81.194 -25.219)"/>
    <path id="Path_1590" d="M91.007 27.364a.74.74 0 0 0-.651.749v7.469a.007.007 0 0 0 .007.007h1.416a.007.007 0 0 0 .007-.007v-7.505a.715.715 0 0 0-.715-.716c-.021 0-.043.001-.064.003z" class="cls-1" transform="translate(-63.354 -23.491)"/>
    <path id="Path_1591" d="M137.3 27.365a.714.714 0 0 0-.779.642v7.576a.007.007 0 0 0 .007.007h1.415a.007.007 0 0 0 .007-.007v-7.47a.739.739 0 0 0-.65-.748z" class="cls-1" transform="translate(-85.243 -23.491)"/>
    <path id="Path_1592" d="M145.977 28.082v1.532a.007.007 0 0 1-.006.007 3.566 3.566 0 0 0-.578-.231 2.671 2.671 0 0 0-.792-.105 2.807 2.807 0 0 0-1.17.231 2.393 2.393 0 0 0-.863.656 2.9 2.9 0 0 0-.538 1.022 4.514 4.514 0 0 0-.183 1.33 3.871 3.871 0 0 0 .219 1.342 2.821 2.821 0 0 0 .627 1.016 2.723 2.723 0 0 0 .987.644 3.6 3.6 0 0 0 1.315.225 8.273 8.273 0 0 0 1.353-.105 8.538 8.538 0 0 0 1.064-.235.007.007 0 0 0 0-.007v-7.381a.717.717 0 0 0-1.43.06m0 6.325a.008.008 0 0 1-.005.007c-.1.023-.232.044-.39.064a4.946 4.946 0 0 1-.585.029 1.53 1.53 0 0 1-1.241-.538 2.244 2.244 0 0 1-.449-1.483 2.534 2.534 0 0 1 .36-1.442 1.28 1.28 0 0 1 1.14-.532 1.965 1.965 0 0 1 .668.113 2.227 2.227 0 0 1 .5.24.007.007 0 0 1 0 .006z" class="cls-1" transform="translate(-87.769 -23.496)"/>
    <path id="Path_1593" d="M70.265 32.371q-.177.6-.373 1.194t-.4 1.157q-.2.551-.373.994a.007.007 0 0 1-.009 0q-.176-.442-.38-.994t-.4-1.157q-.193-.6-.368-1.194-.1-.341-.183-.658a.618.618 0 0 0-.6-.458h-.216a.621.621 0 0 0-.62.621.613.613 0 0 0 .027.179q.415 1.362.9 2.586.622 1.577 1.215 2.791a.007.007 0 0 0 .006 0H69.7a.007.007 0 0 0 .007 0q.592-1.215 1.215-2.791.483-1.223.9-2.585a.621.621 0 0 0-.414-.774.644.644 0 0 0-.179-.027h-.172a.618.618 0 0 0-.6.456q-.09.317-.192.66z" class="cls-1" transform="translate(-51.965 -25.337)"/>
    <path id="Path_1594" d="M100.121 28.344a.737.737 0 0 1 .706.526l.249.819q.215.7.448 1.4t.466 1.373q.233.674.447 1.271.179-.644.346-1.4t.334-1.577q.167-.818.329-1.666.1-.539.2-1.067a.736.736 0 0 1 .725-.6h.042a.739.739 0 0 1 .738.74.73.73 0 0 1-.014.144q-.349 1.772-.761 3.433-.513 2.072-1.145 3.958h-1.448q-.925-2.412-1.791-5.266-.442 1.445-.9 2.746t-.909 2.52H96.75q-.643-1.887-1.15-3.958-.406-1.662-.755-3.435a.737.737 0 0 1 .577-.867.713.713 0 0 1 .146-.014h.105a.737.737 0 0 1 .725.6q.095.521.2 1.056.162.848.334 1.666t.352 1.582q.179.764.358 1.409.226-.609.46-1.283t.46-1.373q.226-.7.436-1.391.124-.411.237-.8a.736.736 0 0 1 .708-.533z" class="cls-1" transform="translate(-65.476 -23.515)"/>
</svg>
