<svg xmlns="http://www.w3.org/2000/svg" width="65.663" height="17" viewBox="0 0 65.663 17">
    <defs>
        <style>
            .cls-1{fill:#fff}
        </style>
    </defs>
    <g id="CBW">
        <g id="Group_113">
            <path id="Path_260" d="M-2002.387-1465.318a4.418 4.418 0 0 1-3.781 1.873 4.324 4.324 0 0 1-4.468-4.331 4.363 4.363 0 0 1 4.486-4.348 4.447 4.447 0 0 1 3.506 1.667l-1.581 1.392a2.415 2.415 0 0 0-1.925-1 2.234 2.234 0 0 0-2.251 2.286 2.2 2.2 0 0 0 2.3 2.269 2.441 2.441 0 0 0 1.994-1.1z" class="cls-1" transform="translate(2010.636 1475.58)"/>
            <path id="Path_261" d="M-1982.34-1470.794a2.153 2.153 0 0 1-2.146-2.268 2.168 2.168 0 0 1 2.146-2.286 2.168 2.168 0 0 1 2.146 2.286 2.153 2.153 0 0 1-2.146 2.268m.295-6.616a3.7 3.7 0 0 0-2.355.773v-4.23h-2.234v11.963h2.148v-.67a3.485 3.485 0 0 0 2.32.842 4.192 4.192 0 0 0 3.145-1.409 4.476 4.476 0 0 0 1.066-2.922 4.184 4.184 0 0 0-4.09-4.348" class="cls-1" transform="translate(1996.124 1480.867)"/>
            <path id="Path_262" d="M-1996.243-1443.344a9.68 9.68 0 0 1-3.4-.613 9.744 9.744 0 0 1-2.879-1.686l1.081-1.282a8.067 8.067 0 0 0 2.385 1.4 8.009 8.009 0 0 0 2.816.507 8.01 8.01 0 0 0 2.816-.507 8.073 8.073 0 0 0 2.385-1.4l1.081 1.282a9.746 9.746 0 0 1-2.879 1.686 9.681 9.681 0 0 1-3.4.613" class="cls-1" transform="translate(2005.731 1460.344)"/>
            <path id="Path_263" d="M-1951.325-1468.095a2.616 2.616 0 0 1-2.238 1.109 2.56 2.56 0 0 1-2.646-2.564 2.583 2.583 0 0 1 2.655-2.574 2.633 2.633 0 0 1 2.076.987l-.936.824a1.428 1.428 0 0 0-1.14-.59 1.323 1.323 0 0 0-1.333 1.353 1.3 1.3 0 0 0 1.363 1.344 1.446 1.446 0 0 0 1.18-.651z" class="cls-1" transform="translate(1977.726 1475.58)"/>
            <path id="Path_264" d="M-1940.429-1468.207a1.275 1.275 0 0 1-1.27-1.344 1.283 1.283 0 0 1 1.27-1.353 1.283 1.283 0 0 1 1.271 1.353 1.275 1.275 0 0 1-1.271 1.344m1.271-3.816v.4a2.261 2.261 0 0 0-1.445-.5 2.477 2.477 0 0 0-2.422 2.574 2.648 2.648 0 0 0 .631 1.73 2.48 2.48 0 0 0 1.862.834 2.064 2.064 0 0 0 1.374-.5v.4h1.272v-4.935z" class="cls-1" transform="translate(1969.755 1475.58)"/>
            <path id="Path_265" d="M-1927.4-1468.594a2.08 2.08 0 0 0 1.353.488c.356 0 .631-.173.631-.417 0-.743-2.391-.478-2.391-2.065a1.718 1.718 0 0 1 1.893-1.536 3.064 3.064 0 0 1 1.669.5l-.62.957a1.661 1.661 0 0 0-.946-.336c-.366 0-.672.143-.672.4 0 .641 2.391.387 2.391 2.1 0 .946-.926 1.526-1.964 1.526a3.414 3.414 0 0 1-1.984-.662z" class="cls-1" transform="translate(1960.693 1475.58)"/>
            <path id="Path_266" d="M-1914.579-1470.218h-1.323v-7.083h1.323v2.5a2.187 2.187 0 0 1 1.343-.458 2.224 2.224 0 0 1 1.71.794 2.489 2.489 0 0 1 .509 1.73v2.513h-1.323v-2.615a1.2 1.2 0 0 0-.295-.926 1.042 1.042 0 0 0-.743-.274 1.573 1.573 0 0 0-1.2.61z" class="cls-1" transform="translate(1953.354 1478.71)"/>
            <path id="Path_267" d="M-1898.567-1471.337a1.275 1.275 0 0 1-1.27-1.343 1.283 1.283 0 0 1 1.27-1.353 1.284 1.284 0 0 1 1.271 1.353 1.275 1.275 0 0 1-1.271 1.343m.174-3.918a2.188 2.188 0 0 0-1.394.458v-2.5h-1.323v7.083h1.272v-.4a2.063 2.063 0 0 0 1.374.5 2.48 2.48 0 0 0 1.862-.834 2.647 2.647 0 0 0 .631-1.73 2.477 2.477 0 0 0-2.422-2.574" class="cls-1" transform="translate(1944.41 1478.71)"/>
            <path id="Path_268" d="M-1884.13-1468.207a1.275 1.275 0 0 1-1.27-1.344 1.283 1.283 0 0 1 1.27-1.353 1.283 1.283 0 0 1 1.27 1.353 1.275 1.275 0 0 1-1.27 1.344m1.27-3.816v.4a2.261 2.261 0 0 0-1.445-.5 2.477 2.477 0 0 0-2.422 2.574 2.648 2.648 0 0 0 .631 1.73 2.481 2.481 0 0 0 1.862.834 2.063 2.063 0 0 0 1.374-.5v.4h1.272v-4.935z" class="cls-1" transform="translate(1935.713 1475.58)"/>
            <path id="Path_269" d="M-1866.927-1468.095a2.616 2.616 0 0 1-2.238 1.109 2.56 2.56 0 0 1-2.646-2.564 2.583 2.583 0 0 1 2.656-2.574 2.632 2.632 0 0 1 2.076.987l-.936.824a1.429 1.429 0 0 0-1.139-.59 1.323 1.323 0 0 0-1.333 1.353 1.3 1.3 0 0 0 1.364 1.344 1.447 1.447 0 0 0 1.18-.651z" class="cls-1" transform="translate(1926.694 1475.58)"/>
            <path id="Path_270" d="M-1855.2-1472.935l2.717 2.717h-1.781l-2.086-2.136v2.136h-1.323v-7.083h1.323v3.746l1.7-1.6h1.862z" class="cls-1" transform="translate(1918.145 1478.711)"/>
            <path id="Path_271" d="M-1953.86-1445.671h-.916l-2.076-4.935h1.333l1.2 2.88 1.241-2.88h.916l1.231 2.88 1.211-2.88h1.333l-2.075 4.935h-.916l-1.241-2.869z" class="cls-1" transform="translate(1978.114 1462.57)"/>
            <path id="Path_272" d="M-1932.836-1446.946a1.289 1.289 0 0 0 1.3-1.343 1.3 1.3 0 0 0-1.3-1.353 1.3 1.3 0 0 0-1.3 1.353 1.289 1.289 0 0 0 1.3 1.343m0-3.917a2.569 2.569 0 0 1 2.625 2.574 2.561 2.561 0 0 1-2.625 2.564 2.561 2.561 0 0 1-2.625-2.564 2.57 2.57 0 0 1 2.625-2.574" class="cls-1" transform="translate(1965.181 1462.726)"/>
            <path id="Path_273" d="M-1916.938-1449.592a1.844 1.844 0 0 0-.478-.051 1.465 1.465 0 0 0-1.2.712v3.1h-1.323v-4.934h1.272v.5a1.847 1.847 0 0 1 1.435-.6 2.7 2.7 0 0 1 .448.041z" class="cls-1" transform="translate(1955.796 1462.726)"/>
            <path id="Rectangle_183" d="M0 0H1.323V7.083H0z" class="cls-1" transform="translate(39.691 9.815)"/>
            <path id="Path_274" d="M-1902.3-1450.076a1.275 1.275 0 0 1-1.27-1.344 1.283 1.283 0 0 1 1.27-1.353 1.284 1.284 0 0 1 1.271 1.353 1.275 1.275 0 0 1-1.271 1.344m1.22-5.964v2.5a2.188 2.188 0 0 0-1.394-.458 2.477 2.477 0 0 0-2.422 2.574 2.649 2.649 0 0 0 .631 1.73 2.481 2.481 0 0 0 1.862.835 2.064 2.064 0 0 0 1.374-.5v.4h1.271v-7.083z" class="cls-1" transform="translate(1946.699 1465.855)"/>
        </g>
    </g>
</svg>
