<svg xmlns="http://www.w3.org/2000/svg" width="86.919" height="20.994" viewBox="0 0 86.919 20.994"><g transform="translate(0 0)"><path d="M11.187,33.953a5.457,5.457,0,0,1-4.669,2.314A5.361,5.361,0,1,1,6.538,25.55a5.494,5.494,0,0,1,4.33,2.058L8.917,29.327A2.979,2.979,0,0,0,6.54,28.1a2.758,2.758,0,0,0-2.78,2.823,2.72,2.72,0,0,0,2.844,2.8,3.017,3.017,0,0,0,2.462-1.358Z" transform="translate(-1 -21.282)" fill="#005551"/><path d="M73.712,13.438a2.658,2.658,0,0,1-2.649-2.8,2.655,2.655,0,1,1,5.3,0,2.657,2.657,0,0,1-2.649,2.8m.363-8.17a4.559,4.559,0,0,0-2.907.954V1H68.41V15.773h2.653v-.827a4.3,4.3,0,0,0,2.865,1.04,5.177,5.177,0,0,0,3.884-1.74,5.524,5.524,0,0,0,1.316-3.607,5.167,5.167,0,0,0-5.052-5.37" transform="translate(-56.692 -1)" fill="#005551"/><path d="M31.538,100.742h0A11.983,11.983,0,0,1,23.78,97.9l1.335-1.584a9.945,9.945,0,0,0,12.847,0L39.3,97.9a11.983,11.983,0,0,1-7.758,2.839" transform="translate(-19.82 -79.75)" fill="#005551"/><path d="M159.89,30.517a3.231,3.231,0,0,1-2.764,1.37,3.175,3.175,0,1,1,.014-6.347,3.256,3.256,0,0,1,2.564,1.219l-1.156,1.017a1.765,1.765,0,0,0-1.408-.728,1.633,1.633,0,0,0-1.646,1.671,1.611,1.611,0,0,0,1.685,1.658,1.786,1.786,0,0,0,1.458-.8Z" transform="translate(-127.287 -21.274)" fill="#005551"/><path d="M194.094,30.388a1.667,1.667,0,1,1,1.57-1.658,1.574,1.574,0,0,1-1.57,1.658m1.57-4.713v.49a2.793,2.793,0,0,0-1.784-.615,3.059,3.059,0,0,0-2.99,3.18,3.278,3.278,0,0,0,.779,2.136,3.067,3.067,0,0,0,2.3,1.031,2.547,2.547,0,0,0,1.7-.615v.49h1.57v-6.1Z" transform="translate(-157.88 -21.282)" fill="#005551"/><path d="M233.763,29.91a2.566,2.566,0,0,0,1.671.6c.44,0,.779-.214.779-.515,0-.918-2.953-.591-2.953-2.55a2.122,2.122,0,0,1,2.336-1.9,3.788,3.788,0,0,1,2.06.615l-.767,1.182a2.057,2.057,0,0,0-1.168-.415c-.452,0-.829.176-.829.49,0,.791,2.954.478,2.954,2.588,0,1.168-1.144,1.884-2.425,1.884a4.209,4.209,0,0,1-2.449-.817Z" transform="translate(-192.645 -21.282)" fill="#005551"/><path d="M268.684,19.758H267.05V11.01h1.634V14.1a2.7,2.7,0,0,1,1.658-.565,2.745,2.745,0,0,1,2.11.98,3.078,3.078,0,0,1,.628,2.136v3.1h-1.634v-3.23a1.468,1.468,0,0,0-.365-1.144,1.285,1.285,0,0,0-.918-.339,1.943,1.943,0,0,0-1.483.754v3.958Z" transform="translate(-220.8 -9.27)" fill="#005551"/><path d="M311.74,18.376a1.574,1.574,0,0,1-1.57-1.658,1.573,1.573,0,1,1,3.14,0,1.575,1.575,0,0,1-1.57,1.658m.216-4.838a2.7,2.7,0,0,0-1.721.565V11.01H308.6v8.748h1.571v-.49a2.547,2.547,0,0,0,1.7.615,3.063,3.063,0,0,0,2.3-1.031,3.268,3.268,0,0,0,.779-2.136,3.061,3.061,0,0,0-2.992-3.178" transform="translate(-255.127 -9.27)" fill="#005551"/><path d="M352.206,30.388a1.667,1.667,0,1,1,1.57-1.658,1.574,1.574,0,0,1-1.57,1.658m1.568-4.713v.49a2.794,2.794,0,0,0-1.784-.615,3.059,3.059,0,0,0-2.99,3.18,3.278,3.278,0,0,0,.779,2.136,3.067,3.067,0,0,0,2.3,1.031,2.546,2.546,0,0,0,1.7-.615v.49h1.57v-6.1Z" transform="translate(-288.504 -21.282)" fill="#005551"/><path d="M396.921,30.517a3.231,3.231,0,0,1-2.764,1.37,3.175,3.175,0,1,1,.014-6.347,3.256,3.256,0,0,1,2.564,1.219l-1.156,1.017a1.765,1.765,0,0,0-1.408-.728,1.633,1.633,0,0,0-1.646,1.671,1.611,1.611,0,0,0,1.684,1.658,1.786,1.786,0,0,0,1.458-.8Z" transform="translate(-323.112 -21.274)" fill="#005551"/><path d="M433.643,16.4,437,19.758h-2.2l-2.575-2.639v2.639H430.59V11.01h1.634v4.626l2.1-1.973h2.3Z" transform="translate(-355.911 -9.27)" fill="#005551"/><path d="M155.744,92.075h-1.132L152.05,85.98H153.7l1.483,3.557,1.533-3.557h1.13l1.521,3.557,1.5-3.557H162.5l-2.564,6.095h-1.13l-1.533-3.543Z" transform="translate(-125.792 -71.207)" fill="#005551"/><path d="M215.362,90.1a1.665,1.665,0,1,0-1.608-1.658,1.592,1.592,0,0,0,1.608,1.658m0-4.838a3.173,3.173,0,1,1-3.242,3.179,3.173,3.173,0,0,1,3.242-3.179" transform="translate(-175.419 -70.612)" fill="#005551"/><path d="M259.418,86.821a2.248,2.248,0,0,0-.591-.063,1.808,1.808,0,0,0-1.483.88v3.833H255.71V85.377h1.572v.615a2.284,2.284,0,0,1,1.771-.742,3.415,3.415,0,0,1,.553.05Z" transform="translate(-211.432 -70.604)" fill="#005551"/><rect width="1.634" height="8.746" transform="translate(49.015 12.12)" fill="#005551"/><path d="M301.176,78.086a1.667,1.667,0,1,1,1.57-1.658,1.574,1.574,0,0,1-1.57,1.658m1.506-7.366v3.093a2.7,2.7,0,0,0-1.721-.565,3.059,3.059,0,0,0-2.99,3.179,3.268,3.268,0,0,0,.779,2.136,3.067,3.067,0,0,0,2.3,1.031,2.547,2.547,0,0,0,1.7-.615v.49h1.57V70.72Z" transform="translate(-246.345 -58.6)" fill="#005551"/></g><g transform="translate(60.518 16.494)"><path d="M349.973,98.474v1.78h-.843V95.88h1.643a1.438,1.438,0,0,1,1.137.393,1.364,1.364,0,0,1,0,1.811,1.448,1.448,0,0,1-1.137.388h-.8Zm.761-.751a.665.665,0,0,0,.532-.176.522.522,0,0,0,.144-.369.542.542,0,0,0-.144-.375.663.663,0,0,0-.532-.176h-.761v1.093h.761Z" transform="translate(-349.13 -95.88)" fill="#5cb885"/><path d="M365,100.254l1.874-4.374h.593l1.874,4.374h-.881l-.412-.968h-1.756l-.412.968Zm1.611-1.718h1.113l-.556-1.293Z" transform="translate(-362.241 -95.88)" fill="#5cb885"/><path d="M392.973,98.317v1.937h-.843V95.88h1.592a1.323,1.323,0,0,1,.956.325,1.224,1.224,0,0,1,0,1.787,1.112,1.112,0,0,1-.436.256l1.636,2.006h-1.043l-1.556-1.937Zm.7-.749a.519.519,0,0,0,.424-.13.479.479,0,0,0-.424-.807h-.7v.937Z" transform="translate(-384.655 -95.88)" fill="#5cb885"/><path d="M415.315,95.88v.749h-1.156v3.623h-.843V96.629H412.16V95.88Z" transform="translate(-401.203 -95.88)" fill="#5cb885"/><path d="M432.89,95.88h.595l2.437,2.849V95.88h.843v4.374h-.593L433.735,97.4v2.849h-.843V95.88Z" transform="translate(-418.329 -95.88)" fill="#5cb885"/><path d="M461.123,96.629v.906h1.344v.749h-1.344V99.5h1.843v.749H460.28V95.88H462.9v.749Z" transform="translate(-440.958 -95.88)" fill="#5cb885"/><path d="M480.283,98.317v1.937h-.843V95.88h1.592a1.323,1.323,0,0,1,.956.325,1.224,1.224,0,0,1,0,1.787,1.112,1.112,0,0,1-.436.256l1.636,2.006h-1.043l-1.556-1.937Zm.7-.749a.519.519,0,0,0,.424-.13.479.479,0,0,0-.424-.807h-.7v.937Z" transform="translate(-456.787 -95.88)" fill="#5cb885"/></g></svg>