<svg xmlns="http://www.w3.org/2000/svg" id="logo-benefit-lounge-bar" width="75.876" height="11.576" viewBox="0 0 75.876 11.576">
    <defs>
        <style>
            .cls-1{fill:#fff}
        </style>
    </defs>
    <g id="Group_1367">
        <path id="Path_889" d="M-460.272 87.794a2.938 2.938 0 0 1-2.915 3.146 2.336 2.336 0 0 1-1.931-.886v.741h-1.506v-9.11h1.64v3.68a2.367 2.367 0 0 1 1.8-.717 2.938 2.938 0 0 1 2.912 3.146zm-1.664-.012a1.546 1.546 0 0 0-1.555-1.652 1.508 1.508 0 0 0-1.518 1.664 1.5 1.5 0 0 0 1.518 1.652 1.55 1.55 0 0 0 1.554-1.664z" class="cls-1" transform="translate(466.625 -81.538)"/>
        <path id="Path_890" d="M-431.709 97.577h-4.215a1.587 1.587 0 0 0 1.688 1.19 2.649 2.649 0 0 0 1.676-.607l.68 1.118a3.66 3.66 0 0 1-2.4.9 3.145 3.145 0 0 1-3.292-3.146 3.1 3.1 0 0 1 3.146-3.146 2.729 2.729 0 0 1 2.83 2.794 4.209 4.209 0 0 1-.113.897zm-4.215-1.154h2.733a1.222 1.222 0 0 0-1.3-1.215 1.469 1.469 0 0 0-1.433 1.215z" class="cls-1" transform="translate(444.633 -90.774)"/>
        <path id="Path_891" d="M-403.2 96.3v3.729h-1.628V96.52a1.085 1.085 0 0 0-1.118-1.166 1.1 1.1 0 0 0-1.142 1.166v3.51h-1.64v-6.012h1.506v.547a2.445 2.445 0 0 1 1.761-.68A2.187 2.187 0 0 1-403.2 96.3z" class="cls-1" transform="translate(422.791 -90.774)"/>
        <path id="Path_892" d="M-376.01 97.577h-4.215a1.587 1.587 0 0 0 1.689 1.19 2.649 2.649 0 0 0 1.676-.607l.68 1.118a3.662 3.662 0 0 1-2.405.9 3.144 3.144 0 0 1-3.292-3.146 3.1 3.1 0 0 1 3.146-3.146 2.729 2.729 0 0 1 2.83 2.794 4.213 4.213 0 0 1-.109.897zm-4.215-1.154h2.733a1.222 1.222 0 0 0-1.3-1.215 1.469 1.469 0 0 0-1.433 1.215z" class="cls-1" transform="translate(402.464 -90.774)"/>
        <path id="Path_893" d="M-352.208 81.083a2.92 2.92 0 0 1 .9.134v1.373a3.528 3.528 0 0 0-.486-.036c-.729 0-1.093.243-1.093.935v.838h1.324v1.385h-1.324v4.628h-1.64v-4.629h-.85v-1.385h.85v-.984a2.07 2.07 0 0 1 2.319-2.259zm1.506 1.057a1.027 1.027 0 0 1 1.057-1.021 1.024 1.024 0 0 1 1.045 1.021 1.022 1.022 0 0 1-1.045 1.008 1.025 1.025 0 0 1-1.055-1.008zm.231 2.187h1.64v6.013h-1.64z" class="cls-1" transform="translate(382.402 -81.083)"/>
        <path id="Path_894" d="M-320.8 94.342v1.373a4.558 4.558 0 0 1-1.13.146 2.1 2.1 0 0 1-2.4-2.259v-2.515h-.948V89.7h.948v-1.516h1.64V89.7h1.7v1.385h-1.7v2.368c0 .692.364.935 1.117.935.193.003.461-.021.773-.046z" class="cls-1" transform="translate(359.615 -86.459)"/>
        <path id="Path_895" d="M-301.094 90.794h-.935v-9.11h.935z" class="cls-1" transform="translate(342.013 -81.538)"/>
        <path id="Path_896" d="M-286.285 97.369a3.079 3.079 0 0 1-3.11 3.085 3.066 3.066 0 0 1-3.085-3.085 3.054 3.054 0 0 1 3.1-3.085 3.069 3.069 0 0 1 3.095 3.085zm-5.235.012a2.118 2.118 0 0 0 2.126 2.211 2.145 2.145 0 0 0 2.15-2.211 2.142 2.142 0 0 0-2.138-2.235 2.127 2.127 0 0 0-2.139 2.236z" class="cls-1" transform="translate(334.784 -91.077)"/>
        <path id="Path_897" d="M-256.636 98.393a2.373 2.373 0 0 1-2.442 2.49 2.369 2.369 0 0 1-2.454-2.49v-3.559h.923v3.62a1.483 1.483 0 0 0 1.531 1.567 1.477 1.477 0 0 0 1.506-1.567v-3.62h.935z" class="cls-1" transform="translate(311.353 -91.494)"/>
        <path id="Path_898" d="M-229.336 96.616v3.717h-.935v-3.607a1.433 1.433 0 0 0-1.47-1.579 1.505 1.505 0 0 0-1.555 1.579v3.608h-.936v-5.916h.875v.632a2.391 2.391 0 0 1 1.822-.765 2.116 2.116 0 0 1 2.199 2.331z" class="cls-1" transform="translate(290.685 -91.077)"/>
        <path id="Path_899" d="M-202.344 94.418v5.345a2.682 2.682 0 0 1-2.879 2.891 3.937 3.937 0 0 1-2.777-1.143l.547-.656a3.231 3.231 0 0 0 2.211.935 1.794 1.794 0 0 0 1.968-1.98v-.522a2.769 2.769 0 0 1-2.2.984 2.864 2.864 0 0 1-2.9-2.988 2.881 2.881 0 0 1 2.9-3 2.683 2.683 0 0 1 2.247 1.081v-.947zm-.923 2.867a1.971 1.971 0 0 0-2.065-2.113 2.042 2.042 0 0 0-2.1 2.126 2.032 2.032 0 0 0 2.1 2.114 1.975 1.975 0 0 0 2.065-2.128z" class="cls-1" transform="translate(271.114 -91.077)"/>
        <path id="Path_900" d="M-172.184 97.661h-4.677a2.1 2.1 0 0 0 2.175 1.943 2.488 2.488 0 0 0 1.81-.8l.547.631a3.184 3.184 0 0 1-2.368 1.032 3.055 3.055 0 0 1-3.134-3.085 3.034 3.034 0 0 1 3.025-3.1 2.6 2.6 0 0 1 2.7 2.672 3.524 3.524 0 0 1-.078.707zm-4.64-.826h3.753a1.666 1.666 0 0 0-1.761-1.7 2.016 2.016 0 0 0-1.992 1.7z" class="cls-1" transform="translate(247.986 -91.077)"/>
    </g>
</svg>
