
<svg xmlns="http://www.w3.org/2000/svg" width="72.101" height="11" viewBox="0 0 72.101 11"><g transform="translate(0 0)"><path d="M-460.588,87.49a2.792,2.792,0,0,1-2.77,2.989,2.219,2.219,0,0,1-1.835-.842v.7h-1.431V81.684h1.558v3.5a2.25,2.25,0,0,1,1.708-.681A2.792,2.792,0,0,1-460.588,87.49Zm-1.581-.012a1.469,1.469,0,0,0-1.477-1.57,1.433,1.433,0,0,0-1.443,1.581,1.422,1.422,0,0,0,1.443,1.57A1.473,1.473,0,0,0-462.17,87.478Z" transform="translate(466.625 -81.545)" fill="#fff"/><path d="M-432,97.393h-4.005a1.508,1.508,0,0,0,1.6,1.131,2.518,2.518,0,0,0,1.593-.577l.646,1.062a3.478,3.478,0,0,1-2.285.854,2.988,2.988,0,0,1-3.128-2.989,2.947,2.947,0,0,1,2.99-2.99,2.593,2.593,0,0,1,2.689,2.655A4,4,0,0,1-432,97.393Zm-4.005-1.1h2.6a1.162,1.162,0,0,0-1.235-1.154A1.4,1.4,0,0,0-436.006,96.3Z" transform="translate(444.281 -90.929)" fill="#fff"/><path d="M-403.474,96.181v3.544h-1.547V96.389a1.031,1.031,0,0,0-1.062-1.108,1.048,1.048,0,0,0-1.085,1.108v3.336h-1.558V94.011h1.431v.519a2.324,2.324,0,0,1,1.674-.647A2.079,2.079,0,0,1-403.474,96.181Z" transform="translate(422.091 -90.929)" fill="#fff"/><path d="M-376.3,97.393h-4.005a1.508,1.508,0,0,0,1.6,1.131,2.517,2.517,0,0,0,1.593-.577l.646,1.062a3.479,3.479,0,0,1-2.286.854,2.988,2.988,0,0,1-3.128-2.989,2.947,2.947,0,0,1,2.99-2.99,2.593,2.593,0,0,1,2.689,2.655A4,4,0,0,1-376.3,97.393Zm-4.005-1.1h2.6a1.161,1.161,0,0,0-1.235-1.154A1.4,1.4,0,0,0-380.307,96.3Z" transform="translate(401.44 -90.929)" fill="#fff"/><path d="M-352.366,81.083a2.774,2.774,0,0,1,.854.127v1.3a3.352,3.352,0,0,0-.462-.035c-.693,0-1.039.231-1.039.889v.8h1.258v1.316h-1.258v4.4h-1.558v-4.4h-.808V84.165h.808V83.23A1.967,1.967,0,0,1-352.366,81.083Zm1.431,1a.976.976,0,0,1,1-.97.973.973,0,0,1,.993.97.971.971,0,0,1-.993.958A.974.974,0,0,1-350.934,82.087Zm.219,2.078h1.558v5.713h-1.558Z" transform="translate(381.058 -81.083)" fill="#fff"/><path d="M-321.02,94.036v1.3a4.33,4.33,0,0,1-1.073.138,1.993,1.993,0,0,1-2.285-2.147V90.943h-.9V89.627h.9V88.184h1.558v1.443h1.616v1.316h-1.616v2.251c0,.658.346.889,1.062.889C-321.574,94.082-321.32,94.059-321.02,94.036Z" transform="translate(357.907 -86.545)" fill="#fff"/><path d="M-301.14,90.341h-.889V81.684h.889Z" transform="translate(340.024 -81.545)" fill="#fff"/><path d="M-286.593,97.216a2.926,2.926,0,0,1-2.955,2.932,2.914,2.914,0,0,1-2.932-2.932,2.9,2.9,0,0,1,2.943-2.932A2.917,2.917,0,0,1-286.593,97.216Zm-4.975.012a2.013,2.013,0,0,0,2.02,2.1,2.039,2.039,0,0,0,2.043-2.1,2.035,2.035,0,0,0-2.032-2.124A2.021,2.021,0,0,0-291.568,97.227Z" transform="translate(332.679 -91.237)" fill="#fff"/><path d="M-256.879,98.216a2.255,2.255,0,0,1-2.32,2.366,2.251,2.251,0,0,1-2.332-2.366V94.834h.877v3.44a1.409,1.409,0,0,0,1.454,1.489,1.4,1.4,0,0,0,1.431-1.489v-3.44h.889Z" transform="translate(308.874 -91.66)" fill="#fff"/><path d="M-229.579,96.5v3.532h-.889V96.6a1.362,1.362,0,0,0-1.4-1.5,1.43,1.43,0,0,0-1.477,1.5v3.428h-.889V94.411h.831v.6a2.272,2.272,0,0,1,1.731-.727A2.01,2.01,0,0,1-229.579,96.5Z" transform="translate(287.876 -91.237)" fill="#fff"/><path d="M-202.645,94.411V99.49a2.549,2.549,0,0,1-2.735,2.747,3.741,3.741,0,0,1-2.643-1.085l.519-.623a3.07,3.07,0,0,0,2.1.889,1.7,1.7,0,0,0,1.87-1.882v-.5a2.631,2.631,0,0,1-2.089.935,2.722,2.722,0,0,1-2.759-2.84,2.738,2.738,0,0,1,2.759-2.851,2.55,2.55,0,0,1,2.135,1.027v-.9Zm-.877,2.724a1.873,1.873,0,0,0-1.962-2.008,1.94,1.94,0,0,0-2,2.02,1.931,1.931,0,0,0,2,2.009A1.877,1.877,0,0,0-203.522,97.135Z" transform="translate(267.993 -91.237)" fill="#fff"/><path d="M-172.465,97.493h-4.444a1.992,1.992,0,0,0,2.066,1.847,2.364,2.364,0,0,0,1.72-.762l.519.6a3.026,3.026,0,0,1-2.251.981,2.9,2.9,0,0,1-2.978-2.932,2.883,2.883,0,0,1,2.874-2.943,2.474,2.474,0,0,1,2.562,2.539A3.348,3.348,0,0,1-172.465,97.493Zm-4.409-.785h3.567a1.583,1.583,0,0,0-1.674-1.616A1.915,1.915,0,0,0-176.874,96.708Z" transform="translate(244.496 -91.237)" fill="#fff"/></g></svg>
