<svg xmlns="http://www.w3.org/2000/svg" width="110.185" height="24.609" viewBox="0 0 110.185 24.609"><path d="M201.9,270.815a45.436,45.436,0,0,1,.069-5.473q.028-.177.071-.348a4.165,4.165,0,0,0,2.181-1.518,3.361,3.361,0,0,0,4.009-5.135v-.021a3.358,3.358,0,0,0-4.021-5.13,4.193,4.193,0,0,0-6.731,0,3.358,3.358,0,0,0-3.988,5.149,3.358,3.358,0,0,0,3.985,5.151,4.177,4.177,0,0,0,2.3,1.547c.024.106.047.213.064.324a44.32,44.32,0,0,1,.062,5.466,11.483,11.483,0,1,1,1.991,0Zm1.54-12.223a3.792,3.792,0,0,1,1.038,2.223,14.553,14.553,0,0,0-1.246,1.1,2.769,2.769,0,0,1-.449-1.514A2.559,2.559,0,0,1,203.44,258.592Zm-.657-2.33a2.757,2.757,0,0,1,.307-1.268c.43.367.894.71,1.369,1.055a4,4,0,0,1-1.019,2.022,2.588,2.588,0,0,1-.658-1.809Zm1.684-.908c-.369-.274-.728-.551-1.067-.84a2.807,2.807,0,0,1,.629-.577,3.6,3.6,0,0,1,.438,1.419Zm3.33,2.6a20.583,20.583,0,0,0-2.571-2.055l-.177-.128V255.7a4.184,4.184,0,0,0-.52-2.025,2.793,2.793,0,0,1,3.266,4.283Zm-2.751,3.134c.237-.18.461-.357.7-.537a24.179,24.179,0,0,0,2.129-1.748,2.8,2.8,0,0,1-2.289,4.392,2.746,2.746,0,0,1-1.044-.206,4.194,4.194,0,0,0,.514-1.892Zm-.078-4.683a19.066,19.066,0,0,1,2.486,2A24.53,24.53,0,0,1,205.4,260.1c-.135.1-.267.2-.4.305a4.544,4.544,0,0,0-1.036-2.077A4.659,4.659,0,0,0,204.968,256.407Zm-1.249,6.788a3.58,3.58,0,0,1-1.469,1.119,5.506,5.506,0,0,1,.946-1.542,3.544,3.544,0,0,0,.518.423Zm-.135-.844c.265-.267.549-.523.847-.773a3.62,3.62,0,0,1-.4,1.145A2.907,2.907,0,0,1,203.585,262.35Zm-2.051-10.231a3.64,3.64,0,0,1,2.183,1.339,3.345,3.345,0,0,0-.736.667A6.216,6.216,0,0,1,201.534,252.119Zm-2.8,1.989a3.476,3.476,0,0,0-.736-.657,3.628,3.628,0,0,1,2.164-1.329,6.242,6.242,0,0,1-1.419,1.987Zm.21,2.148a2.964,2.964,0,0,1-.837,1.824,2.989,2.989,0,0,1-.87-2.036c.473-.348.946-.7,1.391-1.071a2.767,2.767,0,0,1,.317,1.284Zm0,4.139a2.752,2.752,0,0,1-.419,1.461,15.168,15.168,0,0,0-1.294-1.123,3.219,3.219,0,0,1,.877-2.159A2.942,2.942,0,0,1,198.94,260.395Zm-1.682,1.088c.324.267.634.539.918.825a2.787,2.787,0,0,1-.5.423A3.637,3.637,0,0,1,197.258,261.482Zm-3.354-2.727a23.15,23.15,0,0,0,2.183,1.809c.194.149.388.3.577.445a4.205,4.205,0,0,0,.518,1.989,2.791,2.791,0,0,1-3.278-4.243Zm3.784-4.827a2.894,2.894,0,0,1,.631.57c-.341.293-.71.572-1.076.847a3.629,3.629,0,0,1,.445-1.419Zm-1.026,1.84-.184.132a20.68,20.68,0,0,0-2.573,2.039,2.8,2.8,0,0,1,2.235-4.47,2.76,2.76,0,0,1,1.029.2,4.17,4.17,0,0,0-.523,2.029v.071Zm-.237,4.345a22.82,22.82,0,0,1-2.129-1.757,19.672,19.672,0,0,1,2.408-1.928,3.469,3.469,0,0,0,.847,1.911,3.765,3.765,0,0,0-.854,1.987l-.277-.213Zm3.162,4.257a3.635,3.635,0,0,1-1.594-1.161,3.324,3.324,0,0,0,.577-.473,5.511,5.511,0,0,1,1.017,1.644Zm1.28-17.1a12.079,12.079,0,0,0-.754,24.124h.182l.024-.012.024-.012.021-.017.019-.017.019-.019.017-.021.014-.021.014-.024v-.026a.084.084,0,0,0,0-.026v-.026a.1.1,0,0,1,0-.026h0a50.5,50.5,0,0,0-.057-5.872,5.759,5.759,0,0,0-1.481-2.98,3.356,3.356,0,0,0,.577-1.892,3.262,3.262,0,0,0-.868-2.07,3.262,3.262,0,0,0,.868-2.069,3.335,3.335,0,0,0-.449-1.672,6.623,6.623,0,0,0,1.741-2.528h.1a6.643,6.643,0,0,0,1.776,2.54,3.358,3.358,0,0,0-.44,1.656,3.223,3.223,0,0,0,.691,2.065,3.217,3.217,0,0,0-.691,2.074,3.339,3.339,0,0,0,.619,1.936,5.882,5.882,0,0,0-1.279,2.283.267.267,0,0,0-.045.154c-.04.156-.073.315-.1.473a48.956,48.956,0,0,0-.066,5.877h0a.072.072,0,0,0,0,.024.138.138,0,0,0,0,.031v.024a.284.284,0,0,0,.012.026.045.045,0,0,0,0,.021l.014.026.017.017.021.024.017.014.026.019h.019l.031.014h.263a12.079,12.079,0,0,0-.932-24.124Z" transform="translate(-188.557 -247.039)" fill="#343333"/><rect width="24.609" height="24.609" fill="none"/><path d="M420.507,277.755v5.416l-.1.073a8.944,8.944,0,0,1-1.748.71,8.385,8.385,0,0,1-2.441.322,6.443,6.443,0,0,1-2.545-.492,5.913,5.913,0,0,1-1.968-1.355,5.976,5.976,0,0,1-1.256-2.027A7.038,7.038,0,0,1,410,277.87a6.945,6.945,0,0,1,.447-2.516,5.964,5.964,0,0,1,1.258-2.01,5.729,5.729,0,0,1,1.939-1.322,6.385,6.385,0,0,1,2.49-.473,6.232,6.232,0,0,1,2.195.374,6.011,6.011,0,0,1,1.762,1.022l.175.147-.57.582-.154-.149a3.394,3.394,0,0,0-.71-.518,5.2,5.2,0,0,0-.863-.388,5.54,5.54,0,0,0-.946-.237,5.634,5.634,0,0,0-3.12.355,5.019,5.019,0,0,0-1.689,1.183,5.312,5.312,0,0,0-1.078,1.769,6.219,6.219,0,0,0-.383,2.178,6.464,6.464,0,0,0,.374,2.195,5.314,5.314,0,0,0,1.074,1.793,5.028,5.028,0,0,0,1.708,1.2,5.676,5.676,0,0,0,2.3.442,7.567,7.567,0,0,0,2-.236,8.874,8.874,0,0,0,1.5-.551v-4.219h-2.928v-.738Z" transform="translate(-357.35 -265.598)" fill="#343333"/><path d="M462.964,272.93h-.735l-5.109,12.062h.849l1.4-3.335h6.31l1.348,3.335h.847Zm-3.292,7.982,2.9-6.977,2.814,6.977Z" transform="translate(-393.326 -266.653)" fill="#343333"/><path d="M328.143,26.54V38.595h-.835L319.428,27.8V38.595h-.778V26.54h.818l7.9,10.782V26.54Z" transform="translate(-243.286 -20.263)" fill="#343333"/><rect width="0.778" height="12.055" transform="translate(87.192 6.277)" fill="#343333"/><path d="M577.289,282.277l-.125.154a4.617,4.617,0,0,1-1.909,1.386,6.272,6.272,0,0,1-2.318.449,6.08,6.08,0,0,1-2.429-.473,5.777,5.777,0,0,1-1.892-1.322,5.986,5.986,0,0,1-1.242-2.02,7.568,7.568,0,0,1,0-5.078,5.912,5.912,0,0,1,1.237-2.017,5.772,5.772,0,0,1,1.909-1.324,6.1,6.1,0,0,1,2.422-.473,6.181,6.181,0,0,1,2.129.381,4.646,4.646,0,0,1,1.793,1.183l.13.14-.5.591-.163-.175a3.675,3.675,0,0,0-.709-.6,4.814,4.814,0,0,0-.861-.433,4.913,4.913,0,0,0-.915-.251,5.34,5.34,0,0,0-3.03.352,4.887,4.887,0,0,0-1.656,1.183,5.4,5.4,0,0,0-1.064,1.779,6.3,6.3,0,0,0-.383,2.2,6.438,6.438,0,0,0,.374,2.2,5.371,5.371,0,0,0,1.057,1.776,4.885,4.885,0,0,0,1.656,1.183,5.2,5.2,0,0,0,2.152.433,5.347,5.347,0,0,0,2.013-.4,3.956,3.956,0,0,0,1.625-1.183l.144-.18Z" transform="translate(-477.169 -265.606)" fill="#343333"/><path d="M378.7,279.119a5,5,0,0,0,.835-.139,3.393,3.393,0,0,0,1.135-.518,2.8,2.8,0,0,0,.854-.946,2.984,2.984,0,0,0,.331-1.469,3.044,3.044,0,0,0-.35-1.551,2.691,2.691,0,0,0-.9-.946,3.4,3.4,0,0,0-1.225-.473,7.481,7.481,0,0,0-1.306-.116H374.72v12.062h.776v-5.877h2.327l3.434,5.863h.9Zm-3.2-5.428h2.386a6.75,6.75,0,0,1,1.221.111,3.038,3.038,0,0,1,1.019.376,1.932,1.932,0,0,1,.688.71,2.29,2.29,0,0,1,.267,1.157,2.1,2.1,0,0,1-.75,1.741,3.523,3.523,0,0,1-2.263.627H375.5Z" transform="translate(-330.415 -266.676)" fill="#343333"/><path d="M327.605,275.345a6.047,6.047,0,0,0-1.265-2.006,5.78,5.78,0,0,0-1.913-1.324,6.4,6.4,0,0,0-4.841,0,5.809,5.809,0,0,0-1.913,1.322,6.107,6.107,0,0,0-1.265,2.008,7.355,7.355,0,0,0,0,5.1,6.033,6.033,0,0,0,1.265,2.008,5.766,5.766,0,0,0,1.925,1.322,6.353,6.353,0,0,0,4.822,0,5.768,5.768,0,0,0,1.92-1.322,6.03,6.03,0,0,0,1.265-2.008A7.355,7.355,0,0,0,327.605,275.345Zm-5.6,8.152a5.219,5.219,0,0,1-2.162-.435,4.966,4.966,0,0,1-1.656-1.183,5.345,5.345,0,0,1-1.074-1.776,6.279,6.279,0,0,1-.381-2.2,6.188,6.188,0,0,1,.385-2.2,5.455,5.455,0,0,1,1.09-1.781,5.2,5.2,0,0,1,7.6,0,5.456,5.456,0,0,1,1.09,1.781,6.189,6.189,0,0,1,.386,2.2,6.257,6.257,0,0,1-.381,2.2,5.409,5.409,0,0,1-1.069,1.779,5.011,5.011,0,0,1-1.656,1.183A5.256,5.256,0,0,1,322.007,283.5Z" transform="translate(-285.544 -265.592)" fill="#343333"/><path d="M438.333,18.216h-3.5v-3.5H433.3v3.5h-3.5v1.542h3.5v3.5h1.542v-3.5h3.5Z" transform="translate(-328.148 -11.239)" fill="#343333"/></svg>