<svg xmlns="http://www.w3.org/2000/svg" width="109.492" height="16.705" viewBox="0 0 109.492 16.705"><g transform="translate(0 0.001)"><g transform="translate(0 -0.001)"><path d="M-457.458,90.5a4.24,4.24,0,0,1-4.207,4.54,3.37,3.37,0,0,1-2.787-1.279V94.83h-2.173V81.684h2.366v5.311a3.416,3.416,0,0,1,2.594-1.034A4.24,4.24,0,0,1-457.458,90.5Zm-2.4-.018A2.231,2.231,0,0,0-462.1,88.1a2.175,2.175,0,0,0-2.191,2.4,2.159,2.159,0,0,0,2.191,2.384A2.236,2.236,0,0,0-459.859,90.483Z" transform="translate(466.625 -81.473)" fill="#333"/><path d="M-429.11,99.213h-6.082a2.29,2.29,0,0,0,2.436,1.718,3.823,3.823,0,0,0,2.419-.876l.981,1.613a5.282,5.282,0,0,1-3.47,1.3,4.538,4.538,0,0,1-4.75-4.54,4.475,4.475,0,0,1,4.54-4.54,3.937,3.937,0,0,1,4.084,4.032A6.067,6.067,0,0,1-429.11,99.213Zm-6.082-1.665h3.944a1.764,1.764,0,0,0-1.875-1.753A2.119,2.119,0,0,0-435.192,97.548Z" transform="translate(447.759 -89.397)" fill="#333"/><path d="M-400.751,97.372v5.381H-403.1V97.688a1.565,1.565,0,0,0-1.613-1.683,1.592,1.592,0,0,0-1.648,1.683v5.066h-2.366V94.077h2.173v.789a3.528,3.528,0,0,1,2.541-.982A3.157,3.157,0,0,1-400.751,97.372Z" transform="translate(429.023 -89.397)" fill="#333"/><path d="M-373.411,99.213h-6.082a2.29,2.29,0,0,0,2.437,1.718,3.822,3.822,0,0,0,2.419-.876l.982,1.613a5.284,5.284,0,0,1-3.471,1.3,4.538,4.538,0,0,1-4.75-4.54,4.475,4.475,0,0,1,4.54-4.54,3.937,3.937,0,0,1,4.084,4.032A6.082,6.082,0,0,1-373.411,99.213Zm-6.082-1.665h3.944a1.764,1.764,0,0,0-1.875-1.753A2.12,2.12,0,0,0-379.493,97.548Z" transform="translate(411.585 -89.397)" fill="#333"/><path d="M-350.8,81.083a4.213,4.213,0,0,1,1.3.193v1.981a5.091,5.091,0,0,0-.7-.053c-1.052,0-1.577.351-1.577,1.35v1.21h1.91v2h-1.91V94.44h-2.367V87.762h-1.227v-2h1.227v-1.42C-354.151,82.117-352.819,81.083-350.8,81.083Zm2.174,1.525a1.482,1.482,0,0,1,1.525-1.473,1.478,1.478,0,0,1,1.507,1.473,1.474,1.474,0,0,1-1.507,1.455A1.479,1.479,0,0,1-348.629,82.608Zm.333,3.155h2.367V94.44H-348.3Z" transform="translate(394.375 -81.083)" fill="#333"/><path d="M-318.811,97.071v1.981a6.577,6.577,0,0,1-1.63.21c-2.138,0-3.47-1.034-3.47-3.26V92.373h-1.368v-2h1.368V88.184h2.366v2.191h2.454v2h-2.454v3.418c0,1,.526,1.35,1.612,1.35C-319.652,97.141-319.266,97.106-318.811,97.071Z" transform="translate(374.827 -85.695)" fill="#333"/><path d="M-300.679,94.83h-1.35V81.684h1.35Z" transform="translate(359.728 -81.473)" fill="#5cb885"/><path d="M-283.54,98.736a4.444,4.444,0,0,1-4.487,4.452,4.425,4.425,0,0,1-4.452-4.452,4.408,4.408,0,0,1,4.47-4.452A4.429,4.429,0,0,1-283.54,98.736Zm-7.555.018a3.057,3.057,0,0,0,3.068,3.19,3.1,3.1,0,0,0,3.1-3.19,3.091,3.091,0,0,0-3.085-3.225A3.069,3.069,0,0,0-291.1,98.754Z" transform="translate(353.526 -89.656)" fill="#5cb885"/><path d="M-254.467,99.97a3.424,3.424,0,0,1-3.524,3.593,3.419,3.419,0,0,1-3.541-3.593V94.834h1.332v5.224a2.14,2.14,0,0,0,2.209,2.261,2.132,2.132,0,0,0,2.174-2.261V94.834h1.35Z" transform="translate(333.427 -90.014)" fill="#5cb885"/><path d="M-227.167,97.65v5.364h-1.35V97.807a2.069,2.069,0,0,0-2.121-2.279,2.172,2.172,0,0,0-2.243,2.279v5.206h-1.35V94.477h1.262v.912a3.45,3.45,0,0,1,2.629-1.1A3.053,3.053,0,0,1-227.167,97.65Z" transform="translate(315.697 -89.656)" fill="#5cb885"/><path d="M-199.669,94.477v7.712a3.871,3.871,0,0,1-4.154,4.172,5.682,5.682,0,0,1-4.014-1.648l.789-.946a4.662,4.662,0,0,0,3.19,1.35,2.589,2.589,0,0,0,2.84-2.857v-.753a4,4,0,0,1-3.173,1.42,4.133,4.133,0,0,1-4.189-4.312,4.158,4.158,0,0,1,4.189-4.33,3.872,3.872,0,0,1,3.243,1.56V94.477ZM-201,98.614a2.844,2.844,0,0,0-2.98-3.05,2.946,2.946,0,0,0-3.032,3.067,2.932,2.932,0,0,0,3.032,3.05A2.851,2.851,0,0,0-201,98.614Z" transform="translate(298.908 -89.656)" fill="#5cb885"/><path d="M-169.681,99.157h-6.749a3.025,3.025,0,0,0,3.138,2.8,3.59,3.59,0,0,0,2.612-1.157l.789.911a4.6,4.6,0,0,1-3.418,1.49,4.409,4.409,0,0,1-4.523-4.452,4.378,4.378,0,0,1,4.365-4.47,3.758,3.758,0,0,1,3.891,3.856A5.085,5.085,0,0,1-169.681,99.157Zm-6.7-1.192h5.416a2.4,2.4,0,0,0-2.542-2.454A2.909,2.909,0,0,0-176.377,97.965Z" transform="translate(279.068 -89.656)" fill="#5cb885"/></g></g></svg>