<svg xmlns="http://www.w3.org/2000/svg" width="70.19" height="13.544" viewBox="0 0 70.19 13.544"><g transform="translate(0)"><g transform="translate(0 0)"><g transform="translate(2.321 2.472)"><path d="M6.748,12.122a.644.644,0,0,1-.493-1.058l2.281-2.72a2.545,2.545,0,0,0-.142-3.475,2.61,2.61,0,0,0-3.685,0,2.553,2.553,0,0,0-.163,3.473L5.818,9.774a.644.644,0,0,1-.051.909h0a.645.645,0,0,1-.91-.052L3.565,9.185a3.878,3.878,0,0,1,2.98-6.367A3.878,3.878,0,0,1,9.3,3.953a3.835,3.835,0,0,1,.229,5.219l-2.281,2.72a.646.646,0,0,1-.494.23" transform="translate(-2.645 -2.818)" fill="#fff"/></g><path d="M4.854,13.542a.644.644,0,0,1-.476-.209L1.466,10.155a6.119,6.119,0,0,1,.369-8.345,6.223,6.223,0,0,1,8.782.005,6.12,6.12,0,0,1,.361,8.322L8.441,13.181a.644.644,0,0,1-.907.082h0a.644.644,0,0,1-.084-.907h0L9.995,9.308a4.837,4.837,0,0,0-.284-6.579,4.945,4.945,0,0,0-6.973,0,4.835,4.835,0,0,0-.3,6.578l2.409,2.628L6.53,10a.644.644,0,0,1,.971.847h0L5.34,13.323a.647.647,0,0,1-.478.221Z" transform="translate(0 0)" fill="#fff"/><g transform="translate(5.045 5.24)"><path d="M8.117,7.157A1.184,1.184,0,1,1,6.934,5.973,1.183,1.183,0,0,1,8.117,7.157" transform="translate(-5.75 -5.973)" fill="#fff"/></g></g><path d="M20.917,10.064a2.357,2.357,0,0,1-.631.075.854.854,0,0,1-.733-.291,1.671,1.671,0,0,1-.216-.969V6.59a.007.007,0,0,1,.007-.006h1.992a.008.008,0,0,0,.007-.007V5.5a.008.008,0,0,0-.007-.007H19.345a.008.008,0,0,1-.007-.007V4.315a.675.675,0,0,0-.594-.683.652.652,0,0,0-.708.59c0,.019,0,.039,0,.059V8.889a4.685,4.685,0,0,0,.1,1,1.868,1.868,0,0,0,.334.744,1.483,1.483,0,0,0,.641.469,2.735,2.735,0,0,0,1.007.161,3.251,3.251,0,0,0,.862-.1,4.919,4.919,0,0,0,.588-.2v-.008L21.35,9.929l-.006-.006h0q-.209.08-.425.14Z" transform="translate(-2.212 -0.445)" fill="#fff"/><path d="M25.738,5.68c-.117-.018-.232-.032-.345-.043a2.763,2.763,0,0,0-.3-.016,5.917,5.917,0,0,0-1.256.124,7.271,7.271,0,0,0-.939.263v5.358a.008.008,0,0,0,.007.007h1.291a.008.008,0,0,0,.007-.007V6.855a2.752,2.752,0,0,1,.335-.074,2.586,2.586,0,0,1,.458-.043,3.3,3.3,0,0,1,.663.06,4.171,4.171,0,0,1,.439.111l.008,0h0l.223-1.086V5.81c-.064-.021-.148-.044-.254-.068s-.218-.046-.336-.062Z" transform="translate(-2.808 -0.689)" fill="#fff"/><path d="M31.1,6.209a1.738,1.738,0,0,0-.7-.453,3.187,3.187,0,0,0-1.089-.161,5.686,5.686,0,0,0-1.013.088,5.3,5.3,0,0,0-.718.171v.007L27.74,6.9l.006.006h0a3.693,3.693,0,0,1,.607-.148,4.962,4.962,0,0,1,.83-.064,1.535,1.535,0,0,1,.555.088.858.858,0,0,1,.544.6,1.7,1.7,0,0,1,.054.431v.216a4.3,4.3,0,0,0-.506-.088,4.11,4.11,0,0,0-.453-.027,4.259,4.259,0,0,0-.889.088,2.211,2.211,0,0,0-.749.3,1.55,1.55,0,0,0-.511.544,1.642,1.642,0,0,0-.189.819,1.949,1.949,0,0,0,.168.852,1.467,1.467,0,0,0,.463.561,1.934,1.934,0,0,0,.717.312,4.114,4.114,0,0,0,.926.1,9.345,9.345,0,0,0,1.374-.088q.6-.088.905-.155l.005-.006V7.835a3.468,3.468,0,0,0-.113-.911A1.7,1.7,0,0,0,31.1,6.209Zm-.771,4.176-.005.007a4.948,4.948,0,0,1-.911.063,1.5,1.5,0,0,1-.79-.175.691.691,0,0,1-.29-.641.678.678,0,0,1,.108-.393A.722.722,0,0,1,28.728,9a1.378,1.378,0,0,1,.4-.118,2.944,2.944,0,0,1,.439-.032,2.9,2.9,0,0,1,.453.032,2.624,2.624,0,0,1,.308.063l0,.006Z" transform="translate(-3.316 -0.686)" fill="#fff"/><path d="M41.779,5.595a2.6,2.6,0,0,0-.969.189,2.417,2.417,0,0,0-.841.561,2.739,2.739,0,0,0-.588.933,3.533,3.533,0,0,0-.221,1.3,3.777,3.777,0,0,0,.175,1.17,2.511,2.511,0,0,0,.526.926,2.4,2.4,0,0,0,.905.614,3.461,3.461,0,0,0,1.293.221,4.964,4.964,0,0,0,.571-.032c.187-.022.362-.048.526-.081a4.016,4.016,0,0,0,.431-.108,2.173,2.173,0,0,0,.292-.111v-.007l-.17-1.053-.006-.006h0a3.57,3.57,0,0,1-.614.18,4.062,4.062,0,0,1-.868.088,1.822,1.822,0,0,1-1.234-.372,1.483,1.483,0,0,1-.479-1.043s0-.007.006-.008h3.706a.007.007,0,0,0,.007-.006q.011-.105.016-.237c0-.088.005-.17.005-.242a3.128,3.128,0,0,0-.652-2.156,2.323,2.323,0,0,0-1.816-.724ZM40.526,8a.008.008,0,0,1-.007-.007h0a2.287,2.287,0,0,1,.118-.477,1.37,1.37,0,0,1,.243-.42,1.2,1.2,0,0,1,.383-.3,1.174,1.174,0,0,1,.526-.113,1.137,1.137,0,0,1,.5.1,1.054,1.054,0,0,1,.355.28,1.239,1.239,0,0,1,.221.42,1.733,1.733,0,0,1,.075.505A.008.008,0,0,1,42.935,8Z" transform="translate(-4.803 -0.686)" fill="#fff"/><path d="M63.971,6.4a2.408,2.408,0,0,0-.857-.6,2.8,2.8,0,0,0-1.094-.211,2.757,2.757,0,0,0-1.089.211,2.474,2.474,0,0,0-.856.6,2.72,2.72,0,0,0-.561.932,3.524,3.524,0,0,0-.2,1.213,3.553,3.553,0,0,0,.2,1.218,2.751,2.751,0,0,0,.555.937,2.491,2.491,0,0,0,.851.6,2.719,2.719,0,0,0,1.1.216,2.774,2.774,0,0,0,1.1-.216,2.472,2.472,0,0,0,.857-.6,2.71,2.71,0,0,0,.55-.937,3.638,3.638,0,0,0,.194-1.218,3.5,3.5,0,0,0-.2-1.213A2.773,2.773,0,0,0,63.971,6.4ZM63.028,9.9a1.272,1.272,0,0,1-1.784.234A1.287,1.287,0,0,1,61.01,9.9a2.244,2.244,0,0,1-.361-1.347,2.2,2.2,0,0,1,.361-1.331A1.281,1.281,0,0,1,62.809,7a1.3,1.3,0,0,1,.219.219,2.2,2.2,0,0,1,.361,1.331A2.25,2.25,0,0,1,63.028,9.9Z" transform="translate(-7.274 -0.686)" fill="#fff"/><path d="M69.485,5.68c-.117-.018-.232-.032-.345-.043a2.763,2.763,0,0,0-.3-.016,5.917,5.917,0,0,0-1.256.124,7.271,7.271,0,0,0-.939.263v5.358l.005.007h1.291a.008.008,0,0,0,.007-.007V6.855a2.752,2.752,0,0,1,.335-.074,2.587,2.587,0,0,1,.458-.043,3.3,3.3,0,0,1,.663.06,4.169,4.169,0,0,1,.439.111l.008,0h0l.224-1.086V5.81c-.064-.021-.148-.044-.254-.068S69.6,5.7,69.485,5.68Z" transform="translate(-8.173 -0.689)" fill="#fff"/><path d="M46.683,3.634a.675.675,0,0,0-.593.683v6.807a.008.008,0,0,0,.007.007h1.291a.007.007,0,0,0,.006-.007V4.279a.652.652,0,0,0-.655-.648l-.055,0Z" transform="translate(-5.653 -0.445)" fill="#fff"/><path d="M72.018,3.634a.651.651,0,0,0-.711.585c0,.016,0,.032,0,.047v6.857a.008.008,0,0,0,.007.007H72.6a.008.008,0,0,0,.007-.007V4.315A.674.674,0,0,0,72.018,3.634Z" transform="translate(-8.745 -0.445)" fill="#fff"/><path d="M77.987,4.288v1.4l-.005.007h0a3.328,3.328,0,0,0-.526-.211,2.451,2.451,0,0,0-.722-.1,2.561,2.561,0,0,0-1.067.211,2.184,2.184,0,0,0-.79.6,2.635,2.635,0,0,0-.49.932,4.133,4.133,0,0,0-.168,1.212,3.518,3.518,0,0,0,.2,1.223,2.567,2.567,0,0,0,.571.926,2.478,2.478,0,0,0,.9.587,3.3,3.3,0,0,0,1.2.205,7.555,7.555,0,0,0,1.234-.1,7.779,7.779,0,0,0,.97-.214l0-.006V4.234a.654.654,0,0,0-1.3.054m0,5.765-.005.007c-.093.021-.211.04-.356.058a4.516,4.516,0,0,1-.533.027,1.393,1.393,0,0,1-1.132-.49,2.046,2.046,0,0,1-.41-1.352,2.311,2.311,0,0,1,.328-1.316,1.168,1.168,0,0,1,1.04-.485,1.8,1.8,0,0,1,.609.1,2.033,2.033,0,0,1,.455.218v.005Z" transform="translate(-9.102 -0.447)" fill="#fff"/><path d="M36.549,6.777q-.162.544-.34,1.089t-.363,1.053q-.18.5-.34.907l-.008,0,0,0q-.159-.4-.347-.907T34.78,7.865q-.175-.544-.335-1.089l-.168-.6a.564.564,0,0,0-.545-.419h-.2a.565.565,0,0,0-.54.73q.378,1.242.819,2.358.567,1.436,1.107,2.544h1.119q.541-1.109,1.107-2.544.438-1.116.819-2.357a.565.565,0,0,0-.377-.705.551.551,0,0,0-.164-.025h-.157a.563.563,0,0,0-.544.416q-.079.286-.172.6Z" transform="translate(-4.043 -0.706)" fill="#fff"/><path d="M53.356,4.507A.671.671,0,0,1,54,4.985c.073.243.149.492.227.747q.2.636.408,1.273t.425,1.252q.212.615.408,1.159.163-.588.316-1.278T56.089,6.7q.153-.745.3-1.518.093-.491.18-.973a.67.67,0,0,1,.661-.551h.034a.675.675,0,0,1,.673.675.716.716,0,0,1-.013.13q-.32,1.615-.694,3.129-.467,1.889-1.044,3.608H54.868Q54.025,9,53.235,6.4q-.4,1.316-.818,2.5t-.828,2.3H50.28q-.587-1.72-1.048-3.608-.37-1.515-.688-3.13a.673.673,0,0,1,.531-.791.7.7,0,0,1,.128-.012h.1a.669.669,0,0,1,.661.55q.088.475.175.965.146.773.3,1.518t.321,1.442q.163.7.326,1.284.207-.555.419-1.17T51.926,7q.207-.637.4-1.268.112-.374.216-.733a.672.672,0,0,1,.646-.486Z" transform="translate(-5.952 -0.449)" fill="#fff"/></g></svg>