<svg xmlns="http://www.w3.org/2000/svg" width="97.507" height="15.62" viewBox="0 0 97.507 15.62">
  <g id="Gruppe_1645" data-name="Gruppe 1645" transform="translate(0 0)">
    <g id="Gruppe_1363" data-name="Gruppe 1363" transform="translate(0 0)">
      <g id="Gruppe_1362" data-name="Gruppe 1362" transform="translate(0)">
        <path id="Pfad_872" data-name="Pfad 872" d="M132.794,256.485v-8.146h2.1v.655a3.239,3.239,0,0,1,2.2-.823,3.55,3.55,0,0,1,2.738,1.276,4.044,4.044,0,0,1,2.889-1.276,3.714,3.714,0,0,1,2.855,1.31,4.043,4.043,0,0,1,.823,2.687v4.316h-2.184v-4.4a1.912,1.912,0,0,0-.4-1.394,1.635,1.635,0,0,0-1.226-.5,2.543,2.543,0,0,0-1.965,1.075,7.148,7.148,0,0,1,.067.907v4.316H138.5v-4.4a1.913,1.913,0,0,0-.4-1.394,1.635,1.635,0,0,0-1.226-.5,2.515,2.515,0,0,0-1.9,1.008v5.291Z" transform="translate(-132.794 -243.888)" fill="#333"/>
        <path id="Pfad_873" data-name="Pfad 873" d="M185.776,256.485h-2.1v-.655a3.4,3.4,0,0,1-2.267.823,4.1,4.1,0,0,1-3.073-1.377,4.373,4.373,0,0,1-1.042-2.855,4.089,4.089,0,0,1,4-4.249,3.728,3.728,0,0,1,2.385.823v-.655h2.1Zm-2.184-5.291a2.5,2.5,0,0,0-2.015-1.008,2.228,2.228,0,0,0,.051,4.451,2.385,2.385,0,0,0,1.965-1.008Z" transform="translate(-162.347 -243.888)" fill="#333"/>
        <path id="Pfad_874" data-name="Pfad 874" d="M214,250.27a3.036,3.036,0,0,0-.789-.084,2.417,2.417,0,0,0-1.982,1.176v5.123h-2.184v-8.146h2.1v.823a3.048,3.048,0,0,1,2.368-.991,4.448,4.448,0,0,1,.739.067Z" transform="translate(-183.432 -243.888)" fill="#333"/>
        <path id="Pfad_875" data-name="Pfad 875" d="M232.625,244.86l4.484,4.484h-2.939l-3.443-3.527v3.527h-2.184V237.42h2.184v6.416l2.8-2.637H236.6Z" transform="translate(-196.382 -236.748)" fill="#333"/>
        <path id="Pfad_876" data-name="Pfad 876" d="M261.65,255.191a4.419,4.419,0,0,1-3.342,1.461,4.074,4.074,0,0,1-4.266-4.233,4.017,4.017,0,0,1,3.964-4.249,3.955,3.955,0,0,1,3.846,4.165,3.627,3.627,0,0,1-.05.622h-5.643a2.138,2.138,0,0,0,2.2,1.931,2.883,2.883,0,0,0,2.049-.94Zm-2.032-3.829a1.625,1.625,0,0,0-1.613-1.428,1.767,1.767,0,0,0-1.747,1.428Z" transform="translate(-213.317 -243.888)" fill="#333"/>
        <path id="Pfad_877" data-name="Pfad 877" d="M285.6,252.333a5.375,5.375,0,0,1-1.36.168,3.354,3.354,0,0,1-2.821-1.176,3.822,3.822,0,0,1-.6-2.435v-2.855h-2.267v-1.847h2.267V241.92h2.184v2.268h2.687v1.847h-2.687v3.107a1.5,1.5,0,0,0,.269,1.024,1.384,1.384,0,0,0,1.109.4,5.358,5.358,0,0,0,.89-.084Z" transform="translate(-229.587 -239.737)" fill="#333"/>
        <path id="Pfad_878" data-name="Pfad 878" d="M313.427,251.954a4.077,4.077,0,0,1-4.031,4.367,3.308,3.308,0,0,1-2.486-1.008v3.83h-2.267V247.806h2.082v1.041a3.184,3.184,0,0,1,2.67-1.226A4.048,4.048,0,0,1,313.427,251.954Zm-2.3.017a2.142,2.142,0,0,0-2.15-2.3,2.3,2.3,0,0,0,0,4.585A2.138,2.138,0,0,0,311.126,251.971Z" transform="translate(-246.921 -243.523)" fill="#333"/>
        <path id="Pfad_879" data-name="Pfad 879" d="M337.359,248.016h-2.267v-12.6h2.267Z" transform="translate(-267.143 -235.42)" fill="#333"/>
        <path id="Pfad_880" data-name="Pfad 880" d="M353.482,251.182v4.938H351.4v-.806a3.407,3.407,0,0,1-2.536,1.008c-1.814,0-2.872-1.075-2.872-2.485,0-1.512,1.226-2.419,3.141-2.419h2.083v-.369a1.36,1.36,0,0,0-1.545-1.461,2.923,2.923,0,0,0-2.2,1.142l-1.176-1.394a4.507,4.507,0,0,1,3.628-1.713A3.259,3.259,0,0,1,353.482,251.182Zm-2.268,1.831v-.1h-1.78c-.739,0-1.159.286-1.159.84,0,.571.487.907,1.192.907A1.662,1.662,0,0,0,351.214,253.012Z" transform="translate(-274.381 -243.523)" fill="#333"/>
        <path id="Pfad_881" data-name="Pfad 881" d="M380.454,249.67l-1.579,1.226a2.326,2.326,0,0,0-2-1.209,2.278,2.278,0,0,0,0,4.551,2.39,2.39,0,0,0,2-1.192l1.579,1.21a4,4,0,0,1-3.611,2.065,4.351,4.351,0,1,1,0-8.7A3.966,3.966,0,0,1,380.454,249.67Z" transform="translate(-291.914 -243.523)" fill="#333"/>
        <path id="Pfad_882" data-name="Pfad 882" d="M406.6,252.727h-5.828a2.194,2.194,0,0,0,2.334,1.646,3.665,3.665,0,0,0,2.318-.84l.94,1.545a5.061,5.061,0,0,1-3.325,1.242,4.348,4.348,0,0,1-4.552-4.35,4.288,4.288,0,0,1,4.35-4.35,3.773,3.773,0,0,1,3.913,3.863A5.822,5.822,0,0,1,406.6,252.727Zm-5.828-1.6h3.779a1.69,1.69,0,0,0-1.8-1.679A2.031,2.031,0,0,0,400.775,251.131Z" transform="translate(-309.247 -243.523)" fill="#333"/>
      </g>
    </g>
  </g>
</svg>
